<?xml version="1.0" encoding="utf-8"?>
<!-- Generator: Adobe Illustrator 27.3.1, SVG Export Plug-In . SVG Version: 6.00 Build 0)  -->
<svg version="1.1" id="Layer_1" xmlns="http://www.w3.org/2000/svg" xmlns:xlink="http://www.w3.org/1999/xlink" x="0px" y="0px"
	 viewBox="0 0 512 512" style="enable-background:new 0 0 512 512;" xml:space="preserve">
<style type="text/css">
	.st0{fill:#FFFFFF;}
</style>
<path class="st0" d="M254.1,363.5c1.2,0.4,2.5,0.4,3.8,0c59.8-19.8,95.7-52.2,112.9-101.9c15.6-45,15.2-102.6,15-148.9
	c0-3-2.2-5.5-5.1-5.9c-44.1-6.3-85.8-24.1-120.9-51.6c-2.2-1.7-5.2-1.7-7.4,0c-35.1,27.5-76.8,45.3-120.9,51.6
	c-2.9,0.4-5.1,2.9-5.1,5.9c-0.3,46.3-0.6,103.8,15,148.9C158.4,311.3,194.3,343.7,254.1,363.5L254.1,363.5z M138.2,118
	c42.8-7,83.2-24.3,117.8-50.4c34.6,26.1,75,43.4,117.8,50.4c0.2,44.4,0,98.3-14.3,139.7c-15.7,45.3-48.6,75.2-103.4,93.8
	c-54.9-18.6-87.8-48.4-103.4-93.8C138.2,216.3,138,162.4,138.2,118L138.2,118z M506,412.9h-9.2V143.1c0-11.6-9.4-21-21-21h-67.6
	c0-4.8,0-9.5,0-14.3c0-5,0-10.1,0-15.2c0-3.2-2.5-5.8-5.6-6c-53-3.3-103.2-24.6-142.4-60.4c-2.3-2.1-5.8-2.1-8.1,0
	c-39.2,35.8-89.4,57.1-142.4,60.4c-3.2,0.2-5.6,2.8-5.6,6c0,5.1,0,10.1,0,15.2c0,4.8,0,9.6,0,14.3H36.3c-11.6,0-21,9.4-21,21v269.8
	H6c-3.3,0-6,2.7-6,6v31.2c0,20.6,16.7,37.2,37.2,37.2h437.5c20.6,0,37.2-16.7,37.2-37.3v-31.2C512,415.6,509.3,412.9,506,412.9z
	 M484.8,143.1v269.8h-14.6V154.7c0-3.3-2.7-6-6-6H408c0.1-4.8,0.1-9.7,0.1-14.6h67.6C480.7,134.1,484.8,138.1,484.8,143.1
	L484.8,143.1z M53.8,412.9V160.7h50.4c1.1,41.3,4.9,80.2,18,114.5c10.1,26.4,24.8,48,45,65.9c22.3,19.8,50.7,34.9,86.9,46
	c1.1,0.4,2.4,0.4,3.5,0c36.2-11.1,64.6-26.2,86.9-46c20.2-18,34.9-39.5,45-65.9c13.1-34.3,17-73.2,18-114.5h50.4v252.2H53.8z
	 M340.9,424.9l-6.8,20.8H177.9l-6.8-20.8H340.9z M115.9,107.8c0-3.2,0-6.4,0-9.6c51.8-4.4,100.9-25.3,140.1-59.5
	c39.2,34.2,88.3,55.1,140.1,59.5c0,3.2,0,6.4,0,9.6c0.2,119.7,0.5,223.2-140.1,267.3C115.4,331,115.6,227.5,115.9,107.8L115.9,107.8
	z M27.2,143.1c0-5,4-9,9-9h67.6c0,4.9,0.1,9.8,0.1,14.6H47.8c-3.3,0-6,2.7-6,6v258.3H27.2L27.2,143.1z M500,450.2
	c0,13.9-11.3,25.2-25.2,25.2H37.3c-13.9,0-25.2-11.3-25.2-25.2v-25.2h146.5l9.3,28.7c0.8,2.5,3.1,4.1,5.7,4.1h165
	c2.6,0,4.9-1.7,5.7-4.1l9.3-28.7H500L500,450.2z M51.9,450.2c0,3.3-2.7,6-6,6c0,0,0,0,0,0h0c-3.3,0-6-2.7-6-6c0-3.3,2.7-6,6-6
	C49.2,444.2,51.9,446.9,51.9,450.2z M69.7,450.2c0,3.3-2.7,6-6,6c0,0,0,0,0,0h-0.1c-3.3,0-6-2.7-6-6c0-3.3,2.7-6,6-6
	C67,444.2,69.7,446.9,69.7,450.2z M87.5,450.2c0,3.3-2.7,6-6,6c0,0,0,0,0,0h-0.1c-3.3,0-6-2.7-6-6c0-3.3,2.7-6,6-6
	C84.8,444.2,87.5,446.9,87.5,450.2z M123.2,450.2c0,3.3-2.7,6-6,6c-3.3,0-6-2.7-6-6c0-3.3,2.7-6,6-6h0.1
	C120.5,444.2,123.2,446.9,123.2,450.2z M105.4,450.2c0,3.3-2.7,6-6,6c-3.3,0-6-2.7-6-6c0-3.3,2.7-6,6-6h0.1
	C102.7,444.2,105.4,446.9,105.4,450.2z M388.8,450.2c0-3.3,2.7-6,6-6c3.3,0,6,2.7,6,6c0,3.3-2.7,6-6,6h0
	C391.5,456.2,388.8,453.5,388.8,450.2L388.8,450.2z M406.6,450.2c0-3.3,2.7-6,6-6c3.3,0,6,2.7,6,6c0,3.3-2.7,6-6,6h-0.1
	C409.3,456.2,406.6,453.5,406.6,450.2L406.6,450.2z M424.4,450.2c0-3.3,2.7-6,6-6c3.3,0,6,2.7,6,6c0,3.3-2.7,6-6,6h-0.1
	C427.1,456.2,424.4,453.5,424.4,450.2L424.4,450.2z M460.1,450.2c0-3.3,2.7-6,6-6c0,0,0,0,0,0h0.1c3.3,0,6,2.7,6,6c0,3.3-2.7,6-6,6
	C462.8,456.2,460.1,453.5,460.1,450.2z M442.3,450.2c0-3.3,2.7-6,6-6c0,0,0,0,0,0h0.1c3.3,0,6,2.7,6,6c0,3.3-2.7,6-6,6
	C445,456.2,442.3,453.5,442.3,450.2z M235,272.5c1.6,0,3.2-0.6,4.3-1.8l102.1-104.1c2.3-2.4,2.3-6.2-0.1-8.5c0,0,0,0,0,0l-17.2-16.9
	c-2.4-2.3-6.2-2.3-8.5,0.1c0,0,0,0,0,0L235,223.5l-38.6-39.3c-2.3-2.4-6.1-2.4-8.5-0.1L170.7,201c-2.4,2.3-2.4,6.1-0.1,8.5
	c0,0,0,0,0,0l60.1,61.3C231.8,271.8,233.4,272.5,235,272.5L235,272.5z M192,196.8l38.7,39.4c2.3,2.4,6.1,2.4,8.5,0.1
	c0,0,0.1-0.1,0.1-0.1L320,154l8.6,8.5L235,257.9l-51.6-52.6L192,196.8z"/>
</svg>
