<?xml version="1.0" encoding="utf-8"?>
<!-- Generator: Adobe Illustrator 27.3.1, SVG Export Plug-In . SVG Version: 6.00 Build 0)  -->
<svg version="1.1" id="Capa_1" xmlns="http://www.w3.org/2000/svg" xmlns:xlink="http://www.w3.org/1999/xlink" x="0px" y="0px"
	 viewBox="0 0 512 512" style="enable-background:new 0 0 512 512;" xml:space="preserve">
<style type="text/css">
	.st0{fill:#FFFFFF;}
</style>
<g>
	<g>
		<path class="st0" d="M256,123c-73.3,0-133,59.7-133,133s59.7,133,133,133s133-59.7,133-133C389,182.7,329.3,123,256,123z
			 M189.2,164.9c-2.4,4.9-4.2,10.1-5.5,15.6c-3-0.8-6-1.8-8.8-3.1C179.3,172.9,184.1,168.7,189.2,164.9z M162,193.3
			c6.2,3.4,12.9,5.8,19.8,7.3V246h-38.3C145.2,226.6,151.8,208.7,162,193.3z M143.5,266h38.3v45.4c-6.9,1.5-13.5,3.9-19.8,7.3
			C151.8,303.3,145.2,285.4,143.5,266z M174.9,334.6c2.8-1.3,5.8-2.3,8.8-3.1c1.3,5.5,3.1,10.7,5.5,15.6
			C184.1,343.3,179.3,339.1,174.9,334.6z M246,368c-20.2-3.8-36.5-18.8-42.1-38.3H246V368z M246,309.8h-44.2V266H246V309.8z
			 M246,246h-44.2v-43.8H246V246z M246,182.2h-42.1c5.6-19.5,21.9-34.5,42.1-38.3V182.2z M368.6,246h-38.3v-45.4
			c6.9-1.5,13.5-3.9,19.8-7.3C360.2,208.7,366.9,226.6,368.6,246z M266,144c20.2,3.8,36.5,18.8,42.1,38.3H266V144z M266,368v-38.3
			h42.1C302.5,349.2,286.2,364.2,266,368z M310.2,309.8H266V266h44.2V309.8z M310.2,246H266v-43.8h44.2V246z M337.1,177.4
			c-2.8,1.3-5.8,2.3-8.8,3.1c-1.3-5.4-3.1-10.7-5.5-15.6C327.9,168.7,332.7,172.9,337.1,177.4z M322.8,347.1
			c2.4-4.9,4.2-10.1,5.5-15.6c3,0.8,6,1.8,8.8,3.1C332.7,339.1,327.9,343.3,322.8,347.1z M350,318.7c-6.2-3.4-12.9-5.8-19.8-7.3V266
			h38.3C366.9,285.4,360.2,303.3,350,318.7z"/>
	</g>
</g>
<g>
	<g>
		<path class="st0" d="M160.8,86.6c-3-4.6-9.1-6-13.7-3.1c-4.6,2.9-6.1,8.9-3.3,13.6c1.9,3.1,5.2,4.9,8.6,4.9c1.8,0,3.5-0.5,5.1-1.4
			c0.1,0,0.2-0.1,0.3-0.2C162.4,97.4,163.8,91.2,160.8,86.6z"/>
	</g>
</g>
<g>
	<g>
		<path class="st0" d="M333.4,67.2C308.8,57.1,282.8,52,256,52c-27.8,0-54.7,5.5-80,16.3c-5.1,2.2-7.4,8-5.3,13.1
			c1.6,3.8,5.3,6.1,9.2,6.1c1.3,0,2.6-0.3,3.9-0.8C206.7,76.9,231,72,256,72c24.2,0,47.6,4.6,69.8,13.7c5.1,2.1,11-0.3,13-5.5
			C340.9,75.1,338.5,69.3,333.4,67.2z"/>
	</g>
</g>
<g>
	<g>
		<path class="st0" d="M430.8,150.7c0,0-0.1-0.1-0.1-0.2c-2.9-4.7-9-6.2-13.8-3.3c-4.7,2.9-6.2,9-3.3,13.7l0,0
			c1.9,3.1,5.2,4.9,8.6,4.9c1.7,0,3.5-0.5,5.1-1.4C432,161.6,433.6,155.5,430.8,150.7z"/>
	</g>
</g>
<g>
	<g>
		<path class="st0" d="M444.7,178.2c-2.1-5.1-8-7.5-13.1-5.4c-5.1,2.1-7.5,8-5.4,13.1c9.2,22.3,13.8,45.9,13.8,70.1
			c0,23.9-4.5,47.2-13.4,69.1c-2.1,5.1,0.4,11,5.5,13c1.2,0.5,2.5,0.7,3.8,0.7c4,0,7.7-2.4,9.3-6.2C455,308.3,460,282.5,460,256
			C460,229.1,454.8,202.9,444.7,178.2z"/>
	</g>
</g>
<g>
	<g>
		<path class="st0" d="M367.8,414.9c-2.9-4.7-9.1-6.1-13.8-3.2l-0.1,0.1c-4.7,2.9-6.1,9.1-3.2,13.8c1.9,3,5.2,4.7,8.5,4.7
			c1.8,0,3.7-0.5,5.3-1.5l0.1-0.1C369.3,425.8,370.7,419.6,367.8,414.9z"/>
	</g>
</g>
<g>
	<g>
		<path class="st0" d="M339.7,431.3c-2.1-5.1-8-7.5-13.1-5.4c-22.4,9.3-46.2,14-70.6,14c-22.2,0-43.8-3.9-64.4-11.6
			c-5.2-1.9-10.9,0.7-12.9,5.9s0.7,10.9,5.9,12.9c22.8,8.5,46.8,12.9,71.4,12.9c27.1,0,53.5-5.2,78.3-15.6
			C339.4,442.3,341.8,436.4,339.7,431.3z"/>
	</g>
</g>
<g>
	<g>
		<path class="st0" d="M103.4,358.8L103.4,358.8c-3.1-4.6-9.3-5.8-13.9-2.8c-4.6,3.1-5.8,9.3-2.7,13.9l0.1,0.2
			c1.9,2.8,5.1,4.3,8.3,4.3c2,0,3.9-0.6,5.7-1.8C105.4,369.6,106.5,363.4,103.4,358.8z"/>
	</g>
</g>
<g>
	<g>
		<path class="st0" d="M87.7,330.5C77.3,307,72,281.9,72,256c0-12.6,1.3-25.2,3.8-37.4c1.1-5.4-2.4-10.7-7.8-11.8
			c-5.4-1.1-10.7,2.4-11.8,7.8C53.4,228.1,52,242.1,52,256c0,28.7,5.9,56.5,17.4,82.6c1.7,3.7,5.3,5.9,9.1,5.9c1.4,0,2.7-0.3,4-0.9
			C87.7,341.5,90,335.6,87.7,330.5z"/>
	</g>
</g>
<g>
	<g>
		<path class="st0" d="M446,372.2c-21.5,0-39,17.5-39,39s17.5,39,39,39s39-17.5,39-39S467.5,372.2,446,372.2z M446,430.2
			c-10.5,0-19-8.5-19-19s8.5-19,19-19s19,8.5,19,19S456.5,430.2,446,430.2z"/>
	</g>
</g>
<g>
	<g>
		<path class="st0" d="M446,345c-36.4,0-66,29.6-66,66c0,15.1,5.2,29.8,14.6,41.5c0,0,0,0,0,0l43.2,55.7c1.9,2.4,4.8,3.9,7.9,3.9
			c0,0,0,0,0,0c3.1,0,6-1.4,7.9-3.8l43.4-55.4c0.1-0.1,0.2-0.3,0.3-0.4C506.8,440.7,512,426,512,411C512,374.6,482.4,345,446,345z
			 M481.5,440.2c-0.2,0.2-0.4,0.5-0.6,0.8l-35.1,44.7l-35.2-45.3c-0.1-0.1-0.2-0.3-0.3-0.4c-6.8-8.3-10.3-18.3-10.3-29
			c0-25.4,20.6-46,46-46s46,20.6,46,46C492,421.6,488.3,432,481.5,440.2z"/>
	</g>
</g>
<g>
	<g>
		<path class="st0" d="M502,0H354c-5.5,0-10,4.5-10,10v112c0,5.5,4.5,10,10,10h148c5.5,0,10-4.5,10-10V10C512,4.5,507.5,0,502,0z
			 M474.1,20l-46.4,40.7L381.4,20C381.4,20,474.1,20,474.1,20z M364,31.4l35.7,31.3L364,98.3V31.4z M378.6,112l36.1-36.1l6.4,5.6
			c1.9,1.7,4.2,2.5,6.6,2.5s4.7-0.8,6.6-2.5l6.6-5.8l36.3,36.3C477.3,112,378.6,112,378.6,112z M492,98.4l-35.9-35.9L492,31V98.4z"
			/>
	</g>
</g>
<g>
	<g>
		<path class="st0" d="M110.4,437.3l-42.7-24.7c-3.1-1.8-6.9-1.8-10,0c-3.1,1.8-5,5.1-5,8.7v49.4c0,3.6,1.9,6.9,5,8.7
			c1.5,0.9,3.3,1.3,5,1.3c1.7,0,3.5-0.4,5-1.3l42.7-24.7c3.1-1.8,5-5.1,5-8.7C115.4,442.4,113.5,439.1,110.4,437.3z M72.6,453.4
			v-14.7l12.8,7.4L72.6,453.4z"/>
	</g>
</g>
<g>
	<g>
		<path class="st0" d="M148,380H20c-11,0-20,9-20,20v92c0,11,9,20,20,20h128c11,0,20-9,20-20v-92C168,389,159,380,148,380z M148,492
			H20v-92h128L148,492C148,492,148,492,148,492z"/>
	</g>
</g>
<g>
	<g>
		<path class="st0" d="M112,0H20C9,0,0,9,0,20v22.9v99.7v35.2c0,11,9,20,20,20h92c11,0,20-9,20-20v-35.2V42.9V20C132,9,123,0,112,0z
			 M20,20h92l0,12.9H20V20z M20,52.9h92v79.7H20V52.9z M112,177.8H20v-25.2h92L112,177.8C112,177.8,112,177.8,112,177.8z"/>
	</g>
</g>
<g>
	<g>
		<path class="st0" d="M74,155.6H60c-5.5,0-10,4.5-10,10s4.5,10,10,10h14c5.5,0,10-4.5,10-10S79.5,155.6,74,155.6z"/>
	</g>
</g>
</svg>
