<?xml version="1.0" encoding="utf-8"?>
<!-- Generator: Adobe Illustrator 27.3.1, SVG Export Plug-In . SVG Version: 6.00 Build 0)  -->
<svg version="1.1" id="Capa_1" xmlns="http://www.w3.org/2000/svg" xmlns:xlink="http://www.w3.org/1999/xlink" x="0px" y="0px"
	 viewBox="0 0 512 512" style="enable-background:new 0 0 512 512;" xml:space="preserve">
<style type="text/css">
	.st0{fill:#FFFFFF;}
</style>
<g>
	<path class="st0" d="M480,26.4H246.3c-4.2,0-7.5,3.4-7.5,7.5s3.4,7.5,7.5,7.5H480c9.3,0,16.9,7.6,16.9,16.9v322.4
		c0,9.3-7.6,16.9-16.9,16.9H246.3c-4.2,0-7.5,3.4-7.5,7.5s3.4,7.5,7.5,7.5h64.5V439h-64.5c-4.2,0-7.5,3.4-7.5,7.5
		c0,4.2,3.4,7.5,7.5,7.5h67.1l7.7,17.5h-74.8h-83.6c-4.2,0-7.5,3.4-7.5,7.5s3.4,7.5,7.5,7.5h83.6h86.4h18.7c4.2,0,7.5-3.4,7.5-7.5
		s-3.4-7.5-7.5-7.5h-13.8l-11.7-26.6v-32.2H480c17.6,0,32-14.3,32-32V58.4C512,40.8,497.7,26.4,480,26.4z"/>
	<path class="st0" d="M246.3,339.5c-4.2,0-7.5,3.4-7.5,7.5c0,4.2,3.4,7.5,7.5,7.5h228c4.2,0,7.5-3.4,7.5-7.5V64.1
		c0-4.2-3.4-7.5-7.5-7.5h-23.5c-4.2,0-7.5,3.4-7.5,7.5s3.4,7.5,7.5,7.5h16v267.9H246.3z"/>
	<path class="st0" d="M418.8,56.5H246.3c-4.2,0-7.5,3.4-7.5,7.5s3.4,7.5,7.5,7.5h172.5c4.2,0,7.5-3.4,7.5-7.5S423,56.5,418.8,56.5z"
		/>
	<circle class="st0" cx="256.3" cy="375.5" r="10"/>
	<path class="st0" d="M168.3,420.4c0,7.7,6.3,13.9,13.9,13.9h30.6c4.2,0,7.5-3.4,7.5-7.5s-3.4-7.5-7.5-7.5h-29.5v-21.6
		c0-3.7-2.6-6.8-6.3-7.4c-24.2-4.1-46.6-13.4-66.7-27.6c-3-2.1-7.1-1.8-9.7,0.8l-15.3,15.3l-29.8-29.8l15.3-15.3
		c2.6-2.6,2.9-6.7,0.8-9.7c-14.2-20-23.5-42.5-27.6-66.7c-0.6-3.6-3.7-6.3-7.4-6.3H15.1v-42.2h21.6c3.7,0,6.8-2.6,7.4-6.3
		c4.1-24.2,13.4-46.6,27.6-66.7c2.1-3,1.8-7.1-0.8-9.7l-15.3-15.3L85.4,81l15.3,15.3c2.6,2.6,6.7,2.9,9.7,0.8
		c20-14.2,42.5-23.5,66.7-27.6c3.6-0.6,6.3-3.7,6.3-7.4V40.5h29.5c4.2,0,7.5-3.4,7.5-7.5s-3.4-7.5-7.5-7.5h-30.6
		c-7.7,0-13.9,6.3-13.9,13.9v16.5c-21.7,4.5-42.7,13.2-61.3,25.4L95.3,69.6c-2.6-2.6-6.1-4.1-9.9-4.1c-3.7,0-7.2,1.5-9.9,4.1
		L44.2,101c-5.4,5.4-5.4,14.3,0,19.7l11.7,11.7C43.7,151,35,172,30.5,193.7H13.9C6.3,193.7,0,200,0,207.7v44.4
		c0,7.7,6.3,13.9,13.9,13.9h16.5c4.5,21.7,13.2,42.7,25.4,61.3L44.2,339c-5.4,5.4-5.4,14.3,0,19.7l31.4,31.4
		c2.6,2.6,6.1,4.1,9.9,4.1c3.7,0,7.2-1.5,9.9-4.1l11.7-11.7c18.6,12.2,39.6,20.9,61.3,25.4L168.3,420.4L168.3,420.4z"/>
	<path class="st0" d="M204.4,107.4c4.2,0,7.5-3.4,7.5-7.5s-3.4-7.5-7.5-7.5C128.6,92.4,67,154.1,67,229.9c0,27.8,8.3,54.7,24,77.6
		c1.5,2.1,3.8,3.3,6.2,3.3c1.5,0,2.9-0.4,4.2-1.3c3.4-2.3,4.3-7,2-10.5c-14-20.4-21.3-44.3-21.3-69.1
		C82,162.4,136.9,107.4,204.4,107.4L204.4,107.4z"/>
	<path class="st0" d="M113.7,333.2c25.1,22,57.3,34.2,90.7,34.2c4.2,0,7.5-3.4,7.5-7.5s-3.4-7.5-7.5-7.5
		c-29.8,0-58.4-10.8-80.8-30.4c-3.1-2.7-7.9-2.4-10.6,0.7C110.3,325.7,110.6,330.4,113.7,333.2L113.7,333.2z"/>
	<path class="st0" d="M421.4,127.8v-18.1c0-7.4-6-13.4-13.4-13.4h-18.1c-7.4,0-13.4,6-13.4,13.4v1.5H312c-2,0-3.9,0.8-5.3,2.2
		L273.1,147H162.7c-4.2,0-7.5,3.4-7.5,7.5c0,4.2,3.4,7.5,7.5,7.5h113.4c2,0,3.9-0.8,5.3-2.2l33.6-33.6h61.4v1.5
		c0,7.4,6,13.4,13.4,13.4H408C415.4,141.2,421.4,135.2,421.4,127.8z M406.4,126.2h-14.8v-14.8h14.8V126.2z"/>
	<path class="st0" d="M386,221.2h14.6c7.4,0,13.4-6,13.4-13.4v-14.6c0-7.4-6-13.4-13.4-13.4H386c-7,0-12.8,5.4-13.4,12.3h-33.8
		c-2,0-3.9,0.8-5.3,2.2l-23.2,23.2H170.8c-4.2,0-7.5,3.4-7.5,7.5c0,4.2,3.4,7.5,7.5,7.5h142.6c2,0,3.9-0.8,5.3-2.2L342,207h30.6v0.7
		C372.6,215.2,378.6,221.2,386,221.2L386,221.2z M387.6,194.7H399v11.4h-11.4V194.7z"/>
	<path class="st0" d="M422.2,271.9h-14.6c-7.3,0-13.3,5.9-13.4,13.2h-30.6l-23.2-23.2c-1.4-1.4-3.3-2.2-5.3-2.2H195.6
		c-4.2,0-7.5,3.4-7.5,7.5c0,4.2,3.4,7.5,7.5,7.5h136.3l23.2,23.2c1.4,1.4,3.3,2.2,5.3,2.2h33.7c0.1,7.3,6.1,13.2,13.4,13.2h14.6
		c7.4,0,13.4-6,13.4-13.4v-14.6C435.6,277.9,429.6,271.9,422.2,271.9L422.2,271.9z M420.6,298.3h-11.4v-11.4h11.4V298.3z"/>
	<path class="st0" d="M281.3,197.8c4.2,0,7.5-3.4,7.5-7.5c0-4.2-3.4-7.5-7.5-7.5H178.4c-4.2,0-7.5,3.4-7.5,7.5
		c0,4.2,3.4,7.5,7.5,7.5H281.3z"/>
</g>
</svg>
