<svg xmlns="http://www.w3.org/2000/svg" width="99.361" height="99.359" viewBox="0 0 99.361 99.359">
  <path id="client" d="M34.49,23.33a2.188,2.188,0,0,0,.715,2.4l6.411,5.153-2.158,7.937a2.2,2.2,0,0,0,3.334,2.422l6.882-4.5,6.882,4.5a2.2,2.2,0,0,0,3.334-2.423l-2.158-7.937,6.41-5.152a2.2,2.2,0,0,0-1.273-3.92l-8.215-.4L51.735,13.72a2.2,2.2,0,0,0-4.121,0l-2.92,7.689-8.215.4a2.187,2.187,0,0,0-1.989,1.52Zm10.944,1.152a2.2,2.2,0,0,0,1.953-1.419l2.287-6.023,2.287,6.023a2.2,2.2,0,0,0,1.953,1.419l6.434.314-5.021,4.036a2.2,2.2,0,0,0-.746,2.3l1.69,6.216-5.39-3.529a2.2,2.2,0,0,0-2.414,0l-5.39,3.528,1.69-6.216a2.2,2.2,0,0,0-.746-2.3L39,24.8ZM48.122,7.25v-5.7a1.552,1.552,0,0,1,3.1,0v5.7a1.552,1.552,0,0,1-3.1,0Zm9.454,9.2a1.553,1.553,0,0,1,.115-2.192l6.349-5.717a1.553,1.553,0,1,1,2.078,2.307l-6.349,5.717a1.552,1.552,0,0,1-2.192-.115ZM33.116,8.653a1.552,1.552,0,0,1,2.193-.115l6.349,5.717a1.553,1.553,0,0,1-2.078,2.307l-6.349-5.717a1.552,1.552,0,0,1-.115-2.192ZM69.591,25.729,76,30.882l-2.158,7.937a2.2,2.2,0,0,0,3.334,2.422l6.882-4.5,6.882,4.5a2.2,2.2,0,0,0,3.334-2.423l-2.158-7.937,6.41-5.152a2.2,2.2,0,0,0-1.273-3.92l-8.215-.4L86.121,13.72a2.2,2.2,0,0,0-4.122,0L79.08,21.409l-8.215.4a2.2,2.2,0,0,0-1.274,3.92ZM79.82,24.482a2.2,2.2,0,0,0,1.954-1.419L84.06,17.04l2.286,6.022A2.2,2.2,0,0,0,88.3,24.481l6.434.314-5.021,4.035a2.2,2.2,0,0,0-.747,2.3l1.69,6.216-5.39-3.529a2.2,2.2,0,0,0-2.414,0l-5.39,3.528,1.69-6.216a2.2,2.2,0,0,0-.746-2.3L73.385,24.8Zm-79,1.247L7.23,30.882,5.073,38.818a2.2,2.2,0,0,0,3.334,2.422l6.882-4.5,6.882,4.5A2.2,2.2,0,0,0,25.5,38.818l-2.158-7.937,6.41-5.152a2.2,2.2,0,0,0-1.273-3.92l-8.215-.4L17.349,13.72a2.2,2.2,0,0,0-4.122,0l-2.919,7.689-8.215.4A2.2,2.2,0,0,0,.82,25.729Zm10.228-1.247A2.2,2.2,0,0,0,13,23.062l2.287-6.023,2.286,6.022a2.2,2.2,0,0,0,1.953,1.419l6.434.314-5.021,4.035a2.2,2.2,0,0,0-.747,2.3l1.69,6.216-5.39-3.529a2.2,2.2,0,0,0-2.414,0l-5.39,3.528,1.69-6.216a2.2,2.2,0,0,0-.746-2.3L4.613,24.8ZM99.109,82.462a17.817,17.817,0,0,0-6.3-8.919,17.608,17.608,0,0,0-4.6-2.481,9.7,9.7,0,1,0-11.963-.006A17.483,17.483,0,0,0,68.473,76.6a23.125,23.125,0,0,0-11.942-8.641,12.445,12.445,0,1,0-13.714,0A23.124,23.124,0,0,0,30.875,76.6a17.482,17.482,0,0,0-7.769-5.542,9.7,9.7,0,1,0-11.963.006,17.612,17.612,0,0,0-4.6,2.481,17.816,17.816,0,0,0-6.3,8.919,5.12,5.12,0,0,0,.787,4.656,5.12,5.12,0,0,0,4.215,2.129H26.7v2.8a7.318,7.318,0,0,0,7.31,7.31H65.336a7.318,7.318,0,0,0,7.31-7.31v-2.8H94.107a5.236,5.236,0,0,0,5-6.786ZM82.227,56.832a6.6,6.6,0,1,1-6.6,6.6A6.6,6.6,0,0,1,82.227,56.832Zm-41.893.745a9.34,9.34,0,1,1,9.345,9.34h-.01a9.35,9.35,0,0,1-9.335-9.34Zm-23.213-.746a6.6,6.6,0,1,1-6.6,6.6A6.6,6.6,0,0,1,17.121,56.831ZM26.9,86.142H5.241a2.032,2.032,0,0,1-1.716-.867,2.032,2.032,0,0,1-.321-1.9,14.57,14.57,0,0,1,25.926-3.928A22.973,22.973,0,0,0,26.9,86.142ZM69.54,92.049a4.21,4.21,0,0,1-4.2,4.2H34.012a4.209,4.209,0,0,1-4.2-4.2v-4.27A19.939,19.939,0,0,1,49.669,70.022h.01A19.94,19.94,0,0,1,69.54,87.779Zm26.282-6.772a2.032,2.032,0,0,1-1.716.866H72.444a22.988,22.988,0,0,0-2.226-6.69,14.57,14.57,0,0,1,25.926,3.928A2.033,2.033,0,0,1,95.822,85.276Z" transform="translate(0.006)" fill="#002c8b"/>
</svg>
