<svg xmlns="http://www.w3.org/2000/svg" width="220.227" height="220" viewBox="0 0 220.227 220">
  <g id="Layer_1" data-name="Layer 1" transform="translate(0 0)">
    <g id="Group_1216" data-name="Group 1216" transform="translate(0 0)">
      <path id="Path_801" data-name="Path 801" d="M92.575,29.673,84.821,20.9l-1,.366-.5-.978,3.627-1.848.5.978-1.072.77L90.966,25.6l1.072,1.268.05-.013-.284-1.665-1.47-8.466,1.331-.675,6,6.157,1.211,1.3.044-.025-.372-1.729-1.691-6.9-1.344.461-.5-.978,3.564-1.817.5.978-.826.568,2.637,11.374-1.438.732-6.372-6.51L92.2,18.69l-.044.025L92.43,20l1.508,8.99-1.35.688Z" transform="translate(-30.757 -4.622)" fill="#231f20"/>
      <path id="Path_802" data-name="Path 802" d="M115.671,21.427l-.347-1.028,1.255-.675-3.135-9.381-1.407.214-.347-1.041,8.819-2.946.959,2.864-1.293.435-.719-1.558-4.4,1.47,1.293,3.88,4.391-1.47.423,1.268-4.391,1.47,1.438,4.309,4.662-1.558-.372-1.7,1.287-.429.953,2.851-9.072,3.034Z" transform="translate(-41.229 -2.425)" fill="#231f20"/>
      <path id="Path_803" data-name="Path 803" d="M145.959,14.414a5.608,5.608,0,0,1-3.249-.3,5.092,5.092,0,0,1-2.246-1.924A8.076,8.076,0,0,1,139.3,9.077l-.032-.177a7.758,7.758,0,0,1,.114-3.344,5.4,5.4,0,0,1,1.5-2.549A5.209,5.209,0,0,1,143.669,1.7a6.461,6.461,0,0,1,2.258,0,5.3,5.3,0,0,1,1.811.675l.448,2.669-1.337.227-.5-1.924a2.622,2.622,0,0,0-.688-.252,3.714,3.714,0,0,0-.82-.088,5.646,5.646,0,0,0-.946.082,3.42,3.42,0,0,0-1.956.972A3.862,3.862,0,0,0,140.95,6a6.933,6.933,0,0,0-.006,2.605l.032.2a7.012,7.012,0,0,0,.908,2.58,3.666,3.666,0,0,0,1.634,1.451,3.946,3.946,0,0,0,2.265.214,5.072,5.072,0,0,0,1.142-.341,3.59,3.59,0,0,0,.883-.53l-.1-1.76,1.312-.221.454,2.687a5.965,5.965,0,0,1-1.552.959,8.536,8.536,0,0,1-1.956.58Z" transform="translate(-51.361 -0.591)" fill="#231f20"/>
      <path id="Path_804" data-name="Path 804" d="M157.506,12.838l-.057-1.085,1.394-.315-.517-9.879-1.419-.17L156.85.3l5.589-.29a5.766,5.766,0,0,1,2.334.29,3.105,3.105,0,0,1,1.5,1.11,3.526,3.526,0,0,1,.593,1.867,3.414,3.414,0,0,1-.379,1.88,2.978,2.978,0,0,1-1.3,1.2,5.389,5.389,0,0,1-2.063.517l-2.807.2.221,4.271,1.419.17.057,1.085-4.5.233Zm2.738-7.1,2.315-.12a3.2,3.2,0,0,0,2.038-.65,1.955,1.955,0,0,0,.561-1.621,2.03,2.03,0,0,0-.7-1.533,2.742,2.742,0,0,0-1.949-.479l-2.492.132.221,4.271Zm5.539,6.662L162.667,6.29l1.7-.107,2.58,4.889.877.107.057,1.11-2.094.107Z" transform="translate(-57.9 0)" fill="#231f20"/>
      <path id="Path_805" data-name="Path 805" d="M176.09,12.31l.076-1.085.94-.063,5.186-11,1.451.1,3.495,11.62.915.2-.076,1.085-3.6-.259.076-1.085.959-.095-.662-2.366L179.837,9l-1.016,2.246.934.233-.076,1.085-3.59-.259Zm4.372-4.687,3.974.284L182.96,2.683l-.082-.29h-.05l-.126.271Z" transform="translate(-65.002 -0.059)" fill="#231f20"/>
      <path id="Path_806" data-name="Path 806" d="M196.58,13.877l.208-1.066,1.426.032,1.874-9.715-1.337-.5.208-1.072,9.274,1.792-.574,2.965-1.337-.259.139-1.7-4.7-.908-.826,4.271,4.517.871L205.2,9.89l-4.517-.871-.8,4.151,1.337.5-.208,1.066-4.429-.858Z" transform="translate(-72.565 -0.572)" fill="#231f20"/>
      <path id="Path_807" data-name="Path 807" d="M217.83,18.3l.328-1.035,1.413.2,3.009-9.476-2.713-.864L219.1,8.708l-1.218-.385L218.8,5.44,228.75,8.6l-.915,2.883-1.2-.379.284-1.741L224.208,8.5,221.2,17.975l1.268.656-.328,1.035-4.3-1.363Z" transform="translate(-80.41 -2.008)" fill="#231f20"/>
      <path id="Path_808" data-name="Path 808" d="M237.13,26.158l.492-.972,1.363.423,4.485-8.819-1.142-.852.5-.978,1.255.637,3.129,1.59a5.168,5.168,0,0,1,2.952,4.845,7.037,7.037,0,0,1-.826,3.142l-.12.24a7.158,7.158,0,0,1-2.012,2.492,5.308,5.308,0,0,1-2.675,1.1,5.19,5.19,0,0,1-2.94-.587l-4.46-2.271Zm3.369.227,1.615.82a3.3,3.3,0,0,0,2.12.347,4.146,4.146,0,0,0,1.962-.959,6.13,6.13,0,0,0,1.508-1.949l.132-.252a6.127,6.127,0,0,0,.7-2.4,4.008,4.008,0,0,0-.4-2.12,3.328,3.328,0,0,0-1.539-1.489l-1.615-.82Z" transform="translate(-87.534 -5.522)" fill="#231f20"/>
      <path id="Path_809" data-name="Path 809" d="M253.15,34.949l.574-.921,1.318.543,5.242-8.39-1.066-.953.58-.927,3.823,2.391-.58.927-1.318-.543-5.242,8.39,1.066.953-.574.921Z" transform="translate(-93.448 -8.97)" fill="#231f20"/>
      <path id="Path_810" data-name="Path 810" d="M266.506,44.717a5.525,5.525,0,0,1-1.924-2.46,5.321,5.321,0,0,1-.227-2.971,7.6,7.6,0,0,1,1.438-3.06l.126-.164a7.621,7.621,0,0,1,2.555-2.24,5.438,5.438,0,0,1,2.858-.637,4.833,4.833,0,0,1,2.675,1.009,8.031,8.031,0,0,1,1.785,1.766,5.635,5.635,0,0,1,.852,1.773l-1.527,2.025L274,38.919l.953-1.565a3.168,3.168,0,0,0-.574-.959,6.4,6.4,0,0,0-1.072-.984,3.207,3.207,0,0,0-1.924-.669,4.2,4.2,0,0,0-2.126.561,6.309,6.309,0,0,0-1.962,1.766l-.132.177a6.9,6.9,0,0,0-1.2,2.366,3.809,3.809,0,0,0,.038,2.2,3.724,3.724,0,0,0,1.35,1.792,5.963,5.963,0,0,0,1.255.757,4.924,4.924,0,0,0,1.079.322l1.773-2.359-1.867-1.514.751-1,3.28,2.473-2.927,3.886a5.243,5.243,0,0,1-1.8-.2,7.023,7.023,0,0,1-2.372-1.255Z" transform="translate(-97.542 -12.246)" fill="#231f20"/>
      <path id="Path_811" data-name="Path 811" d="M275.02,51.4l.725-.807,1.2.763L283.562,44l-.883-1.117.732-.814,3.356,3.016-.732.814-1.2-.763-6.611,7.356.883,1.117-.725.808Z" transform="translate(-101.521 -15.53)" fill="#231f20"/>
      <path id="Path_812" data-name="Path 812" d="M285.12,60.065l.795-.738,1.136.864,7.28-6.775-1.937-2.082-1.445,1-.871-.934,2.214-2.063,7.11,7.64-2.214,2.063-.858-.921,1.1-1.375-1.937-2.082-7.28,6.775.782,1.192-.795.738-3.072-3.3Z" transform="translate(-105.249 -18.213)" fill="#231f20"/>
      <path id="Path_813" data-name="Path 813" d="M292.32,71.947l.871-.65.662.669,11.7-3.306.877,1.167-6.479,10.258.448.814-.871.65-2.164-2.883.871-.656.7.662,1.35-2.05L297.266,72.6l-2.359.707.442.858-.871.656Zm6.4.227,2.391,3.186,2.971-4.542.164-.252-.032-.044-.29.088-5.211,1.565Z" transform="translate(-107.907 -25.345)" fill="#231f20"/>
      <path id="Path_814" data-name="Path 814" d="M304.47,86.721l.94-.549.915,1.091,8.548-4.977-.5-1.337.946-.549.707,1.218.852,1.47.707,1.218-.946.549-.915-1.091-8.573,4.99,2.233,3.842,1.817-.826.656,1.123-2.839,1.653Z" transform="translate(-112.392 -29.679)" fill="#231f20"/>
      <path id="Path_815" data-name="Path 815" d="M317.78,111.323l9.715-6.536-.233-1.041,1.035-.366,1.356,3.842-1.035.366L328,106.427l-5.968,3.842-1.394.9v.05l1.7-.063,8.586-.347.5,1.407-6.9,5.142-1.445,1.035.019.05,1.76-.145,7.066-.77-.278-1.394,1.035-.366,1.331,3.773-1.035.366-.454-.89-11.62,1.117-.536-1.52,7.293-5.463,1.079-.744-.019-.05-1.306.107-9.11.315-.5-1.432Z" transform="translate(-117.305 -38.162)" fill="#231f20"/>
      <path id="Path_816" data-name="Path 816" d="M325.706,140.537a4.917,4.917,0,0,1,.038-2.233,4.668,4.668,0,0,1,.978-1.867,5.845,5.845,0,0,1,1.779-1.4,8.718,8.718,0,0,1,2.454-.845l.177-.038a8.9,8.9,0,0,1,2.587-.145,6.02,6.02,0,0,1,2.183.625,4.66,4.66,0,0,1,1.609,1.356,4.988,4.988,0,0,1,.877,2.05,5.156,5.156,0,0,1-.025,2.309,4.461,4.461,0,0,1-.978,1.855,6,6,0,0,1-1.792,1.369,9.053,9.053,0,0,1-2.454.82l-.177.038a9.2,9.2,0,0,1-2.587.164A5.813,5.813,0,0,1,328.2,144a4.481,4.481,0,0,1-1.6-1.35,5.2,5.2,0,0,1-.89-2.126Zm1.388-.271a3.126,3.126,0,0,0,1,1.867,3.509,3.509,0,0,0,1.924.776,8.378,8.378,0,0,0,2.612-.145l.2-.038a8.3,8.3,0,0,0,2.454-.852,3.627,3.627,0,0,0,1.483-1.457,3.113,3.113,0,0,0,.227-2.094,2.986,2.986,0,0,0-.984-1.76,3.8,3.8,0,0,0-1.937-.833,7.343,7.343,0,0,0-2.6.095l-.2.038a7.5,7.5,0,0,0-2.454.9,3.838,3.838,0,0,0-1.483,1.5,2.973,2.973,0,0,0-.246,2Z" transform="translate(-120.191 -49.453)" fill="#231f20"/>
      <path id="Path_817" data-name="Path 817" d="M327.923,153.435l1.085-.076.334,1.388,9.873-.662.145-1.419,1.091-.076.095,1.4.114,1.71-9.356,6.8.019.05,8.416-.568.139-1.558,1.091-.076.208,3.1.095,1.4-1.091.076-.334-1.388-11.2.757-.107-1.552,9.393-6.971-.019-.05-8.479.568-.139,1.558-1.085.076-.3-4.5Z" transform="translate(-121.045 -56.327)" fill="#231f20"/>
      <path id="Path_818" data-name="Path 818" d="M328.973,175.05l1.085.063.158,1.419,9.879.568.322-1.388,1.091.063-.082,1.407-.2,3.508a5.262,5.262,0,0,1-.959,2.851,5.319,5.319,0,0,1-2.29,1.8,7.064,7.064,0,0,1-3.211.5l-.265-.013a7.186,7.186,0,0,1-3.091-.845,5.374,5.374,0,0,1-2.088-2.006,5.053,5.053,0,0,1-.637-2.927l.284-5Zm1.148,3.173-.107,1.811a3.288,3.288,0,0,0,.53,2.076,4.173,4.173,0,0,0,1.665,1.413,6.184,6.184,0,0,0,2.391.6l.284.019a6.23,6.23,0,0,0,2.473-.322,4.017,4.017,0,0,0,1.785-1.218,3.332,3.332,0,0,0,.744-2.006l.1-1.811-9.879-.568Z" transform="translate(-121.325 -64.618)" fill="#231f20"/>
      <path id="Path_819" data-name="Path 819" d="M327.044,193.04l1.072.183v1.426l9.747,1.691.479-1.344,1.079.189-1.583,9.16-2.978-.517.233-1.344,1.716.107.789-4.574-4.031-.7-.789,4.561-1.318-.227.789-4.561-4.479-.776-.839,4.845,1.678.486-.233,1.337-2.965-.511,1.634-9.425Z" transform="translate(-120.122 -71.259)" fill="#231f20"/>
      <path id="Path_820" data-name="Path 820" d="M320.913,218.029l6.807-.9-.467,1.634-5.47.8-.4.789-1.066-.315.593-2.012Zm2.353-7.949,1.041.309-.164,1.419,9.488,2.807.631-1.281,1.041.309-1.59,5.369a5.931,5.931,0,0,1-1.047,2.107,3.134,3.134,0,0,1-1.546,1.041,3.443,3.443,0,0,1-1.962-.069,3.345,3.345,0,0,1-1.64-.984,2.938,2.938,0,0,1-.7-1.621,5.394,5.394,0,0,1,.2-2.12l.751-2.713-4.1-1.211-.631,1.281L322,214.414l1.281-4.328Zm5.779,4.946-.656,2.227a3.214,3.214,0,0,0-.069,2.139,1.966,1.966,0,0,0,1.337,1.072,2.035,2.035,0,0,0,1.684-.151,2.75,2.75,0,0,0,1.1-1.678l.707-2.391-4.1-1.211Z" transform="translate(-118.243 -77.549)" fill="#231f20"/>
      <path id="Path_821" data-name="Path 821" d="M316.258,232.209a7.325,7.325,0,0,1,1.167-1.905,6.926,6.926,0,0,1,1.741-1.464l2.473,1.041-.511,1.218-1.93-.5a4.727,4.727,0,0,0-.965.915,5.105,5.105,0,0,0-.725,1.23,3.672,3.672,0,0,0-.328,1.451,2.1,2.1,0,0,0,.315,1.129,1.913,1.913,0,0,0,.877.719,1.854,1.854,0,0,0,1.047.139,2.33,2.33,0,0,0,1.066-.536,7.222,7.222,0,0,0,1.211-1.369,8.392,8.392,0,0,1,1.6-1.7,3.677,3.677,0,0,1,1.653-.77,3.2,3.2,0,0,1,3.123,1.382,3.569,3.569,0,0,1,.561,1.817,4.914,4.914,0,0,1-.435,2.176,6.377,6.377,0,0,1-1.274,1.994,5.831,5.831,0,0,1-1.546,1.161l-2.315-.978.511-1.218,1.76.435a3.318,3.318,0,0,0,.852-.688,4.42,4.42,0,0,0,.751-1.236,3.022,3.022,0,0,0,.265-1.274,2.042,2.042,0,0,0-.322-1.072,1.912,1.912,0,0,0-.871-.707,1.679,1.679,0,0,0-.984-.114,2.327,2.327,0,0,0-1.009.568,8.9,8.9,0,0,0-1.186,1.337,6.623,6.623,0,0,1-2.511,2.2,3.135,3.135,0,0,1-2.587.019,3.1,3.1,0,0,1-1.438-1.2,3.567,3.567,0,0,1-.53-1.886,5.726,5.726,0,0,1,.5-2.315Z" transform="translate(-116.559 -84.474)" fill="#231f20"/>
      <path id="Path_822" data-name="Path 822" d="M306.275,252.55l.921.574-.536,1.318,8.447,5.249,1.5-2.416-1.35-1.129.675-1.085,2.574,1.6L313,265.52l-2.574-1.6.662-1.072,1.615.7,1.5-2.416-8.447-5.249-.946,1.066-.921-.574,2.378-3.829Z" transform="translate(-112.178 -93.226)" fill="#231f20"/>
      <path id="Path_823" data-name="Path 823" d="M295.892,264.18l.845.688-.7,1.243,7.671,6.246,1.072-.94.852.694-2.851,3.495-.852-.694.7-1.243-3.362-2.738-3.792,4.656,3.362,2.738,1.072-.94.852.694-.89,1.091-1.072,1.319-.89,1.091-.852-.694.7-1.243-7.671-6.246-1.073.94-.845-.688,2.845-3.495.845.688-.7,1.243,3.268,2.662,3.792-4.656-3.268-2.662-1.072.94-.845-.688,2.852-3.495Z" transform="translate(-106.375 -97.519)" fill="#231f20"/>
      <path id="Path_824" data-name="Path 824" d="M282.046,280.27l.744.795-.593.732,4.567,11.273-1.06,1L274.8,288.755l-.763.536-.744-.789,2.624-2.467.744.789-.58.77,2.189,1.117,3.665-3.444L280.974,283l-.8.53-.744-.789Zm.479,6.391-2.9,2.732,4.839,2.454.271.139.038-.038-.12-.278Z" transform="translate(-100.882 -103.459)" fill="#231f20"/>
      <path id="Path_825" data-name="Path 825" d="M268.566,295.126l.656.864-.972,1.041,6.012,7.917,2.265-1.722-.852-1.539,1.016-.77,1.829,2.41-8.308,6.315-1.829-2.41,1-.763,1.262,1.23,2.265-1.722-6.018-7.917-1.268.656-.656-.864,3.59-2.732Z" transform="translate(-97.811 -108.94)" fill="#231f20"/>
      <path id="Path_826" data-name="Path 826" d="M249.218,306.93l.517.959-1.123.877,4.687,8.712,1.35-.454.517.965-1.236.669-1.5.808-1.236.669-.517-.965,1.123-.877-4.7-8.731-3.911,2.107.763,1.842-1.148.618-1.558-2.9,7.968-4.29Z" transform="translate(-89.055 -113.3)" fill="#231f20"/>
      <path id="Path_827" data-name="Path 827" d="M234.544,314.48l.41,1.009-1.211.751,3.722,9.166,1.394-.3.41,1.016-8.618,3.495-1.136-2.795,1.262-.511.82,1.514,4.3-1.741-1.539-3.785-4.29,1.741-.5-1.237,4.29-1.741-1.71-4.214-4.555,1.848.473,1.678-1.255.511-1.129-2.788,8.864-3.6Z" transform="translate(-83.307 -116.087)" fill="#231f20"/>
      <path id="Path_828" data-name="Path 828" d="M217.042,320.94l.284,1.047-.864.366-1.293,12.094-1.407.379-7.11-9.835-.927.114-.284-1.047,3.482-.934.284,1.047-.871.4,1.4,2.019,4.858-1.306.227-2.454-.959.088-.284-1.047,3.476-.934Zm-2.6,5.861-3.848,1.035,3.11,4.454.177.246.05-.013.025-.3.492-5.419Z" transform="translate(-75.836 -118.472)" fill="#231f20"/>
      <path id="Path_829" data-name="Path 829" d="M196.8,326.656l5.9,10.542,1.009-.019.17,1.079-3.918.612-.17-1.085,1.1-.353-4.012-7.457-.442-.934h-.05l-.151,1.035-1.647,8.346,1.287-.025.17,1.085-3.911.612-.17-1.085.978-.29,2.41-11.841,1.438-.227Z" transform="translate(-70.864 -120.579)" fill="#231f20"/>
      <path id="Path_830" data-name="Path 830" d="M182.138,328.326l.038,1.085-1.394.29.347,9.886,1.413.189.038,1.1-9.293.322-.107-3.016,1.363-.05.252,1.7,4.637-.164-.145-4.088-4.631.164-.044-1.337,4.63-.164-.158-4.542-4.914.17-.126,1.741-1.356.05-.107-3.009,9.558-.334Z" transform="translate(-63.706 -121.196)" fill="#231f20"/>
      <path id="Path_831" data-name="Path 831" d="M152.854,327.591l-.139,1.079-1.426.063-.4,3.217,2.99,7.16,1.009.29-.139,1.085-4.3-.543.139-1.085,1.438.019L150,333.648l-.139-.36-.013.019-.208.3-3.388,4.542,1.451.347-.139,1.085-4.208-.53.139-1.085,1.1-.025,4.593-6.069.423-3.344-1.363-.416.139-1.079,4.466.561Z" transform="translate(-52.92 -120.72)" fill="#231f20"/>
      <path id="Path_832" data-name="Path 832" d="M133.61,323.891a4.888,4.888,0,0,1,2.006.972,4.685,4.685,0,0,1,1.281,1.665,6,6,0,0,1,.524,2.2,8.455,8.455,0,0,1-.265,2.58l-.044.177a8.786,8.786,0,0,1-.959,2.41,6.01,6.01,0,0,1-1.489,1.716,4.582,4.582,0,0,1-1.912.889,5.072,5.072,0,0,1-2.233-.063,5.159,5.159,0,0,1-2.082-.99,4.484,4.484,0,0,1-1.274-1.672,5.989,5.989,0,0,1-.486-2.2A9.329,9.329,0,0,1,126.96,329l.044-.177a9.142,9.142,0,0,1,.94-2.416,6,6,0,0,1,1.445-1.722,4.463,4.463,0,0,1,1.9-.889,5.221,5.221,0,0,1,2.3.082Zm-.334,1.375a3.164,3.164,0,0,0-2.113.12,3.532,3.532,0,0,0-1.514,1.419,8.414,8.414,0,0,0-.965,2.429l-.044.2a8.311,8.311,0,0,0-.259,2.587,3.633,3.633,0,0,0,.7,1.956,3.089,3.089,0,0,0,1.8,1.085,2.985,2.985,0,0,0,2.012-.158,3.9,3.9,0,0,0,1.571-1.407,7.581,7.581,0,0,0,1-2.4l.044-.2a7.62,7.62,0,0,0,.221-2.605,3.85,3.85,0,0,0-.744-1.975,2.956,2.956,0,0,0-1.71-1.06Z" transform="translate(-46.759 -119.492)" fill="#231f20"/>
      <path id="Path_833" data-name="Path 833" d="M113.674,318.133a5.119,5.119,0,0,1,1.981,1.3,3.983,3.983,0,0,1,.984,1.93,4.2,4.2,0,0,1-.259,2.322l-2.555,6.706,1.23.725-.391,1.022-4.214-1.609.391-1.022,1.4.278,2.555-6.706a3.243,3.243,0,0,0,.227-1.6,2.322,2.322,0,0,0-.587-1.255,3.212,3.212,0,0,0-1.262-.826,3.335,3.335,0,0,0-1.514-.233,2.35,2.35,0,0,0-1.293.53,3.184,3.184,0,0,0-.908,1.35l-2.555,6.706,1.23.725-.391,1.022-4.214-1.609.391-1.022,1.4.278,2.555-6.706a4.314,4.314,0,0,1,1.356-1.949,3.685,3.685,0,0,1,2.012-.763,5.607,5.607,0,0,1,2.441.41Z" transform="translate(-38.217 -117.279)" fill="#231f20"/>
      <path id="Path_834" data-name="Path 834" d="M101.435,311.723l-.511.959-1.356-.448-4.649,8.731,1.129.877-.511.959L90.6,320.17a5.745,5.745,0,0,1-1.848-1.451A3.127,3.127,0,0,1,88.036,317a3.468,3.468,0,0,1,.461-1.905,3.378,3.378,0,0,1,1.293-1.413,2.979,2.979,0,0,1,1.735-.36,5.553,5.553,0,0,1,2.038.618l2.5,1.274,2.012-3.779-1.129-.877.511-.959,3.981,2.12Zm-6.006,4.668-2.05-1.091a3.169,3.169,0,0,0-2.082-.492,1.963,1.963,0,0,0-1.318,1.1,2.051,2.051,0,0,0-.189,1.678A2.731,2.731,0,0,0,91.215,319l2.2,1.173,2.012-3.773Zm-1.312-8.567-.479,6.851-1.508-.782.315-5.52-.694-.549.524-.984,1.848.984Z" transform="translate(-32.495 -113.267)" fill="#231f20"/>
      <path id="Path_835" data-name="Path 835" d="M74.59,295.578a5.636,5.636,0,0,1,2.012,2.561,5.1,5.1,0,0,1,.145,2.952,7.958,7.958,0,0,1-1.47,2.99l-.107.145a7.639,7.639,0,0,1-2.511,2.214,5.372,5.372,0,0,1-2.889.656,5.2,5.2,0,0,1-2.864-1.129,6.428,6.428,0,0,1-1.546-1.647,5.335,5.335,0,0,1-.751-1.779l1.634-2.158,1.079.82L66.269,302.9a2.917,2.917,0,0,0,.284.669,3.838,3.838,0,0,0,.5.656,5.381,5.381,0,0,0,.707.631,3.431,3.431,0,0,0,2.044.757A3.9,3.9,0,0,0,71.89,305a6.884,6.884,0,0,0,1.9-1.785l.12-.158a6.84,6.84,0,0,0,1.249-2.435,3.654,3.654,0,0,0-.063-2.183,3.932,3.932,0,0,0-1.394-1.792,5.089,5.089,0,0,0-1.028-.6,3.648,3.648,0,0,0-.99-.278l-1.211,1.281-1.06-.8,1.647-2.176a5.826,5.826,0,0,1,1.76.473,8.316,8.316,0,0,1,1.766,1.028Z" transform="translate(-23.85 -108.553)" fill="#231f20"/>
      <path id="Path_836" data-name="Path 836" d="M62,285.091a5,5,0,0,1,1.262,1.842,4.683,4.683,0,0,1,.284,2.088,6.042,6.042,0,0,1-.637,2.17A8.5,8.5,0,0,1,61.39,293.3l-.126.132a8.931,8.931,0,0,1-2.025,1.615,6.152,6.152,0,0,1-2.145.751,4.636,4.636,0,0,1-2.1-.177,4.932,4.932,0,0,1-1.9-1.167,5.294,5.294,0,0,1-1.318-1.893,4.43,4.43,0,0,1-.271-2.082,5.952,5.952,0,0,1,.675-2.151,9.136,9.136,0,0,1,1.527-2.088l.126-.132a9.052,9.052,0,0,1,2.012-1.628,5.9,5.9,0,0,1,2.107-.77,4.429,4.429,0,0,1,2.088.177A5.15,5.15,0,0,1,62,285.1Zm-.978,1.022a3.154,3.154,0,0,0-1.893-.946,3.569,3.569,0,0,0-2.019.479,8.459,8.459,0,0,0-2.05,1.628l-.139.145a8,8,0,0,0-1.508,2.12,3.653,3.653,0,0,0-.366,2.044,3.1,3.1,0,0,0,1.022,1.836,2.987,2.987,0,0,0,1.823.864,3.842,3.842,0,0,0,2.063-.442,7.439,7.439,0,0,0,2.063-1.577l.139-.145a7.608,7.608,0,0,0,1.489-2.151,3.827,3.827,0,0,0,.341-2.082,2.975,2.975,0,0,0-.959-1.773Z" transform="translate(-19.003 -104.709)" fill="#231f20"/>
      <path id="Path_837" data-name="Path 837" d="M49.293,272.334l-.852.675-1.06-.953-7.766,6.126.681,1.255-.858.681-.871-1.1-1.407-1.779,4.977-9.078-.032-.038L32.2,270.946l-2.347-2.971.858-.681,1.06.953,7.766-6.126-.681-1.255.852-.675,2.795,3.539-.852.675-1.11-1.016-2.858,2.252L33.541,268.9l.019.038,10.22-2.864.7.89-5.066,9.368.032.025,4.088-3.3,2.858-2.252-.751-1.344.852-.675,2.795,3.539Z" transform="translate(-11.019 -96.046)" fill="#231f20"/>
      <path id="Path_838" data-name="Path 838" d="M36.258,255.754l-.94.549-.915-1.091-8.548,4.978.5,1.337-.946.549-.707-1.218-2.2-3.773a5.132,5.132,0,0,1-.751-2.221,3.314,3.314,0,0,1,.41-1.912,4.182,4.182,0,0,1,3.426-1.994,3.3,3.3,0,0,1,1.861.593,5.193,5.193,0,0,1,1.558,1.747l1.344,2.3,3.2-1.867-.5-1.337.94-.549,2.271,3.9Zm-7.066.524-1.344-2.3a2.282,2.282,0,0,0-3.362-.984,2.493,2.493,0,0,0-1.186,1.426,2.445,2.445,0,0,0,.36,2l1.344,2.3,4.2-2.448Z" transform="translate(-8.027 -92.639)" fill="#231f20"/>
      <path id="Path_839" data-name="Path 839" d="M27.248,238.53l-1,.442-.789-1.186-9.053,3.993.347,1.382-1,.442L12,235.1l2.763-1.218.549,1.249-1.489.864L15.7,240.24l3.741-1.653-1.867-4.239,1.224-.543,1.867,4.239,4.157-1.836-1.987-4.5-1.665.524L20.618,231l2.757-1.218,3.861,8.75Z" transform="translate(-4.43 -84.821)" fill="#231f20"/>
      <path id="Path_840" data-name="Path 840" d="M19.4,220.289l-1.041.315-.643-1.274-9.513,2.908.833,2.719,1.741-.271.372,1.224-2.9.883-3.047-9.98,2.9-.883.366,1.2-1.59.757.833,2.719,9.513-2.908-.177-1.413,1.041-.315,1.318,4.315Z" transform="translate(-1.923 -79.708)" fill="#231f20"/>
      <path id="Path_841" data-name="Path 841" d="M16.207,206.9l-1.066.221-.524-1.325-9.684,2.025.05,1.426-1.072.227-.921-4.416,1.072-.227.524,1.325,9.684-2.025-.05-1.426,1.066-.221.921,4.416Z" transform="translate(-1.104 -74.743)" fill="#231f20"/>
      <path id="Path_842" data-name="Path 842" d="M13.589,192.175l-1.079.126-.4-1.369-9.879,1.154.328,2.826,1.76.044.145,1.268-3.009.353L.24,186.213l3.009-.353.145,1.249-1.7.461.328,2.826,9.879-1.154.076-1.426,1.079-.126.524,4.479Z" transform="translate(-0.089 -68.608)" fill="#231f20"/>
      <path id="Path_843" data-name="Path 843" d="M12.674,179.4l-1.085.032-.278-1.4-9.892.271-.2,1.413-1.1.032L0,175.237l1.1-.032.278,1.4,9.892-.271.2-1.413,1.085-.032Z" transform="translate(0 -64.559)" fill="#231f20"/>
      <path id="Path_844" data-name="Path 844" d="M12.938,161.72a5.02,5.02,0,0,1-.593,2.151,4.708,4.708,0,0,1-1.407,1.565,6,6,0,0,1-2.069.915,8.775,8.775,0,0,1-2.587.208l-.183-.013a8.623,8.623,0,0,1-2.542-.511A5.991,5.991,0,0,1,1.6,164.881a4.712,4.712,0,0,1-1.224-1.716,4.936,4.936,0,0,1-.334-2.208,5.188,5.188,0,0,1,.6-2.227,4.449,4.449,0,0,1,1.413-1.552,5.979,5.979,0,0,1,2.076-.877,9.225,9.225,0,0,1,2.58-.183l.183.013a9.283,9.283,0,0,1,2.549.486,5.988,5.988,0,0,1,1.949,1.11,4.454,4.454,0,0,1,1.218,1.71,5.19,5.19,0,0,1,.334,2.284Zm-1.413-.082a3.145,3.145,0,0,0-.5-2.057,3.648,3.648,0,0,0-1.665-1.236,8.422,8.422,0,0,0-2.568-.511l-.2-.013A8.184,8.184,0,0,0,4,158.036a3.641,3.641,0,0,0-1.8,1.041,3.108,3.108,0,0,0-.744,1.968,2.955,2.955,0,0,0,.517,1.949,3.851,3.851,0,0,0,1.665,1.287,7.363,7.363,0,0,0,2.536.555l.2.013a7.568,7.568,0,0,0,2.605-.252,3.859,3.859,0,0,0,1.811-1.085,2.972,2.972,0,0,0,.738-1.874Z" transform="translate(-0.012 -57.622)" fill="#231f20"/>
      <path id="Path_845" data-name="Path 845" d="M13.556,146.783l-1.066-.2.019-1.426-9.722-1.817-.5,1.337-1.079-.2.259-1.382.315-1.684,10.756-4.252V137.1l-8.3-1.552-.524,1.47-1.079-.2.568-3.053.259-1.382,1.079.2-.019,1.426,11.027,2.063-.284,1.527L4.427,142v.057l8.359,1.558.524-1.47,1.066.2-.826,4.435Z" transform="translate(-0.447 -48.867)" fill="#231f20"/>
      <path id="Path_846" data-name="Path 846" d="M19.9,122.344l-1.022-.372.252-1.4-9.293-3.394-.707,1.236L8.1,118.036l.479-1.318.58-1.6.479-1.318,1.028.379-.252,1.407,9.318,3.4,1.52-4.17-1.8-.864.448-1.224,3.085,1.129-3.1,8.5Z" transform="translate(-2.99 -41.613)" fill="#231f20"/>
      <path id="Path_847" data-name="Path 847" d="M28.714,101.553a4.943,4.943,0,0,1-1.375,1.754,4.616,4.616,0,0,1-1.905.9,6.036,6.036,0,0,1-2.265.044,8.805,8.805,0,0,1-2.467-.808l-.164-.082a8.53,8.53,0,0,1-2.145-1.451,6.131,6.131,0,0,1-1.363-1.817,4.6,4.6,0,0,1-.461-2.057,4.943,4.943,0,0,1,.543-2.164,5.171,5.171,0,0,1,1.413-1.823,4.487,4.487,0,0,1,1.905-.89,5.876,5.876,0,0,1,2.252,0,9.157,9.157,0,0,1,2.454.826l.164.082A9.278,9.278,0,0,1,27.465,95.5a5.91,5.91,0,0,1,1.369,1.779,4.489,4.489,0,0,1,.461,2.044,5.149,5.149,0,0,1-.574,2.233Zm-1.268-.625a3.093,3.093,0,0,0,.328-2.088,3.573,3.573,0,0,0-1.066-1.785,8.357,8.357,0,0,0-2.17-1.464l-.177-.088a8.274,8.274,0,0,0-2.473-.8,3.569,3.569,0,0,0-2.057.265A3.125,3.125,0,0,0,18.387,96.5a3,3,0,0,0-.278,2,3.828,3.828,0,0,0,1.041,1.836,7.438,7.438,0,0,0,2.126,1.489l.177.088a7.49,7.49,0,0,0,2.5.77,3.886,3.886,0,0,0,2.088-.3,2.947,2.947,0,0,0,1.4-1.445Z" transform="translate(-6.117 -34.347)" fill="#231f20"/>
      <path id="Path_848" data-name="Path 848" d="M37.218,86.167a7.366,7.366,0,0,1-1.464,1.684,7.138,7.138,0,0,1-1.962,1.161l-2.265-1.438.707-1.117,1.823.814a5.272,5.272,0,0,0,1.1-.738,5.213,5.213,0,0,0,.915-1.091,3.688,3.688,0,0,0,.561-1.375,2.107,2.107,0,0,0-.126-1.167,1.894,1.894,0,0,0-.744-.852,1.852,1.852,0,0,0-1.009-.309,2.373,2.373,0,0,0-1.142.353A7.784,7.784,0,0,0,32.2,83.24a8.343,8.343,0,0,1-1.848,1.413,3.751,3.751,0,0,1-1.76.486,3.2,3.2,0,0,1-2.845-1.874,3.6,3.6,0,0,1-.259-1.886,5.023,5.023,0,0,1,.782-2.076,6.261,6.261,0,0,1,1.59-1.754,5.811,5.811,0,0,1,1.716-.89L31.692,78l-.707,1.117L29.32,78.4a3.394,3.394,0,0,0-.953.536,4.3,4.3,0,0,0-.94,1.1,2.989,2.989,0,0,0-.467,1.211,2.043,2.043,0,0,0,.139,1.11,1.861,1.861,0,0,0,.744.839,1.617,1.617,0,0,0,.953.271,2.3,2.3,0,0,0,1.091-.391,9.327,9.327,0,0,0,1.394-1.123,6.677,6.677,0,0,1,2.839-1.76,3.129,3.129,0,0,1,2.555.41A3.06,3.06,0,0,1,37.9,82.022a3.578,3.578,0,0,1,.208,1.949,5.81,5.81,0,0,1-.871,2.2Z" transform="translate(-9.397 -28.298)" fill="#231f20"/>
      <path id="Path_849" data-name="Path 849" d="M44.839,72.333l-.845-.681.694-1.249-7.753-6.227L35.156,66.4l1.2,1.287-.8,1L33.2,66.788l6.536-8.138L42.1,60.543l-.789.984-1.52-.89-1.779,2.221,7.753,6.227,1.066-.946.845.681-2.826,3.52Z" transform="translate(-12.255 -21.65)" fill="#231f20"/>
      <path id="Path_850" data-name="Path 850" d="M60.178,57.691l-.751-.789.852-1.142L53.453,48.6l-1.186.795L51.51,48.6l3.262-3.11.757.795-.852,1.142,6.826,7.16,1.186-.795.751.789-3.268,3.11Z" transform="translate(-19.014 -16.792)" fill="#231f20"/>
      <path id="Path_851" data-name="Path 851" d="M67.051,48.275l-.669-.858.959-1.06-6.1-7.791-1.255.675-.675-.864,1.1-.864,1.35-1.06,10.882,3.911.032-.044-5.2-6.643-1.363.763-.675-.864,2.448-1.912,1.1-.864.675.864-.959,1.06,6.921,8.832-1.224.959L63.36,38.667l-.032.044L68.565,45.4l1.363-.763.669.858-3.552,2.782Z" transform="translate(-21.894 -11.369)" fill="#231f20"/>
    </g>
  </g>
</svg>
