<?xml version="1.0" encoding="utf-8"?>
<!-- Generator: Adobe Illustrator 27.3.1, SVG Export Plug-In . SVG Version: 6.00 Build 0)  -->
<svg version="1.1" id="Layer_1" xmlns="http://www.w3.org/2000/svg" xmlns:xlink="http://www.w3.org/1999/xlink" x="0px" y="0px"
	 viewBox="0 0 512 512" style="enable-background:new 0 0 512 512;" xml:space="preserve">
<style type="text/css">
	.st0{fill:#FFFFFF;}
</style>
<path class="st0" d="M496,441.9h-14.7V165.8c0-4.4-3.6-8-8-8h-63.1c-4.4,0-8,3.6-8,8v276.1h-38V291.5c0-4.4-3.6-8-8-8h-63.1
	c-4.4,0-8,3.6-8,8v150.3H247V248.5c0-4.4-3.6-8-8-8H176c-4.4,0-8,3.6-8,8v193.4h-38.1V355c0-4.4-3.6-8-8-8H58.8c-4.4,0-8,3.6-8,8
	v86.9H24V62.1c0-4.4-3.6-8-8-8s-8,3.6-8,8v387.7c0,4.4,3.6,8,8,8h480c4.4,0,8-3.6,8-8S500.4,441.9,496,441.9L496,441.9z
	 M418.2,173.8h47.1v268.1h-47.1L418.2,173.8z M301.1,299.5h47.1v142.3h-47.1L301.1,299.5z M184,256.5H231v185.4H184V256.5z
	 M66.8,362.9h47.1v78.9H66.8V362.9z M90.4,296.3c19.3,0,35.1-15.7,35.1-35.1c0-5.2-1.2-10.2-3.2-14.7l63.3-49.3
	c6,4.9,13.7,7.8,22,7.8c14,0,26.2-8.3,31.8-20.2l50.3,10.6c0.4,19,16,34.2,35,34.2c19.3,0,35.1-15.7,35.1-35.1
	c0-6.1-1.6-11.8-4.3-16.8l66.3-59.3c5.7,4,12.6,6.4,20.1,6.4c19.3,0,35.1-15.7,35.1-35.1s-15.7-35.1-35.1-35.1s-35.1,15.7-35.1,35.1
	c0,6.1,1.6,11.8,4.3,16.8l-66.3,59.3c-5.7-4-12.6-6.4-20.1-6.4c-14,0-26.2,8.3-31.8,20.2l-50.3-10.6c-0.4-19-16-34.2-35-34.2
	c-19.3,0-35.1,15.7-35.1,35.1c0,5.2,1.2,10.2,3.2,14.7L112.4,234c-6-4.9-13.7-7.8-22-7.8c-19.3,0-35.1,15.7-35.1,35.1
	S71,296.3,90.4,296.3L90.4,296.3z M441.8,70.8c10.5,0,19.1,8.6,19.1,19.1s-8.6,19.1-19.1,19.1s-19.1-8.6-19.1-19.1
	S431.3,70.8,441.8,70.8z M324.6,175.6c10.5,0,19.1,8.6,19.1,19.1s-8.6,19.1-19.1,19.1s-19.1-8.6-19.1-19.1S314.1,175.6,324.6,175.6z
	 M207.5,151c10.5,0,19.1,8.6,19.1,19.1c0,10.5-8.6,19.1-19.1,19.1s-19.1-8.6-19.1-19.1C188.4,159.5,197,151,207.5,151z M90.4,242.2
	c10.5,0,19.1,8.6,19.1,19.1s-8.6,19.1-19.1,19.1c-10.5,0-19.1-8.6-19.1-19.1S79.9,242.2,90.4,242.2z"/>
</svg>
