<?xml version="1.0" encoding="UTF-8"?><svg id="Layer_2" xmlns="http://www.w3.org/2000/svg" viewBox="0 0 58.38 58.38"><defs><style>.cls-1{fill:#fff;}.cls-2{fill:#263a83;}.cls-3{fill:#f15922;}</style></defs><g id="Layer_1-2"><rect class="cls-2" y="0" width="58.38" height="58.38" rx="9.84" ry="9.84"/><path class="cls-1" d="m46.01,28.5c-2.48-9.41-11.51-15.48-20.93-14.57L7.74,29.35c-.06.3-.12.6-.18.91-.06.35-.11.7-.15,1.05-.02.14-.03.27-.04.41,0,.01,0,.02,0,.04-.01.14-.02.29-.03.43-.02.21-.03.41-.03.62,0,.13,0,.26-.01.39,0,.11,0,.22,0,.34,0,.14,0,.27,0,.41,0,.06,0,.12,0,.18,0,.11,0,.22.01.33,0,.11.01.21.02.32.02.24.04.48.06.72.02.18.04.36.06.53.01.08.02.16.03.24,1.26,9.01,8.6,16.06,17.75,16.86.57.05,1.16.08,1.74.08h.11c1.61,0,2.91-1.34,2.91-2.95v-2.62c0-1.64-1.35-2.95-2.99-2.95h-.03c-.42,0-.84-.02-1.25-.07-4.53-.5-8.24-3.71-9.48-7.97,0,0,0-.01,0-.02-.32-1.12-.48-2.31-.43-3.55.02-.49.07-.97.15-1.45.02-.08.03-.16.04-.23.01-.07.03-.15.05-.22.03-.15.07-.3.11-.45.04-.15.08-.3.13-.45.02-.06.03-.11.05-.17.07-.22.15-.43.23-.64.03-.08.06-.16.1-.24,1.24-2.95,3.71-5.27,6.75-6.3.25-.08.5-.16.75-.22.15-.04.3-.07.46-.11.04,0,.07-.02.11-.02l.21-.04c.17-.03.35-.06.53-.08.18-.03.37-.04.55-.06.14-.01.28-.02.41-.03.04,0,.08,0,.12,0,.2,0,.41,0,.61,0,.01,0,.03,0,.04,0,.21,0,.43.01.64.03.08,0,.15.01.23.02,2.73.26,5.17,1.51,6.97,3.39.11.11.21.21.3.32.15.16.29.33.43.51.16.2.31.4.45.61.08.11.15.23.23.34.07.12.14.24.21.35.08.14.16.29.24.44.04.07.08.15.11.22.04.08.07.15.11.23.06.13.12.27.18.4.03.07.06.13.08.2v18.15l9.29-8.37v-6.37c-.05-1.44-.26-2.9-.64-4.34Z"/><path class="cls-1" d="m46.65,26.04v-12.2h-8.51v1.84c3.85,2.42,6.87,6.05,8.51,10.36Z"/><circle class="cls-3" cx="42.4" cy="7.11" r="4.46"/></g></svg>