<svg xmlns="http://www.w3.org/2000/svg" width="279.581" height="59.266" viewBox="0 0 279.581 59.266">
  <g id="hts" transform="translate(-39.12 -35.3)">
    <g id="Group_1231" data-name="Group 1231" transform="translate(101.664 50.202)">
      <g id="Group_1230" data-name="Group 1230">
        <path id="Path_961" data-name="Path 961" d="M313.6,101.9h2.757v7.155h2.962V101.9h2.757v17.568h-2.757v-7.907h-2.962v7.907H313.6Z" transform="translate(-313.6 -101.627)" fill="#3a3f4f"/>
        <path id="Path_962" data-name="Path 962" d="M359.9,101.9h2.757v17.568H359.9Z" transform="translate(-349.35 -101.627)" fill="#3a3f4f"/>
        <path id="Path_963" data-name="Path 963" d="M381,101.9h4.079a4.378,4.378,0,0,1,3.122.98,4.169,4.169,0,0,1,.98,3.053V107c0,1.823-.592,2.985-1.8,3.463v.046a2.181,2.181,0,0,1,1.413,1.23,6.192,6.192,0,0,1,.41,2.484V117.3c0,.5.023.911.046,1.208a2.592,2.592,0,0,0,.251.911h-2.8a5.879,5.879,0,0,1-.205-.8c-.023-.251-.046-.706-.046-1.344v-3.213a2.819,2.819,0,0,0-.387-1.686,1.632,1.632,0,0,0-1.344-.479h-.957v7.519H381Zm3.76,7.519a1.59,1.59,0,0,0,1.23-.433,2,2,0,0,0,.41-1.436v-1.344a2.266,2.266,0,0,0-.342-1.39,1.337,1.337,0,0,0-1.071-.433h-1.253V109.4h1.025Z" transform="translate(-365.642 -101.627)" fill="#3a3f4f"/>
        <path id="Path_964" data-name="Path 964" d="M425.4,101.9h2.757v17.568H425.4Z" transform="translate(-399.925 -101.627)" fill="#3a3f4f"/>
        <path id="Path_965" data-name="Path 965" d="M446.5,101.9h3.464l2.689,10.5h.046V101.9h2.461v17.568H452.31l-3.3-12.829h-.046v12.829H446.5Z" transform="translate(-416.217 -101.627)" fill="#3a3f4f"/>
        <path id="Path_966" data-name="Path 966" d="M493.748,117.73a4.617,4.617,0,0,1-1.048-3.281v-9.228a4.693,4.693,0,0,1,1.048-3.281,4.661,4.661,0,0,1,6.107,0,4.617,4.617,0,0,1,1.048,3.281v1.5h-2.62v-1.686c0-1.162-.478-1.732-1.436-1.732s-1.436.57-1.436,1.732v9.616q0,1.709,1.436,1.709t1.436-1.709v-3.441h-1.39v-2.506h3.988v5.742a4.693,4.693,0,0,1-1.048,3.281,4,4,0,0,1-3.053,1.139A3.917,3.917,0,0,1,493.748,117.73Z" transform="translate(-451.89 -100.777)" fill="#3a3f4f"/>
        <path id="Path_967" data-name="Path 967" d="M553.871,104.406H551V101.9h8.522v2.506h-2.894v15.062h-2.757V104.406Z" transform="translate(-496.906 -101.627)" fill="#3a3f4f"/>
        <path id="Path_968" data-name="Path 968" d="M594.3,101.9h7.519v2.506h-4.762v4.648h3.782v2.506h-3.782v5.4h4.762v2.506H594.3V101.9Z" transform="translate(-530.339 -101.627)" fill="#3a3f4f"/>
        <path id="Path_969" data-name="Path 969" d="M633.425,117.807a4.719,4.719,0,0,1-1.025-3.281v-1h2.62v1.208q0,1.709,1.436,1.709a1.358,1.358,0,0,0,1.071-.41,1.977,1.977,0,0,0,.365-1.344,3.61,3.61,0,0,0-.5-1.937,9.819,9.819,0,0,0-1.846-2.028,11.455,11.455,0,0,1-2.393-2.712,5.56,5.56,0,0,1-.684-2.757,4.512,4.512,0,0,1,1.048-3.213,4,4,0,0,1,3.053-1.139,3.865,3.865,0,0,1,3.008,1.139,4.719,4.719,0,0,1,1.025,3.281v.729h-2.62v-.911a2.087,2.087,0,0,0-.342-1.322,1.259,1.259,0,0,0-1.025-.41c-.911,0-1.39.57-1.39,1.686a3.3,3.3,0,0,0,.524,1.777,9.408,9.408,0,0,0,1.868,2.005,10.181,10.181,0,0,1,2.393,2.734,6.1,6.1,0,0,1,.661,2.894,4.684,4.684,0,0,1-1.071,3.3,4.683,4.683,0,0,1-6.175,0Z" transform="translate(-559.758 -100.854)" fill="#3a3f4f"/>
        <path id="Path_970" data-name="Path 970" d="M675.094,104.406H672.2V101.9h8.522v2.506h-2.871v15.062h-2.757Z" transform="translate(-590.489 -101.627)" fill="#3a3f4f"/>
        <path id="Path_971" data-name="Path 971" d="M715.5,101.9h2.757v17.568H715.5Z" transform="translate(-623.922 -101.627)" fill="#3a3f4f"/>
        <path id="Path_972" data-name="Path 972" d="M736.6,101.9h3.463l2.689,10.5h.046V101.9h2.461v17.568h-2.826l-3.3-12.829h-.046v12.829h-2.461V101.9Z" transform="translate(-640.215 -101.627)" fill="#3a3f4f"/>
        <path id="Path_973" data-name="Path 973" d="M783.848,117.73a4.617,4.617,0,0,1-1.048-3.281v-9.228a4.693,4.693,0,0,1,1.048-3.281,4.661,4.661,0,0,1,6.107,0A4.617,4.617,0,0,1,791,105.221v1.5h-2.62v-1.686c0-1.162-.478-1.732-1.435-1.732s-1.436.57-1.436,1.732v9.616q0,1.709,1.436,1.709t1.435-1.709v-3.441h-1.39v-2.506h3.988v5.742a4.693,4.693,0,0,1-1.048,3.281,4,4,0,0,1-3.053,1.139A3.951,3.951,0,0,1,783.848,117.73Z" transform="translate(-675.887 -100.777)" fill="#3a3f4f"/>
        <path id="Path_974" data-name="Path 974" d="M843.225,117.807a4.719,4.719,0,0,1-1.025-3.281v-1h2.62v1.208q0,1.709,1.436,1.709a1.358,1.358,0,0,0,1.071-.41,1.977,1.977,0,0,0,.365-1.344,3.61,3.61,0,0,0-.5-1.937,9.816,9.816,0,0,0-1.846-2.028,11.457,11.457,0,0,1-2.393-2.712,5.56,5.56,0,0,1-.684-2.757,4.512,4.512,0,0,1,1.048-3.213,4,4,0,0,1,3.053-1.139,3.865,3.865,0,0,1,3.008,1.139,4.719,4.719,0,0,1,1.025,3.281v.729h-2.62v-.911a2.086,2.086,0,0,0-.342-1.322,1.258,1.258,0,0,0-1.025-.41c-.911,0-1.39.57-1.39,1.686a3.3,3.3,0,0,0,.524,1.777,9.409,9.409,0,0,0,1.868,2.005,10.18,10.18,0,0,1,2.393,2.734,6.1,6.1,0,0,1,.661,2.894,4.684,4.684,0,0,1-1.071,3.3,4,4,0,0,1-3.1,1.162A4.048,4.048,0,0,1,843.225,117.807Z" transform="translate(-721.752 -100.854)" fill="#3a3f4f"/>
        <path id="Path_975" data-name="Path 975" d="M885.2,101.9h7.519v2.506h-4.762v4.648h3.805v2.506H887.98v5.4h4.762v2.506h-7.519V101.9Z" transform="translate(-754.954 -101.627)" fill="#3a3f4f"/>
        <path id="Path_976" data-name="Path 976" d="M925.2,101.9h4.079a4.377,4.377,0,0,1,3.122.98,4.169,4.169,0,0,1,.98,3.053V107c0,1.823-.592,2.985-1.8,3.463v.046a2.181,2.181,0,0,1,1.413,1.23,6.192,6.192,0,0,1,.41,2.484V117.3c0,.5.023.911.046,1.208a2.588,2.588,0,0,0,.251.911h-2.8a5.884,5.884,0,0,1-.205-.8c-.023-.251-.046-.706-.046-1.344v-3.213a2.819,2.819,0,0,0-.387-1.686,1.632,1.632,0,0,0-1.344-.479h-.957v7.519H925.2Zm3.76,7.519a1.59,1.59,0,0,0,1.23-.433,2,2,0,0,0,.41-1.436v-1.344a2.266,2.266,0,0,0-.342-1.39,1.337,1.337,0,0,0-1.071-.433h-1.253V109.4h1.025Z" transform="translate(-785.84 -101.627)" fill="#3a3f4f"/>
        <path id="Path_977" data-name="Path 977" d="M965.9,101.9h2.78l1.8,13.626h.046l1.8-13.626h2.529l-2.62,17.568h-3.669Z" transform="translate(-817.266 -101.627)" fill="#3a3f4f"/>
        <path id="Path_978" data-name="Path 978" d="M1011.2,101.9h2.757v17.568H1011.2Z" transform="translate(-852.244 -101.627)" fill="#3a3f4f"/>
        <path id="Path_979" data-name="Path 979" d="M1032.548,117.653a4.6,4.6,0,0,1-1.048-3.19v-9.433a4.49,4.49,0,0,1,1.048-3.19,4.6,4.6,0,0,1,6.061,0,4.6,4.6,0,0,1,1.048,3.19v1.846h-2.62V104.87c0-1.094-.456-1.641-1.39-1.641-.912,0-1.39.547-1.39,1.641v9.8c0,1.071.456,1.6,1.39,1.6.911,0,1.39-.524,1.39-1.6v-2.689h2.62v2.484a4.489,4.489,0,0,1-1.048,3.19,4.6,4.6,0,0,1-6.061,0Z" transform="translate(-867.918 -100.7)" fill="#3a3f4f"/>
        <path id="Path_980" data-name="Path 980" d="M1074.5,101.9h7.52v2.506h-4.762v4.648h3.782v2.506h-3.782v5.4h4.762v2.506h-7.52Z" transform="translate(-901.12 -101.627)" fill="#3a3f4f"/>
        <path id="Path_981" data-name="Path 981" d="M1112.7,134.9h5.514v2.506H1112.7Z" transform="translate(-930.616 -127.107)" fill="#3a3f4f"/>
        <path id="Path_982" data-name="Path 982" d="M1144.2,101.9h2.757v7.155h2.962V101.9h2.757v17.568h-2.757v-7.907h-2.962v7.907H1144.2Z" transform="translate(-954.938 -101.627)" fill="#3a3f4f"/>
        <path id="Path_983" data-name="Path 983" d="M1190.094,104.406H1187.2V101.9h8.522v2.506h-2.871v15.062h-2.757Z" transform="translate(-988.14 -101.627)" fill="#3a3f4f"/>
        <path id="Path_984" data-name="Path 984" d="M1229.425,117.807a4.719,4.719,0,0,1-1.025-3.281v-1h2.62v1.208q0,1.709,1.436,1.709a1.358,1.358,0,0,0,1.071-.41,1.977,1.977,0,0,0,.365-1.344,3.609,3.609,0,0,0-.5-1.937,9.812,9.812,0,0,0-1.846-2.028,11.458,11.458,0,0,1-2.393-2.712,5.56,5.56,0,0,1-.684-2.757,4.512,4.512,0,0,1,1.048-3.213,4,4,0,0,1,3.053-1.139,3.865,3.865,0,0,1,3.008,1.139,4.72,4.72,0,0,1,1.025,3.281v.729h-2.62v-.911a2.086,2.086,0,0,0-.342-1.322,1.259,1.259,0,0,0-1.025-.41c-.911,0-1.39.57-1.39,1.686a3.3,3.3,0,0,0,.524,1.777,9.41,9.41,0,0,0,1.868,2.005,10.605,10.605,0,0,1,2.393,2.734,6.1,6.1,0,0,1,.661,2.894,4.684,4.684,0,0,1-1.071,3.3,4,4,0,0,1-3.1,1.162A4.048,4.048,0,0,1,1229.425,117.807Z" transform="translate(-1019.952 -100.854)" fill="#3a3f4f"/>
      </g>
    </g>
    <rect id="Rectangle_698" data-name="Rectangle 698" width="217.061" height="13.717" transform="translate(101.641 70.55)" fill="#ea7066"/>
    <g id="Group_1232" data-name="Group 1232" transform="translate(103.304 73.558)">
      <path id="Path_985" data-name="Path 985" d="M325.859,207.7a2.353,2.353,0,0,1-.752,1.6,2.543,2.543,0,0,1-1.755.57,2.357,2.357,0,0,1-2.233-1.39,3.613,3.613,0,0,1-.319-1.549v-.592a3.905,3.905,0,0,1,.319-1.6,2.476,2.476,0,0,1,.911-1.071,2.532,2.532,0,0,1,1.39-.365,2.461,2.461,0,0,1,1.709.57,2.361,2.361,0,0,1,.752,1.618h-1.117a1.515,1.515,0,0,0-.41-1,1.3,1.3,0,0,0-.957-.3,1.352,1.352,0,0,0-1.117.524,2.472,2.472,0,0,0-.387,1.549v.57a2.768,2.768,0,0,0,.365,1.572,1.244,1.244,0,0,0,1.094.547,1.364,1.364,0,0,0,.98-.3,1.567,1.567,0,0,0,.41-.98h1.117Z" transform="translate(-320.8 -203.277)" fill="#fff"/>
      <path id="Path_986" data-name="Path 986" d="M351.709,206.764a4.05,4.05,0,0,1-.319,1.641,2.458,2.458,0,0,1-.934,1.094,2.687,2.687,0,0,1-2.78,0,2.38,2.38,0,0,1-.934-1.071,3.669,3.669,0,0,1-.342-1.618v-.387a3.7,3.7,0,0,1,.342-1.641,2.458,2.458,0,0,1,.934-1.094,2.758,2.758,0,0,1,2.78-.023,2.524,2.524,0,0,1,.934,1.071,3.7,3.7,0,0,1,.342,1.641v.387Zm-1.094-.342a2.69,2.69,0,0,0-.41-1.618,1.29,1.29,0,0,0-1.139-.57,1.251,1.251,0,0,0-1.117.57,2.708,2.708,0,0,0-.41,1.6v.365a2.69,2.69,0,0,0,.41,1.618,1.316,1.316,0,0,0,1.139.57,1.29,1.29,0,0,0,1.139-.57,2.775,2.775,0,0,0,.387-1.641Z" transform="translate(-340.567 -203.277)" fill="#fff"/>
      <path id="Path_987" data-name="Path 987" d="M375.958,203.7l1.846,4.9,1.846-4.9h1.435v6.4h-1.117v-2.1l.114-2.826-1.891,4.922h-.8l-1.891-4.922.114,2.826v2.1H374.5v-6.4Z" transform="translate(-362.264 -203.586)" fill="#fff"/>
      <path id="Path_988" data-name="Path 988" d="M410.558,203.7l1.846,4.9,1.846-4.9h1.436v6.4h-1.117v-2.1l.114-2.826-1.891,4.922h-.8l-1.891-4.922.114,2.826v2.1H409.1v-6.4Z" transform="translate(-388.98 -203.586)" fill="#fff"/>
      <path id="Path_989" data-name="Path 989" d="M445.094,210.1H444v-6.4h1.117v6.4Z" transform="translate(-415.927 -203.586)" fill="#fff"/>
      <path id="Path_990" data-name="Path 990" d="M457.359,204.589h-1.982v5.491h-1.094v-5.491H452.3V203.7h5.081v.889Z" transform="translate(-422.336 -203.586)" fill="#fff"/>
      <path id="Path_991" data-name="Path 991" d="M479.558,203.7l1.846,4.9,1.846-4.9h1.436v6.4h-1.117v-2.1l.114-2.826-1.891,4.922h-.8l-1.891-4.922.114,2.826v2.1H478.1v-6.4Z" transform="translate(-442.257 -203.586)" fill="#fff"/>
      <path id="Path_992" data-name="Path 992" d="M516.614,207.155h-2.62v1.96h3.076V210H512.9v-6.4h4.124v.889h-3.031v1.755h2.62Z" transform="translate(-469.128 -203.509)" fill="#fff"/>
      <path id="Path_993" data-name="Path 993" d="M540.081,210.1h-1.117l-2.848-4.534V210.1H535v-6.4h1.117l2.848,4.557V203.7h1.094v6.4Z" transform="translate(-486.192 -203.586)" fill="#fff"/>
      <path id="Path_994" data-name="Path 994" d="M565.581,204.589h-2.005v5.491h-1.094v-5.491H560.5V203.7h5.081Z" transform="translate(-505.882 -203.586)" fill="#fff"/>
      <path id="Path_995" data-name="Path 995" d="M579.77,229.761l-.57-.342a2.8,2.8,0,0,0,.342-.706,1.877,1.877,0,0,0,.091-.592v-.82h.957v.775a2.344,2.344,0,0,1-.228.934A2.411,2.411,0,0,1,579.77,229.761Z" transform="translate(-520.321 -221.809)" fill="#fff"/>
      <path id="Path_996" data-name="Path 996" d="M601.958,204.589h-1.982v5.491h-1.094v-5.491H596.9V203.7h5.081v.889Z" transform="translate(-533.987 -203.586)" fill="#fff"/>
      <path id="Path_997" data-name="Path 997" d="M625.147,207.642h-1.23V210.1H622.8v-6.4h2.256a2.59,2.59,0,0,1,1.709.5,1.75,1.75,0,0,1,.592,1.436,1.807,1.807,0,0,1-.319,1.071,1.961,1.961,0,0,1-.866.661l1.436,2.666v.068h-1.185Zm-1.23-.911h1.139a1.379,1.379,0,0,0,.889-.273,1.158,1.158,0,0,0,.023-1.572,1.357,1.357,0,0,0-.866-.3h-1.162v2.142Z" transform="translate(-553.986 -203.586)" fill="#fff"/>
      <path id="Path_998" data-name="Path 998" d="M648.97,208.522h-2.484L645.962,210H644.8l2.415-6.4h1l2.415,6.4h-1.162Zm-2.165-.889h1.846l-.934-2.643Z" transform="translate(-570.973 -203.509)" fill="#fff"/>
      <path id="Path_999" data-name="Path 999" d="M678.681,210.1h-1.117l-2.848-4.534V210.1H673.6v-6.4h1.117l2.848,4.557V203.7h1.094v6.4Z" transform="translate(-593.211 -203.586)" fill="#fff"/>
      <path id="Path_1000" data-name="Path 1000" d="M703.969,208.053a.792.792,0,0,0-.3-.661,3.513,3.513,0,0,0-1.071-.456,4.518,4.518,0,0,1-1.23-.524,1.613,1.613,0,0,1-.866-1.436,1.535,1.535,0,0,1,.638-1.276,2.518,2.518,0,0,1,1.641-.5,2.749,2.749,0,0,1,1.185.251,1.9,1.9,0,0,1,.82.706,1.727,1.727,0,0,1,.3,1h-1.117a.978.978,0,0,0-.319-.775,1.3,1.3,0,0,0-.889-.273,1.325,1.325,0,0,0-.843.228.764.764,0,0,0-.3.661.747.747,0,0,0,.319.592,3.466,3.466,0,0,0,1.071.456,5.073,5.073,0,0,1,1.208.5,1.832,1.832,0,0,1,.661.661,1.738,1.738,0,0,1,.205.866,1.545,1.545,0,0,1-.615,1.276,2.626,2.626,0,0,1-1.663.479,3.352,3.352,0,0,1-1.276-.251,2.392,2.392,0,0,1-.911-.706,1.838,1.838,0,0,1-.319-1.048h1.117a1.012,1.012,0,0,0,.365.843,1.57,1.57,0,0,0,1.025.3,1.312,1.312,0,0,0,.866-.228A.988.988,0,0,0,703.969,208.053Z" transform="translate(-613.827 -203.2)" fill="#fff"/>
      <path id="Path_1001" data-name="Path 1001" d="M726.617,207.733v2.37H725.5v-6.4h2.438a2.564,2.564,0,0,1,1.709.547,1.909,1.909,0,0,1,.638,1.481,1.782,1.782,0,0,1-.615,1.458,2.619,2.619,0,0,1-1.732.524h-1.322Zm0-.911h1.344a1.361,1.361,0,0,0,.911-.273,1.028,1.028,0,0,0,.319-.8,1.116,1.116,0,0,0-.319-.82,1.189,1.189,0,0,0-.866-.319h-1.367v2.21Z" transform="translate(-633.284 -203.586)" fill="#fff"/>
      <path id="Path_1002" data-name="Path 1002" d="M748.87,208.522h-2.484L745.862,210H744.7l2.415-6.4h1l2.415,6.4h-1.162Zm-2.165-.889h1.846l-.934-2.643Z" transform="translate(-648.11 -203.509)" fill="#fff"/>
      <path id="Path_1003" data-name="Path 1003" d="M775.947,207.642h-1.23V210.1H773.6v-6.4h2.256a2.59,2.59,0,0,1,1.709.5,1.75,1.75,0,0,1,.592,1.436,1.807,1.807,0,0,1-.319,1.071,1.961,1.961,0,0,1-.866.661l1.436,2.666v.068h-1.185Zm-1.253-.911h1.139a1.379,1.379,0,0,0,.889-.273,1.158,1.158,0,0,0,.023-1.572,1.357,1.357,0,0,0-.866-.3h-1.162v2.142Z" transform="translate(-670.424 -203.586)" fill="#fff"/>
      <path id="Path_1004" data-name="Path 1004" d="M802.014,207.155h-2.62v1.96h3.076V210H798.3v-6.4h4.147v.889h-3.031v1.755h2.62v.911Z" transform="translate(-689.496 -203.509)" fill="#fff"/>
      <path id="Path_1005" data-name="Path 1005" d="M825.481,210.1h-1.117l-2.848-4.534V210.1H820.4v-6.4h1.117l2.848,4.557V203.7h1.094v6.4Z" transform="translate(-706.56 -203.586)" fill="#fff"/>
      <path id="Path_1006" data-name="Path 1006" d="M852.758,207.7a2.353,2.353,0,0,1-.752,1.6,2.543,2.543,0,0,1-1.755.57,2.357,2.357,0,0,1-2.233-1.39,3.612,3.612,0,0,1-.319-1.549v-.592a3.9,3.9,0,0,1,.319-1.6,2.476,2.476,0,0,1,.911-1.071,2.533,2.533,0,0,1,1.39-.365,2.461,2.461,0,0,1,1.709.57,2.361,2.361,0,0,1,.752,1.618h-1.117a1.515,1.515,0,0,0-.41-1,1.3,1.3,0,0,0-.957-.3,1.352,1.352,0,0,0-1.117.524,2.472,2.472,0,0,0-.387,1.549v.57a2.769,2.769,0,0,0,.365,1.572,1.244,1.244,0,0,0,1.094.547,1.364,1.364,0,0,0,.98-.3,1.566,1.566,0,0,0,.41-.98h1.117Z" transform="translate(-727.64 -203.277)" fill="#fff"/>
      <path id="Path_1007" data-name="Path 1007" d="M874.289,206.731l1.481-3.031H877l-2.142,4.033v2.347h-1.117v-2.347L871.6,203.7h1.23Z" transform="translate(-746.094 -203.586)" fill="#fff"/>
      <path id="Path_1008" data-name="Path 1008" d="M909.747,208.522h-2.461L906.762,210H905.6l2.415-6.4h1l2.415,6.4h-1.162Zm-2.165-.889h1.846l-.934-2.643Z" transform="translate(-772.347 -203.509)" fill="#fff"/>
      <path id="Path_1009" data-name="Path 1009" d="M939.481,210.1h-1.117l-2.848-4.534V210.1H934.4v-6.4h1.116l2.848,4.557V203.7h1.094v6.4Z" transform="translate(-794.584 -203.586)" fill="#fff"/>
      <path id="Path_1010" data-name="Path 1010" d="M962.4,210.1v-6.4h1.891a2.953,2.953,0,0,1,1.5.387,2.73,2.73,0,0,1,1.025,1.071,3.3,3.3,0,0,1,.365,1.6v.319a3.235,3.235,0,0,1-.365,1.6,2.73,2.73,0,0,1-1.025,1.071,3.087,3.087,0,0,1-1.527.365Zm1.117-5.514v4.6h.729a1.671,1.671,0,0,0,1.344-.547,2.316,2.316,0,0,0,.479-1.572v-.342a2.509,2.509,0,0,0-.456-1.6,1.593,1.593,0,0,0-1.322-.547Z" transform="translate(-816.204 -203.586)" fill="#fff"/>
      <path id="Path_1011" data-name="Path 1011" d="M999.436,203.7l1.846,4.9,1.846-4.9h1.436v6.4h-1.117v-2.1l.114-2.826-1.891,4.922h-.8l-1.891-4.922.114,2.826v2.1H998v-6.4Z" transform="translate(-843.692 -203.586)" fill="#fff"/>
      <path id="Path_1012" data-name="Path 1012" d="M1036.414,207.155h-2.62v1.96h3.076V210h-4.17v-6.4h4.147v.889h-3.031v1.755h2.62v.911Z" transform="translate(-870.485 -203.509)" fill="#fff"/>
      <path id="Path_1013" data-name="Path 1013" d="M1057.247,207.642h-1.23V210.1H1054.9v-6.4h2.256a2.59,2.59,0,0,1,1.709.5,1.75,1.75,0,0,1,.593,1.436,1.806,1.806,0,0,1-.319,1.071,1.96,1.96,0,0,1-.866.661l1.436,2.666v.068h-1.185Zm-1.23-.911h1.139a1.379,1.379,0,0,0,.889-.273.939.939,0,0,0,.319-.775,1.016,1.016,0,0,0-.3-.8,1.357,1.357,0,0,0-.866-.3h-1.162v2.142Z" transform="translate(-887.627 -203.586)" fill="#fff"/>
      <path id="Path_1014" data-name="Path 1014" d="M1080.816,210.1H1079.7v-6.4h1.116Z" transform="translate(-906.776 -203.586)" fill="#fff"/>
      <path id="Path_1015" data-name="Path 1015" d="M1093.159,204.589h-1.982v5.491h-1.094v-5.491H1088.1V203.7h5.081v.889Z" transform="translate(-913.262 -203.586)" fill="#fff"/>
      <path id="Path_1016" data-name="Path 1016" d="M1117.909,206.764a4.05,4.05,0,0,1-.319,1.641,2.459,2.459,0,0,1-.934,1.094,2.687,2.687,0,0,1-2.78,0,2.38,2.38,0,0,1-.934-1.071,3.671,3.671,0,0,1-.342-1.618v-.387a3.7,3.7,0,0,1,.342-1.641,2.458,2.458,0,0,1,.934-1.094,2.757,2.757,0,0,1,2.78-.023,2.525,2.525,0,0,1,.934,1.071,3.773,3.773,0,0,1,.342,1.641v.387Zm-1.116-.342a2.69,2.69,0,0,0-.41-1.618,1.29,1.29,0,0,0-1.139-.57,1.251,1.251,0,0,0-1.117.57,2.708,2.708,0,0,0-.41,1.6v.365a2.69,2.69,0,0,0,.41,1.618,1.317,1.317,0,0,0,1.139.57,1.29,1.29,0,0,0,1.139-.57,2.728,2.728,0,0,0,.387-1.641Z" transform="translate(-932.179 -203.277)" fill="#fff"/>
      <path id="Path_1017" data-name="Path 1017" d="M1144.958,207.7a2.354,2.354,0,0,1-.752,1.6,2.543,2.543,0,0,1-1.755.57,2.357,2.357,0,0,1-2.233-1.39,3.613,3.613,0,0,1-.319-1.549v-.592a3.905,3.905,0,0,1,.319-1.6,2.476,2.476,0,0,1,.911-1.071,2.533,2.533,0,0,1,1.39-.365,2.461,2.461,0,0,1,1.709.57,2.361,2.361,0,0,1,.752,1.618h-1.116a1.516,1.516,0,0,0-.41-1,1.3,1.3,0,0,0-.957-.3,1.353,1.353,0,0,0-1.117.524,2.472,2.472,0,0,0-.387,1.549v.57a2.77,2.77,0,0,0,.365,1.572,1.244,1.244,0,0,0,1.094.547,1.365,1.365,0,0,0,.98-.3,1.452,1.452,0,0,0,.41-.98h1.117Z" transform="translate(-953.259 -203.277)" fill="#fff"/>
      <path id="Path_1018" data-name="Path 1018" d="M1168.847,207.642h-1.23V210.1H1166.5v-6.4h2.256a2.591,2.591,0,0,1,1.709.5,1.751,1.751,0,0,1,.592,1.436,1.807,1.807,0,0,1-.319,1.071,1.96,1.96,0,0,1-.866.661l1.436,2.666v.068h-1.185Zm-1.23-.911h1.139a1.379,1.379,0,0,0,.889-.273.939.939,0,0,0,.319-.775,1.016,1.016,0,0,0-.3-.8,1.357,1.357,0,0,0-.866-.3h-1.162v2.142Z" transform="translate(-973.798 -203.586)" fill="#fff"/>
      <path id="Path_1019" data-name="Path 1019" d="M1192.747,208.522h-2.461l-.524,1.481H1188.6l2.415-6.4h1l2.415,6.4h-1.162Zm-2.165-.889h1.846l-.934-2.643Z" transform="translate(-990.862 -203.509)" fill="#fff"/>
      <path id="Path_1020" data-name="Path 1020" d="M1221.259,207.7a2.353,2.353,0,0,1-.752,1.6,2.543,2.543,0,0,1-1.755.57,2.358,2.358,0,0,1-2.233-1.39,3.615,3.615,0,0,1-.319-1.549v-.592a3.907,3.907,0,0,1,.319-1.6,2.476,2.476,0,0,1,.911-1.071,2.532,2.532,0,0,1,1.39-.365,2.461,2.461,0,0,1,1.709.57,2.361,2.361,0,0,1,.752,1.618h-1.117a1.516,1.516,0,0,0-.41-1,1.3,1.3,0,0,0-.957-.3,1.353,1.353,0,0,0-1.117.524,2.472,2.472,0,0,0-.387,1.549v.57a2.769,2.769,0,0,0,.365,1.572,1.244,1.244,0,0,0,1.094.547,1.365,1.365,0,0,0,.98-.3,1.452,1.452,0,0,0,.41-.98h1.117Z" transform="translate(-1012.173 -203.277)" fill="#fff"/>
      <path id="Path_1021" data-name="Path 1021" d="M1242.789,206.731l1.481-3.031h1.23l-2.142,4.033v2.347h-1.116v-2.347L1240.1,203.7h1.231Z" transform="translate(-1030.627 -203.586)" fill="#fff"/>
    </g>
    <g id="Group_1243" data-name="Group 1243" transform="translate(39.12 35.3)">
      <g id="Group_1235" data-name="Group 1235" transform="translate(0.086 6.22)">
        <g id="Group_1233" data-name="Group 1233" transform="translate(28.665)">
          <path id="Path_1022" data-name="Path 1022" d="M212.634,64.357a4.769,4.769,0,0,1,1.413,2.552A4.08,4.08,0,0,1,209.9,63.4a4.748,4.748,0,0,1,2.734.957" transform="translate(-199.737 -63.217)" fill="#3a3f4f"/>
          <path id="Path_1023" data-name="Path 1023" d="M190.869,225.328a4.754,4.754,0,0,0-.889,2.712,5.538,5.538,0,0,0,2.825-2.005,3.424,3.424,0,0,0,.365-2.734,8.551,8.551,0,0,0-2.3,2.028" transform="translate(-184.352 -186.682)" fill="#3a3f4f"/>
          <path id="Path_1024" data-name="Path 1024" d="M192.384,243.738a3.362,3.362,0,0,1-2.484-1.527,10.691,10.691,0,0,1,3.509-.478,4.381,4.381,0,0,1,2.643,1.139,6.9,6.9,0,0,1-3.669.866" transform="translate(-184.295 -200.9)" fill="#3a3f4f"/>
          <path id="Path_1025" data-name="Path 1025" d="M207.587,217.024a4.59,4.59,0,0,0-.3,2.757,5.084,5.084,0,0,0,2.256-2.393,3.336,3.336,0,0,0-.182-2.689,8,8,0,0,0-1.777,2.324" transform="translate(-197.653 -180.042)" fill="#3a3f4f"/>
          <path id="Path_1026" data-name="Path 1026" d="M210.12,234.264a3.309,3.309,0,0,1-2.62-1.071,10.33,10.33,0,0,1,3.213-1.048,4.555,4.555,0,0,1,2.734.638,6,6,0,0,1-3.327,1.481" transform="translate(-197.884 -193.5)" fill="#3a3f4f"/>
          <path id="Path_1027" data-name="Path 1027" d="M221.361,206.675a4.948,4.948,0,0,0,.228,2.712,5.083,5.083,0,0,0,1.709-2.712,3.5,3.5,0,0,0-.661-2.575,7.752,7.752,0,0,0-1.276,2.575" transform="translate(-208.51 -171.857)" fill="#3a3f4f"/>
          <path id="Path_1028" data-name="Path 1028" d="M225.312,221.927a3.238,3.238,0,0,1-2.712-.592,9.54,9.54,0,0,1,2.871-1.549,4.244,4.244,0,0,1,2.757.159,5.952,5.952,0,0,1-2.917,1.982" transform="translate(-209.544 -183.851)" fill="#3a3f4f"/>
          <path id="Path_1029" data-name="Path 1029" d="M232.293,194.712a4.692,4.692,0,0,0,.729,2.6,4.864,4.864,0,0,0,1.162-2.917A3.482,3.482,0,0,0,233.091,192a6.851,6.851,0,0,0-.8,2.712" transform="translate(-217.027 -162.514)" fill="#3a3f4f"/>
          <path id="Path_1030" data-name="Path 1030" d="M238.112,207.087A3.343,3.343,0,0,1,235.4,207a9.024,9.024,0,0,1,2.506-2.005,4.169,4.169,0,0,1,2.712-.319,6.462,6.462,0,0,1-2.506,2.415" transform="translate(-219.427 -172.224)" fill="#3a3f4f"/>
          <path id="Path_1031" data-name="Path 1031" d="M240.433,181.4A4.756,4.756,0,0,0,241.6,183.8a5.12,5.12,0,0,0,.638-3.053,3.408,3.408,0,0,0-1.481-2.142,6.18,6.18,0,0,0-.319,2.8" transform="translate(-223.275 -152.168)" fill="#3a3f4f"/>
          <path id="Path_1032" data-name="Path 1032" d="M248.166,190.094a3.32,3.32,0,0,1-2.666.387,9.284,9.284,0,0,1,2.1-2.393,4.338,4.338,0,0,1,2.6-.8,6.081,6.081,0,0,1-2.028,2.8" transform="translate(-227.226 -158.876)" fill="#3a3f4f"/>
          <path id="Path_1033" data-name="Path 1033" d="M245.571,167.3a4.5,4.5,0,0,0,1.549,2.142,4.939,4.939,0,0,0,.091-3.1,3.361,3.361,0,0,0-1.8-1.846,6.484,6.484,0,0,0,.16,2.8" transform="translate(-227.091 -141.281)" fill="#3a3f4f"/>
          <path id="Path_1034" data-name="Path 1034" d="M255.528,171.821a3.15,3.15,0,0,1-2.529.843,9.539,9.539,0,0,1,1.641-2.712,4.432,4.432,0,0,1,2.393-1.253,6.123,6.123,0,0,1-1.5,3.122" transform="translate(-233.016 -144.523)" fill="#3a3f4f"/>
          <path id="Path_1035" data-name="Path 1035" d="M247.693,152.612a4.581,4.581,0,0,0,1.868,1.823,5.031,5.031,0,0,0-.41-3.053,3.232,3.232,0,0,0-2.074-1.481,6.1,6.1,0,0,0,.615,2.712" transform="translate(-228.438 -130.007)" fill="#3a3f4f"/>
          <path id="Path_1036" data-name="Path 1036" d="M260.047,152.85a3.192,3.192,0,0,1-2.347,1.276,8.759,8.759,0,0,1,1.162-2.962A4.42,4.42,0,0,1,261,149.5a6.085,6.085,0,0,1-.957,3.35" transform="translate(-236.646 -129.699)" fill="#3a3f4f"/>
          <path id="Path_1037" data-name="Path 1037" d="M246.794,137.775a4.1,4.1,0,0,0,2.142,1.458,4.952,4.952,0,0,0-.934-2.939,3.176,3.176,0,0,0-2.3-1.094,7.523,7.523,0,0,0,1.094,2.575" transform="translate(-227.38 -118.657)" fill="#3a3f4f"/>
          <path id="Path_1038" data-name="Path 1038" d="M261.773,133.863a3.242,3.242,0,0,1-2.074,1.686,8.642,8.642,0,0,1,.638-3.122,4.27,4.27,0,0,1,1.823-2.028,6.552,6.552,0,0,1-.387,3.464" transform="translate(-238.189 -114.95)" fill="#3a3f4f"/>
          <path id="Path_1039" data-name="Path 1039" d="M243.6,123.047a4.352,4.352,0,0,0,2.347,1.071,4.892,4.892,0,0,0-1.413-2.757,3.066,3.066,0,0,0-2.438-.684,6.721,6.721,0,0,0,1.5,2.37" transform="translate(-224.6 -107.416)" fill="#3a3f4f"/>
          <path id="Path_1040" data-name="Path 1040" d="M260.147,115.108a3.215,3.215,0,0,1-1.732,2.051,9.17,9.17,0,0,1,.068-3.213A4.473,4.473,0,0,1,259.9,111.6a6.591,6.591,0,0,1,.251,3.509" transform="translate(-237.11 -100.434)" fill="#3a3f4f"/>
          <path id="Path_1041" data-name="Path 1041" d="M237.46,108.635a4.308,4.308,0,0,0,2.484.661,4.947,4.947,0,0,0-1.914-2.506,3.235,3.235,0,0,0-2.529-.273,7.93,7.93,0,0,0,1.96,2.119" transform="translate(-219.504 -96.399)" fill="#3a3f4f"/>
          <path id="Path_1042" data-name="Path 1042" d="M254.36,97.086a3.245,3.245,0,0,1-1.322,2.347,10.483,10.483,0,0,1-.547-3.236,4.463,4.463,0,0,1,.934-2.6,6.864,6.864,0,0,1,.934,3.486" transform="translate(-232.622 -86.536)" fill="#3a3f4f"/>
          <path id="Path_1043" data-name="Path 1043" d="M228.746,94.769a4.284,4.284,0,0,0,2.575.228,5.376,5.376,0,0,0-2.37-2.187,3.093,3.093,0,0,0-2.552.16,6.962,6.962,0,0,0,2.347,1.8" transform="translate(-212.477 -85.768)" fill="#3a3f4f"/>
          <path id="Path_1044" data-name="Path 1044" d="M244.391,80.526a3.293,3.293,0,0,1-.843,2.6,11.137,11.137,0,0,1-1.185-3.144,4.47,4.47,0,0,1,.365-2.78,6.408,6.408,0,0,1,1.663,3.327" transform="translate(-224.749 -73.872)" fill="#3a3f4f"/>
          <path id="Path_1045" data-name="Path 1045" d="M217.08,82.027a4.014,4.014,0,0,0,2.6-.228,5.722,5.722,0,0,0-2.848-1.8,3.16,3.16,0,0,0-2.529.592,8.282,8.282,0,0,0,2.78,1.436" transform="translate(-203.135 -75.988)" fill="#3a3f4f"/>
          <path id="Path_1046" data-name="Path 1046" d="M230.337,65.7a3.31,3.31,0,0,1-.273,2.757,12.944,12.944,0,0,1-1.868-2.985,4.609,4.609,0,0,1-.273-2.871,7.219,7.219,0,0,1,2.415,3.1" transform="translate(-213.566 -62.599)" fill="#3a3f4f"/>
          <path id="Path_1047" data-name="Path 1047" d="M165.3,113.652l.023-.319a19.117,19.117,0,0,0,7.565-1.139,19.847,19.847,0,0,0,6.494-3.874,21.106,21.106,0,0,0,7-13.922,25.514,25.514,0,0,0-1.322-11.689,15.713,15.713,0,0,0-6.927-8.135l.16-.273a15.97,15.97,0,0,1,7.064,8.271A26.1,26.1,0,0,1,186.7,94.4a21.39,21.39,0,0,1-7.087,14.127A20.144,20.144,0,0,1,173,112.467a19.015,19.015,0,0,1-7.7,1.185" transform="translate(-165.3 -71.634)" fill="#3a3f4f"/>
        </g>
        <g id="Group_1234" data-name="Group 1234">
          <path id="Path_1048" data-name="Path 1048" d="M85.013,64.357A4.769,4.769,0,0,0,83.6,66.909,4.08,4.08,0,0,0,87.747,63.4a4.748,4.748,0,0,0-2.734.957" transform="translate(-73.551 -63.217)" fill="#3a3f4f"/>
          <path id="Path_1049" data-name="Path 1049" d="M109.543,225.328a4.754,4.754,0,0,1,.889,2.712,5.538,5.538,0,0,1-2.825-2.005,3.424,3.424,0,0,1-.365-2.734,7.883,7.883,0,0,1,2.3,2.028" transform="translate(-91.702 -186.682)" fill="#3a3f4f"/>
          <path id="Path_1050" data-name="Path 1050" d="M98.566,243.738a3.362,3.362,0,0,0,2.484-1.527,10.691,10.691,0,0,0-3.509-.478,4.381,4.381,0,0,0-2.643,1.139,6.824,6.824,0,0,0,3.669.866" transform="translate(-82.274 -200.9)" fill="#3a3f4f"/>
          <path id="Path_1051" data-name="Path 1051" d="M95.47,217.024a4.589,4.589,0,0,1,.3,2.757,5.084,5.084,0,0,1-2.256-2.393,3.336,3.336,0,0,1,.182-2.689,7.226,7.226,0,0,1,1.777,2.324" transform="translate(-81.047 -180.042)" fill="#3a3f4f"/>
          <path id="Path_1052" data-name="Path 1052" d="M81.526,234.264a3.308,3.308,0,0,0,2.62-1.071,10.33,10.33,0,0,0-3.213-1.048,4.555,4.555,0,0,0-2.734.638,6,6,0,0,0,3.327,1.481" transform="translate(-69.381 -193.5)" fill="#3a3f4f"/>
          <path id="Path_1053" data-name="Path 1053" d="M83.292,206.675a4.948,4.948,0,0,1-.228,2.712,5.083,5.083,0,0,1-1.709-2.712,3.5,3.5,0,0,1,.661-2.575,7.3,7.3,0,0,1,1.276,2.575" transform="translate(-71.785 -171.857)" fill="#3a3f4f"/>
          <path id="Path_1054" data-name="Path 1054" d="M67.413,221.927a3.238,3.238,0,0,0,2.712-.592,9.54,9.54,0,0,0-2.871-1.549,4.244,4.244,0,0,0-2.757.159,5.824,5.824,0,0,0,2.917,1.982" transform="translate(-58.8 -183.851)" fill="#3a3f4f"/>
          <path id="Path_1055" data-name="Path 1055" d="M72.987,194.712a4.692,4.692,0,0,1-.729,2.6,4.864,4.864,0,0,1-1.162-2.917A3.357,3.357,0,0,1,72.212,192a6.611,6.611,0,0,1,.775,2.712" transform="translate(-63.895 -162.514)" fill="#3a3f4f"/>
          <path id="Path_1056" data-name="Path 1056" d="M56.006,207.087A3.343,3.343,0,0,0,58.718,207a9.024,9.024,0,0,0-2.506-2.005,4.169,4.169,0,0,0-2.712-.319,6.278,6.278,0,0,0,2.506,2.415" transform="translate(-50.31 -172.224)" fill="#3a3f4f"/>
          <path id="Path_1057" data-name="Path 1057" d="M64.927,181.4a4.756,4.756,0,0,1-1.162,2.393,5.12,5.12,0,0,1-.638-3.053,3.409,3.409,0,0,1,1.481-2.142,6.982,6.982,0,0,1,.319,2.8" transform="translate(-57.703 -152.168)" fill="#3a3f4f"/>
          <path id="Path_1058" data-name="Path 1058" d="M47.728,190.094a3.32,3.32,0,0,0,2.666.387,9.284,9.284,0,0,0-2.1-2.393,4.338,4.338,0,0,0-2.6-.8,6.081,6.081,0,0,0,2.028,2.8" transform="translate(-44.287 -158.876)" fill="#3a3f4f"/>
          <path id="Path_1059" data-name="Path 1059" d="M58.99,167.3a4.5,4.5,0,0,1-1.549,2.142,4.939,4.939,0,0,1-.091-3.1,3.361,3.361,0,0,1,1.8-1.846,6.1,6.1,0,0,1-.16,2.8" transform="translate(-53.111 -141.281)" fill="#3a3f4f"/>
          <path id="Path_1060" data-name="Path 1060" d="M42.5,171.821a3.15,3.15,0,0,0,2.529.843,9.539,9.539,0,0,0-1.641-2.712A4.432,4.432,0,0,0,41,168.7a6.342,6.342,0,0,0,1.5,3.122" transform="translate(-40.658 -144.523)" fill="#3a3f4f"/>
          <path id="Path_1061" data-name="Path 1061" d="M55.406,152.612a4.581,4.581,0,0,1-1.868,1.823,5.031,5.031,0,0,1,.41-3.053,3.232,3.232,0,0,1,2.074-1.481,6.485,6.485,0,0,1-.615,2.712" transform="translate(-50.279 -130.007)" fill="#3a3f4f"/>
          <path id="Path_1062" data-name="Path 1062" d="M40.457,152.85a3.192,3.192,0,0,0,2.347,1.276,8.76,8.76,0,0,0-1.162-2.962A4.42,4.42,0,0,0,39.5,149.5a6.309,6.309,0,0,0,.957,3.35" transform="translate(-39.5 -129.699)" fill="#3a3f4f"/>
          <path id="Path_1063" data-name="Path 1063" d="M53.923,137.775a4.1,4.1,0,0,1-2.142,1.458,4.952,4.952,0,0,1,.934-2.939,3.176,3.176,0,0,1,2.3-1.094,7.038,7.038,0,0,1-1.094,2.575" transform="translate(-48.978 -118.657)" fill="#3a3f4f"/>
          <path id="Path_1064" data-name="Path 1064" d="M41.346,133.863a3.242,3.242,0,0,0,2.074,1.686,8.642,8.642,0,0,0-.638-3.122,4.27,4.27,0,0,0-1.823-2.028,6.821,6.821,0,0,0,.387,3.464" transform="translate(-40.571 -114.95)" fill="#3a3f4f"/>
          <path id="Path_1065" data-name="Path 1065" d="M55.143,123.047a4.352,4.352,0,0,1-2.347,1.071,4.892,4.892,0,0,1,1.413-2.757,3.066,3.066,0,0,1,2.438-.684,6.721,6.721,0,0,1-1.5,2.37" transform="translate(-49.765 -107.416)" fill="#3a3f4f"/>
          <path id="Path_1066" data-name="Path 1066" d="M44.849,115.108a3.215,3.215,0,0,0,1.732,2.051,9.17,9.17,0,0,0-.068-3.213A4.473,4.473,0,0,0,45.1,111.6a6.35,6.35,0,0,0-.251,3.509" transform="translate(-43.504 -100.434)" fill="#3a3f4f"/>
          <path id="Path_1067" data-name="Path 1067" d="M59.182,108.635a4.308,4.308,0,0,1-2.484.661,4.947,4.947,0,0,1,1.914-2.506,3.235,3.235,0,0,1,2.529-.273,7.93,7.93,0,0,1-1.96,2.119" transform="translate(-52.779 -96.399)" fill="#3a3f4f"/>
          <path id="Path_1068" data-name="Path 1068" d="M51.032,97.086a3.245,3.245,0,0,0,1.322,2.347A10.484,10.484,0,0,0,52.9,96.2a4.463,4.463,0,0,0-.934-2.6,6.628,6.628,0,0,0-.934,3.486" transform="translate(-48.389 -86.536)" fill="#3a3f4f"/>
          <path id="Path_1069" data-name="Path 1069" d="M66.273,94.769A4.284,4.284,0,0,1,63.7,95a5.376,5.376,0,0,1,2.37-2.187,3.093,3.093,0,0,1,2.552.16,6.962,6.962,0,0,1-2.347,1.8" transform="translate(-58.184 -85.768)" fill="#3a3f4f"/>
          <path id="Path_1070" data-name="Path 1070" d="M60.143,80.526a3.293,3.293,0,0,0,.843,2.6,11.137,11.137,0,0,0,1.185-3.144,4.47,4.47,0,0,0-.365-2.78,6.592,6.592,0,0,0-1.663,3.327" transform="translate(-55.426 -73.872)" fill="#3a3f4f"/>
          <path id="Path_1071" data-name="Path 1071" d="M76.5,82.027a4.014,4.014,0,0,1-2.6-.228A5.723,5.723,0,0,1,76.747,80a3.161,3.161,0,0,1,2.529.592,8.559,8.559,0,0,1-2.78,1.436" transform="translate(-66.061 -75.988)" fill="#3a3f4f"/>
          <path id="Path_1072" data-name="Path 1072" d="M72.206,65.7a3.31,3.31,0,0,0,.273,2.757,12.943,12.943,0,0,0,1.868-2.985,4.609,4.609,0,0,0,.273-2.871,7.4,7.4,0,0,0-2.415,3.1" transform="translate(-64.618 -62.599)" fill="#3a3f4f"/>
          <path id="Path_1073" data-name="Path 1073" d="M73.479,113.574l-.023-.319a19.117,19.117,0,0,1-7.565-1.139,19.847,19.847,0,0,1-6.494-3.874A21.183,21.183,0,0,1,52.424,94.3a25.514,25.514,0,0,1,1.322-11.689,15.713,15.713,0,0,1,6.927-8.135l-.16-.273a15.97,15.97,0,0,0-7.064,8.271A26.1,26.1,0,0,0,52.105,94.3a21.39,21.39,0,0,0,7.086,14.127,20.145,20.145,0,0,0,6.608,3.942,18.547,18.547,0,0,0,7.679,1.208" transform="translate(-49.12 -71.557)" fill="#3a3f4f"/>
        </g>
      </g>
      <g id="Group_1236" data-name="Group 1236" transform="translate(22.668 49.081)">
        <path id="Path_1074" data-name="Path 1074" d="M152.444,250.7l.41.843.911.137-.661.661.16.911-.82-.433-.843.433.16-.911-.661-.661.911-.137Z" transform="translate(-148.252 -250.7)" fill="#f0c24b"/>
        <path id="Path_1075" data-name="Path 1075" d="M139.58,257.6l.319.615.684.114-.5.478.114.684-.615-.319-.615.319.137-.684-.5-.478.684-.114Z" transform="translate(-138.6 -256.028)" fill="#f0c24b"/>
        <path id="Path_1076" data-name="Path 1076" d="M167.6,257.6l.3.615.684.114-.5.478.137.684-.615-.319-.615.319.114-.684-.5-.478.684-.114Z" transform="translate(-160.22 -256.028)" fill="#f0c24b"/>
      </g>
      <circle id="Ellipse_3" data-name="Ellipse 3" cx="17.842" cy="17.842" r="17.842" transform="translate(8.677 8.021)" fill="none" stroke="#3a3f4f" stroke-miterlimit="10" stroke-width="3"/>
      <g id="Group_1238" data-name="Group 1238" transform="translate(14.647 0)">
        <g id="Group_1237" data-name="Group 1237">
          <path id="Path_1077" data-name="Path 1077" d="M106.089,42.751l.752,2.119-1.709.592-1.732-4.9,1.094-2.3.98,2.757,3.4-1.208-.752-2.119,1.709-.592,1.732,4.9-1.094,2.3-.98-2.757Z" transform="translate(-103.4 -36.69)" fill="#3a3f4f"/>
          <path id="Path_1078" data-name="Path 1078" d="M149.357,35.505l-1.846,1.755-1.8-.046-.068,3.4L143.8,42.364l.114-5.2L141.2,37.1l.046-1.8Z" transform="translate(-132.587 -35.3)" fill="#3a3f4f"/>
          <path id="Path_1079" data-name="Path 1079" d="M178.032,42.4l-2.347,1.025L171.7,41.851a.252.252,0,0,0-.182,0,.275.275,0,0,0-.114.114.252.252,0,0,0,0,.182.275.275,0,0,0,.114.114l2.939,1.162a1.984,1.984,0,0,1,1.117,1.071,1.93,1.93,0,0,1,.023,1.549,1.983,1.983,0,0,1-1.071,1.117,1.93,1.93,0,0,1-1.549.023L167.3,44.95l2.347-1.025,3.988,1.572a.252.252,0,0,0,.182,0,.275.275,0,0,0,.114-.114.252.252,0,0,0,0-.182.275.275,0,0,0-.114-.114l-2.939-1.139a1.983,1.983,0,0,1-1.117-1.071,1.93,1.93,0,0,1-.023-1.549,1.983,1.983,0,0,1,1.071-1.117,1.93,1.93,0,0,1,1.549-.023Z" transform="translate(-152.74 -38.958)" fill="#3a3f4f"/>
        </g>
      </g>
      <g id="Group_1239" data-name="Group 1239" transform="translate(15.241 11.279)">
        <path id="Path_1080" data-name="Path 1080" d="M118.691,148.6c5.97,3.213,10.254,6.79,9.593,8.044a.805.805,0,0,1-.433.319c-.433-1.549-4.375-4.671-9.639-7.5-5.241-2.848-10.026-4.421-11.553-3.919a.745.745,0,0,1,.023-.547c.684-1.23,6.038.387,12.008,3.6Z" transform="translate(-106.48 -130.967)" fill="#ea7066" fill-rule="evenodd"/>
        <path id="Path_1081" data-name="Path 1081" d="M123.8,109.089c6.494,4.124,9.775,1.891,11.872-4.489a51.11,51.11,0,0,1-7.633,23.082c.365-7.109.843-12.715-4.238-18.593Zm5.56-2.233a1.782,1.782,0,0,1,1.937,1.6,1.759,1.759,0,0,1-1.572,1.914,1.764,1.764,0,1,1-.365-3.509Z" transform="translate(-119.746 -100.088)" fill="#ea7066" fill-rule="evenodd"/>
        <path id="Path_1082" data-name="Path 1082" d="M115.144,159.312c5.674,3.053,10.8,4.512,11.461,3.281a.717.717,0,0,0,.046-.547c-1.481.547-6.061-.911-11.051-3.6s-8.727-5.719-9.092-7.246a.805.805,0,0,0-.433.319c-.638,1.253,3.4,4.74,9.069,7.793Z" transform="translate(-106.009 -136.07)" fill="#ea7066" fill-rule="evenodd"/>
        <path id="Path_1083" data-name="Path 1083" d="M163.227,84.8l.911,2.461,2.643-.137-2.074,1.663.957,2.461-2.21-1.458L161.4,91.431l.706-2.529-2.21-1.436,2.643-.114Z" transform="translate(-147.62 -84.8)" fill="#f0c24b" fill-rule="evenodd"/>
      </g>
      <g id="Group_1240" data-name="Group 1240" transform="translate(0 48.756)">
        <path id="Path_1084" data-name="Path 1084" d="M65.044,251.1s16.2,11.029,37.141,0l3.053,4.375S82.613,268.326,61.9,255.5Z" transform="translate(-56.709 -250.684)" fill="#3a3f4f"/>
        <path id="Path_1085" data-name="Path 1085" d="M39.526,253.2a.743.743,0,0,1,1.117-.41c.8.479,2.757,1.709,2.757,1.709l2.37-3.236-2.962-1.823a1.16,1.16,0,0,0-1.23.023,14.83,14.83,0,0,0-2.347,2.689A.742.742,0,0,0,39.526,253.2Z" transform="translate(-39.12 -249.273)" fill="#f0c24b"/>
        <path id="Path_1086" data-name="Path 1086" d="M251.843,253.2a.743.743,0,0,0-1.117-.41c-.8.479-2.757,1.709-2.757,1.709l-2.37-3.236,2.962-1.823a1.16,1.16,0,0,1,1.23.023,14.83,14.83,0,0,1,2.347,2.689A.742.742,0,0,1,251.843,253.2Z" transform="translate(-198.551 -249.273)" fill="#f0c24b"/>
      </g>
      <g id="Group_1242" data-name="Group 1242" transform="translate(8.084 51.337)">
        <g id="Group_1241" data-name="Group 1241">
          <path id="Path_1087" data-name="Path 1087" d="M76.218,263.375a3.445,3.445,0,0,1-.41-.205l.387-.775c-.319-.16-.479-.228-.8-.387-.16.3-.228.456-.387.775a3.445,3.445,0,0,0-.41-.205c.387-.706.57-1.071.934-1.777.16.091.228.114.387.205-.16.3-.228.433-.365.729.319.159.479.228.775.387.137-.3.205-.433.365-.729.16.068.228.114.387.182C76.719,262.281,76.56,262.646,76.218,263.375Z" transform="translate(-74.6 -260.754)" fill="#fff"/>
          <path id="Path_1088" data-name="Path 1088" d="M84.31,267.028c-.16-.068-.251-.114-.41-.182.342-.729.5-1.094.843-1.846.16.068.251.114.41.182C84.789,265.934,84.629,266.3,84.31,267.028Z" transform="translate(-81.781 -263.997)" fill="#fff"/>
          <path id="Path_1089" data-name="Path 1089" d="M88.848,268.181c-.137-.046-.205-.091-.342-.137-.114.273-.16.41-.273.684-.16-.068-.251-.114-.433-.182.319-.752.479-1.116.8-1.846.3.114.433.182.729.3a.9.9,0,0,1,.479.365.553.553,0,0,1,.023.5.579.579,0,0,1-.205.3.549.549,0,0,1-.342.091c.046.365.091.57.16.934v.023c-.182-.068-.273-.114-.456-.182C88.917,268.682,88.894,268.523,88.848,268.181Zm-.205-.433c.137.046.205.091.342.137a.4.4,0,0,0,.273.023.275.275,0,0,0,.16-.16.247.247,0,0,0,0-.251.41.41,0,0,0-.205-.182,1.348,1.348,0,0,1-.319-.137A6.2,6.2,0,0,0,88.643,267.748Z" transform="translate(-84.792 -265.31)" fill="#fff"/>
          <path id="Path_1090" data-name="Path 1090" d="M97.033,272.051c-.182-.068-.251-.091-.433-.16.273-.752.41-1.139.684-1.891a2.888,2.888,0,0,0,.41.137C97.42,270.911,97.284,271.276,97.033,272.051Z" transform="translate(-91.587 -267.858)" fill="#fff"/>
          <path id="Path_1091" data-name="Path 1091" d="M102.409,273.761a2.409,2.409,0,0,1-.433-.137c-.182-.615-.273-.911-.433-1.527-.16.5-.251.752-.41,1.253-.182-.046-.251-.091-.433-.137.251-.775.387-1.139.638-1.914.16.046.251.091.41.137.16.615.251.911.433,1.527.16-.5.228-.775.387-1.276.16.046.251.068.41.114C102.751,272.6,102.637,272.986,102.409,273.761Z" transform="translate(-94.753 -268.862)" fill="#fff"/>
          <path id="Path_1092" data-name="Path 1092" d="M112.588,276.721a.862.862,0,0,1-.387.137,1.289,1.289,0,0,1-.5-.046.959.959,0,0,1-.456-.228.74.74,0,0,1-.228-.41,1.034,1.034,0,0,1,.023-.524.951.951,0,0,0,.046-.137,1.07,1.07,0,0,1,.251-.479.72.72,0,0,1,.387-.251.854.854,0,0,1,.479,0,.967.967,0,0,1,.524.3.71.71,0,0,1,.137.547c-.16-.046-.251-.046-.41-.091a.486.486,0,0,0-.068-.273.384.384,0,0,0-.251-.137.348.348,0,0,0-.365.068.86.86,0,0,0-.228.433.205.205,0,0,0-.023.114.927.927,0,0,0,0,.5.45.45,0,0,0,.342.251c.16.046.3.046.365-.023a1.9,1.9,0,0,1,.091-.342c-.16-.046-.228-.046-.387-.091.023-.114.046-.182.068-.3.319.091.5.114.82.205A4.344,4.344,0,0,0,112.588,276.721Z" transform="translate(-102.699 -271.526)" fill="#fff"/>
          <path id="Path_1093" data-name="Path 1093" d="M125.286,277.492a6.139,6.139,0,0,0-.638-.091c-.114.661-.16,1-.273,1.663-.182-.023-.273-.046-.456-.068.114-.661.182-1,.3-1.663l-.615-.114c.023-.137.046-.205.068-.319.661.137,1,.182,1.663.3A1.9,1.9,0,0,1,125.286,277.492Z" transform="translate(-112.435 -273.186)" fill="#fff"/>
          <path id="Path_1094" data-name="Path 1094" d="M132.913,279.5c-.342-.046-.5-.046-.843-.091-.023.205-.046.319-.068.524.41.046.592.068,1,.114-.023.137-.023.205-.046.342-.592-.068-.866-.091-1.458-.182.114-.8.16-1.208.273-2.005.547.068.82.114,1.39.159-.023.137-.023.205-.046.342l-.957-.114c-.023.182-.046.3-.068.478.342.046.5.068.843.091C132.936,279.317,132.913,279.362,132.913,279.5Z" transform="translate(-118.535 -274.19)" fill="#fff"/>
          <path id="Path_1095" data-name="Path 1095" d="M140.656,280.827a.259.259,0,0,0-.068-.182,1.317,1.317,0,0,0-.319-.16,2.566,2.566,0,0,1-.342-.159.546.546,0,0,1-.319-.524.377.377,0,0,1,.114-.273.733.733,0,0,1,.3-.182,1.131,1.131,0,0,1,.41-.046.706.706,0,0,1,.387.114.617.617,0,0,1,.251.228.509.509,0,0,1,.068.319c-.182,0-.251-.023-.433-.023a.385.385,0,0,0-.068-.228.5.5,0,0,0-.5-.046.172.172,0,0,0-.091.159.235.235,0,0,0,.091.182,1.218,1.218,0,0,0,.3.137,1.379,1.379,0,0,1,.524.3.549.549,0,0,1,.16.41.441.441,0,0,1-.228.387.958.958,0,0,1-.592.114,1.489,1.489,0,0,1-.456-.114.823.823,0,0,1-.3-.251.469.469,0,0,1-.068-.342c.182.023.273.023.433.046-.023.228.114.342.41.365a.414.414,0,0,0,.251-.046A.237.237,0,0,0,140.656,280.827Z" transform="translate(-124.683 -275.039)" fill="#fff"/>
          <path id="Path_1096" data-name="Path 1096" d="M149.809,280.165h-.638c-.023.661-.023,1-.023,1.686h-.456c.023-.661.023-1,.046-1.686-.251,0-.387-.023-.638-.023a1.725,1.725,0,0,1,.023-.342c.684.023,1.025.046,1.686.046Z" transform="translate(-131.352 -275.425)" fill="#fff"/>
          <path id="Path_1097" data-name="Path 1097" d="M157.678,281.905h-.456c0-.8,0-1.208-.023-2.005h.433C157.656,280.7,157.656,281.108,157.678,281.905Z" transform="translate(-138.379 -275.502)" fill="#fff"/>
          <path id="Path_1098" data-name="Path 1098" d="M163.146,281.405a3.052,3.052,0,0,1-.456.023c-.387-.5-.57-.752-.934-1.276.023.524.046.8.068,1.322a3.052,3.052,0,0,0-.456.023c-.023-.8-.046-1.208-.068-2.005a2.756,2.756,0,0,0,.433-.023c.365.524.547.775.911,1.276-.046-.524-.046-.8-.091-1.322.159,0,.251-.023.433-.023C163.055,280.2,163.077,280.608,163.146,281.405Z" transform="translate(-141.544 -275.116)" fill="#fff"/>
          <path id="Path_1099" data-name="Path 1099" d="M172.717,280.436a.919.919,0,0,1-.319.251,1.473,1.473,0,0,1-.479.137.9.9,0,0,1-.5-.068.783.783,0,0,1-.365-.3,1.086,1.086,0,0,1-.16-.5.289.289,0,0,0-.023-.137.951.951,0,0,1,.068-.524.741.741,0,0,1,.273-.365.9.9,0,0,1,.456-.16.963.963,0,0,1,.592.091.761.761,0,0,1,.319.456c-.16.023-.251.023-.41.046a.349.349,0,0,0-.16-.228.353.353,0,0,0-.273-.046.443.443,0,0,0-.319.205.764.764,0,0,0-.068.479.339.339,0,0,0,.023.137.649.649,0,0,0,.182.456.445.445,0,0,0,.387.114.6.6,0,0,0,.342-.137c-.023-.137-.023-.205-.046-.342-.16.023-.251.023-.41.046a1.3,1.3,0,0,1-.023-.3l.843-.114A4.711,4.711,0,0,0,172.717,280.436Z" transform="translate(-148.928 -274.625)" fill="#fff"/>
          <path id="Path_1100" data-name="Path 1100" d="M184.646,278.355c-.023-.068-.046-.137-.114-.16a2.185,2.185,0,0,0-.342-.068c-.16-.023-.3-.046-.387-.068-.251-.091-.41-.228-.433-.433a.435.435,0,0,1,.046-.3.789.789,0,0,1,.228-.251.975.975,0,0,1,.387-.137,1.237,1.237,0,0,1,.41,0,.841.841,0,0,1,.319.159.476.476,0,0,1,.16.3c-.182.046-.251.046-.433.091a.332.332,0,0,0-.137-.205.359.359,0,0,0-.273-.023c-.114.023-.182.046-.228.114a.259.259,0,0,0-.068.182.169.169,0,0,0,.137.137,2.423,2.423,0,0,0,.319.068,1.314,1.314,0,0,1,.592.16.525.525,0,0,1,.251.342.45.45,0,0,1-.137.456.88.88,0,0,1-.547.251,1.685,1.685,0,0,1-.479,0,.557.557,0,0,1-.342-.182.535.535,0,0,1-.16-.319c.182-.023.273-.046.433-.068.046.228.205.3.479.251.114-.023.182-.046.228-.114A.143.143,0,0,0,184.646,278.355Z" transform="translate(-158.578 -273.205)" fill="#fff"/>
          <path id="Path_1101" data-name="Path 1101" d="M192.8,275.839c-.342.091-.5.114-.82.205.046.205.068.319.114.524.387-.091.592-.137.98-.251a1.306,1.306,0,0,0,.091.319c-.57.137-.866.205-1.436.342-.182-.8-.251-1.185-.433-1.96.547-.114.82-.182,1.367-.319a1.307,1.307,0,0,0,.091.319c-.387.091-.57.137-.957.228.046.182.068.273.114.479.319-.068.5-.114.82-.205C192.758,275.634,192.781,275.7,192.8,275.839Z" transform="translate(-164.709 -271.487)" fill="#fff"/>
          <path id="Path_1102" data-name="Path 1102" d="M199.994,274.346a1.9,1.9,0,0,1-.342.091c.091.273.114.433.205.706-.182.046-.273.068-.433.114-.205-.775-.319-1.162-.524-1.937.3-.091.456-.114.752-.205a1.067,1.067,0,0,1,.592-.023.477.477,0,0,1,.319.365.677.677,0,0,1,.023.365.638.638,0,0,1-.205.3c.273.251.41.387.706.638v.023a2.932,2.932,0,0,1-.479.137A4.8,4.8,0,0,1,199.994,274.346Zm-.433-.228a1.9,1.9,0,0,1,.342-.091.349.349,0,0,0,.228-.16.261.261,0,0,0,.023-.228.236.236,0,0,0-.137-.182.287.287,0,0,0-.273,0,1.9,1.9,0,0,1-.342.091C199.47,273.776,199.492,273.89,199.561,274.118Z" transform="translate(-170.577 -270.221)" fill="#fff"/>
          <path id="Path_1103" data-name="Path 1103" d="M207.713,271.055c-.023-.638-.023-.957-.046-1.6.182-.068.273-.091.456-.159,0,.866,0,1.3-.023,2.142-.182.068-.273.091-.456.159-.547-.661-.82-1-1.344-1.686.182-.068.273-.091.456-.159C207.143,270.28,207.325,270.553,207.713,271.055Z" transform="translate(-176.291 -267.318)" fill="#fff"/>
          <path id="Path_1104" data-name="Path 1104" d="M216.762,269.891c-.16.068-.251.091-.433.159-.3-.752-.433-1.139-.729-1.891.16-.068.251-.091.41-.16C216.306,268.752,216.466,269.139,216.762,269.891Z" transform="translate(-183.472 -266.314)" fill="#fff"/>
          <path id="Path_1105" data-name="Path 1105" d="M222.271,266.2a.706.706,0,0,1-.023.57.96.96,0,0,1-.5.433.907.907,0,0,1-.729.023.967.967,0,0,1-.5-.57c-.023-.046-.023-.068-.046-.114a1.067,1.067,0,0,1-.091-.524.719.719,0,0,1,.16-.433,1.032,1.032,0,0,1,.387-.3,1,1,0,0,1,.615-.068.786.786,0,0,1,.456.365c-.16.068-.251.114-.41.182a.389.389,0,0,0-.228-.205.422.422,0,0,0-.319.046.485.485,0,0,0-.251.273,1,1,0,0,0,.068.479l.068.137c.091.205.182.342.3.387a.349.349,0,0,0,.365,0,.6.6,0,0,0,.251-.205.337.337,0,0,0,0-.3C222.021,266.317,222.112,266.271,222.271,266.2Z" transform="translate(-187.158 -264.152)" fill="#fff"/>
          <path id="Path_1106" data-name="Path 1106" d="M229.463,261.694c-.319.16-.456.251-.775.387a4.826,4.826,0,0,0,.251.479c.365-.182.547-.273.911-.479.068.114.091.182.16.3-.524.273-.8.41-1.344.684-.342-.729-.524-1.094-.866-1.823.524-.251.775-.387,1.276-.638.068.114.091.182.159.3-.365.182-.524.273-.889.456a3.719,3.719,0,0,1,.205.433l.775-.387C229.372,261.534,229.418,261.58,229.463,261.694Z" transform="translate(-192.892 -260.6)" fill="#fff"/>
        </g>
      </g>
    </g>
  </g>
</svg>
