<svg xmlns="http://www.w3.org/2000/svg" xmlns:xlink="http://www.w3.org/1999/xlink" width="235.696" height="56.806" viewBox="0 0 235.696 56.806">
  <defs>
    <clipPath id="clip-path">
      <rect id="Rectangle_43" data-name="Rectangle 43" width="56.819" height="56.805" rx="7.1" fill="none"/>
    </clipPath>
    <radialGradient id="radial-gradient" cx="0.5" cy="0.499" r="0.5" gradientTransform="translate(0)" gradientUnits="objectBoundingBox">
      <stop offset="0.28" stop-color="#9e1f23" stop-opacity="0"/>
      <stop offset="0.4" stop-color="#9e1f23" stop-opacity="0.02"/>
      <stop offset="0.51" stop-color="#9e1f23" stop-opacity="0.09"/>
      <stop offset="0.63" stop-color="#9e1f23" stop-opacity="0.212"/>
      <stop offset="0.74" stop-color="#9e1f23" stop-opacity="0.38"/>
      <stop offset="0.84" stop-color="#9e1f23" stop-opacity="0.6"/>
      <stop offset="0.95" stop-color="#9e1f23" stop-opacity="0.859"/>
      <stop offset="1" stop-color="#9e1f23"/>
    </radialGradient>
  </defs>
  <g id="jazz_mosafir" transform="translate(-4.2 -1.8)">
    <g id="expanded_logo" data-name="expanded logo" transform="translate(4.2 1.8)">
      <path id="Path_57" data-name="Path 57" d="M42.121,22.9a.561.561,0,1,0,0-.982C41.56,21.92,41.56,22.9,42.121,22.9Z" transform="translate(10.911 6.279)" fill="#fff"/>
      <g id="Group_63" data-name="Group 63" clip-path="url(#clip-path)">
        <rect id="Rectangle_37" data-name="Rectangle 37" width="56.819" height="56.805" fill="#9e1f23"/>
        <rect id="Rectangle_38" data-name="Rectangle 38" width="56.819" height="56.805" fill="url(#radial-gradient)"/>
        <rect id="Rectangle_39" data-name="Rectangle 39" width="56.819" height="56.805" fill="#89181a"/>
        <rect id="Rectangle_40" data-name="Rectangle 40" width="56.819" height="56.805" fill="url(#radial-gradient)"/>
        <path id="Path_58" data-name="Path 58" d="M5.074,16.132a.982.982,0,0,0-.7-1.4,1.122,1.122,0,0,0-1.543.7,1.122,1.122,0,0,0,.7,1.543,1.263,1.263,0,0,0,1.543-.842Z" transform="translate(-4.793 3.369)" fill="#df2328"/>
        <path id="Path_59" data-name="Path 59" d="M45.11,14.067a1.263,1.263,0,0,0-1.122-2.245,1.4,1.4,0,0,0-.561,1.684,1.263,1.263,0,0,0,1.684.561Z" transform="translate(11.569 2.207)" fill="#df2328"/>
        <path id="Path_60" data-name="Path 60" d="M4.225,22.225A1.263,1.263,0,0,0,2.963,21.1,1.122,1.122,0,0,0,1.7,22.225a1.263,1.263,0,1,0,2.525,0Z" transform="translate(-5.207 5.974)" fill="#df2328"/>
        <path id="Path_61" data-name="Path 61" d="M4.4,19.214a1.122,1.122,0,0,0-.982-1.4,1.122,1.122,0,0,0-1.4.982,1.122,1.122,0,0,0,.982,1.4,1.122,1.122,0,0,0,1.4-.982Z" transform="translate(-5.097 4.637)" fill="#df2328"/>
        <path id="Path_62" data-name="Path 62" d="M3.817.612a1.263,1.263,0,0,0-1.824,0,1.263,1.263,0,0,0,.14,1.824A1.263,1.263,0,0,0,3.817,2.3a1.263,1.263,0,0,0,0-1.684Z" transform="translate(-5.22 -2.436)" fill="#f69322"/>
        <path id="Path_63" data-name="Path 63" d="M56.119,11.713a1.251,1.251,0,0,0,.7,2.385c.7-.281,1.122-.842.842-1.543A1.263,1.263,0,0,0,56.119,11.713Z" transform="translate(16.414 2.176)" fill="#df2328"/>
        <path id="Path_64" data-name="Path 64" d="M11.1,9.067a1.543,1.543,0,0,0-1.824.14,1.3,1.3,0,0,0,1.964,1.684A1.543,1.543,0,0,0,11.1,9.067Z" transform="translate(-2.263 1.034)" fill="#df2328"/>
        <path id="Path_65" data-name="Path 65" d="M7.854,10.659a1.4,1.4,0,0,0-.421-1.684,1.122,1.122,0,0,0-1.684.281,1.4,1.4,0,0,0,.421,1.824,1.4,1.4,0,0,0,1.684-.421Z" transform="translate(-3.646 0.985)" fill="#df2328"/>
        <path id="Path_66" data-name="Path 66" d="M53.111,11.615a1.4,1.4,0,0,0-.7,1.543,1.243,1.243,0,1,0,2.385-.7A1.4,1.4,0,0,0,53.111,11.615Z" transform="translate(15.212 2.134)" fill="#df2328"/>
        <path id="Path_67" data-name="Path 67" d="M2.951,7.842A1.4,1.4,0,0,0,2.53,6.159a1.263,1.263,0,0,0-1.684.281,1.263,1.263,0,0,0,.421,1.684,1.122,1.122,0,0,0,1.684-.281Z" transform="translate(-5.617 -0.126)" fill="#df2328"/>
        <path id="Path_68" data-name="Path 68" d="M9.72,6.609a1.122,1.122,0,0,0-1.684,0,.982.982,0,0,0,0,1.684,1.263,1.263,0,0,0,1.684,0,1.263,1.263,0,0,0,0-1.684Z" transform="translate(-2.846 -0.015)" fill="#df2328"/>
        <path id="Path_69" data-name="Path 69" d="M21.927,44.022A1.195,1.195,0,1,0,23.19,42.9a1.263,1.263,0,0,0-1.263,1.122Z" transform="translate(2.905 14.761)" fill="#df2328"/>
        <path id="Path_70" data-name="Path 70" d="M14.13,44.6a1.226,1.226,0,1,0,2.245.982,1.122,1.122,0,0,0-.561-1.543,1.263,1.263,0,0,0-1.684.561Z" transform="translate(-0.241 15.167)" fill="#df2328"/>
        <path id="Path_71" data-name="Path 71" d="M19.569,44.757a1.263,1.263,0,0,0,1.543-.842,1.122,1.122,0,0,0-.982-1.4,1.122,1.122,0,0,0-1.4.842.982.982,0,0,0,.842,1.4Z" transform="translate(1.615 14.588)" fill="#df2328"/>
        <path id="Path_72" data-name="Path 72" d="M49.635,37.468a1.4,1.4,0,0,0,.421,1.684,1.263,1.263,0,0,0,1.684-.421,1.122,1.122,0,0,0-.421-1.684A1.263,1.263,0,0,0,49.635,37.468Z" transform="translate(14.059 12.337)" fill="#f69322"/>
        <path id="Path_73" data-name="Path 73" d="M2.713,29.05a1.243,1.243,0,0,0,2.385-.7,1.4,1.4,0,0,0-1.543-.842,1.263,1.263,0,0,0-.842,1.543Z" transform="translate(-4.818 8.549)" fill="#df2328"/>
        <path id="Path_74" data-name="Path 74" d="M7.962,28.455a1.263,1.263,0,0,0-1.543-.842A1.268,1.268,0,0,0,7.261,30a1.122,1.122,0,0,0,.7-1.543Z" transform="translate(-3.613 8.583)" fill="#df2328"/>
        <path id="Path_75" data-name="Path 75" d="M51.123,34.732a1.263,1.263,0,0,0,.561,1.543,1.122,1.122,0,0,0,1.684-.561,1.227,1.227,0,1,0-2.245-.982Z" transform="translate(14.675 11.145)" fill="#f69322"/>
        <path id="Path_76" data-name="Path 76" d="M4.632,30.635a1.263,1.263,0,0,0-.7,1.684,1.4,1.4,0,0,0,1.684.561A1.263,1.263,0,0,0,6.175,31.2a1.122,1.122,0,0,0-1.543-.561Z" transform="translate(-4.351 9.77)" fill="#df2328"/>
        <path id="Path_77" data-name="Path 77" d="M54.23,34.731a1.263,1.263,0,1,0,1.543-.7,1.122,1.122,0,0,0-1.543.7Z" transform="translate(15.918 11.146)" fill="#f69322"/>
        <path id="Path_78" data-name="Path 78" d="M46.41,31.414a1.4,1.4,0,0,0,.7,1.543,1.122,1.122,0,0,0,1.543-.561,1.263,1.263,0,0,0-.561-1.684A1.543,1.543,0,0,0,46.41,31.414Z" transform="translate(12.795 9.833)" fill="#ba2228"/>
        <path id="Path_79" data-name="Path 79" d="M30.016-.088a1.122,1.122,0,0,0-1.4.842A1.263,1.263,0,0,0,29.455,2.3,1.4,1.4,0,0,0,31,1.315a1.263,1.263,0,0,0-.982-1.4Z" transform="translate(5.619 -2.578)" fill="#df2328"/>
        <path id="Path_80" data-name="Path 80" d="M35.464.078a1.122,1.122,0,0,0,0-.932,1.122,1.122,0,0,0-.7-.612,1.122,1.122,0,0,0-.894-.055,1.122,1.122,0,0,0-.65.616,1.4,1.4,0,0,0,.7,1.684,1.4,1.4,0,0,0,1.543-.7Z" transform="translate(7.466 -3.165)" fill="#df2328"/>
        <path id="Path_81" data-name="Path 81" d="M14.329-.028a1.122,1.122,0,0,0,.612.7,1.122,1.122,0,0,0,.932,0,1.122,1.122,0,0,0,.7-.612,1.122,1.122,0,0,0,0-.932,1.122,1.122,0,0,0-.612-.7,1.122,1.122,0,0,0-.932,0,1.122,1.122,0,0,0-.7.612,1.122,1.122,0,0,0,0,.932Z" transform="translate(-0.159 -3.199)" fill="#df2328"/>
        <path id="Path_82" data-name="Path 82" d="M18.811,1.354a1.4,1.4,0,0,0,1.543.842A1.122,1.122,0,0,0,21.2.793a1.122,1.122,0,0,0-1.4-.982,1.263,1.263,0,0,0-.982,1.543Z" transform="translate(1.672 -2.616)" fill="#df2328"/>
        <path id="Path_83" data-name="Path 83" d="M20.411,3.8a1.122,1.122,0,0,0,1.4.982,1.263,1.263,0,0,0,.982-1.4A1.122,1.122,0,0,0,21.673,2.4h-.281a1.122,1.122,0,0,0-.982,1.4Z" transform="translate(2.317 -1.558)" fill="#df2328"/>
        <path id="Path_84" data-name="Path 84" d="M23.706,3.363a1.193,1.193,0,0,0,2.385,0A1.122,1.122,0,0,0,25.109,2.1h-.14C24.127,2.1,23.566,2.661,23.706,3.363Z" transform="translate(3.651 -1.679)" fill="#df2328"/>
        <path id="Path_85" data-name="Path 85" d="M40.657,1.876a1.122,1.122,0,0,0-1.684.281,1.263,1.263,0,0,0,.14,1.684,1.4,1.4,0,0,0,1.824-.281,1.122,1.122,0,0,0-.281-1.684Z" transform="translate(9.708 -1.876)" fill="#df2328"/>
        <path id="Path_86" data-name="Path 86" d="M39.262,4.374a1.263,1.263,0,0,0-1.684.14,1.4,1.4,0,0,0,.14,1.824A1.263,1.263,0,0,0,39.4,6.057a1.122,1.122,0,0,0-.14-1.684Z" transform="translate(9.14 -0.867)" fill="#df2328"/>
        <path id="Path_87" data-name="Path 87" d="M37.81.047a1.263,1.263,0,0,0-1.684.421,1.4,1.4,0,0,0,.561,1.684,1.122,1.122,0,0,0,1.543-.561A.982.982,0,0,0,37.81.047Z" transform="translate(8.628 -2.572)" fill="#df2328"/>
        <path id="Path_88" data-name="Path 88" d="M11.959,6.092a1.151,1.151,0,1,0-1.4-1.824,1.122,1.122,0,0,0-.281,1.684,1.122,1.122,0,0,0,1.684.14Z" transform="translate(-1.858 -0.901)" fill="#df2328"/>
        <path id="Path_89" data-name="Path 89" d="M10.559,3.74a1.122,1.122,0,0,0,.281-1.684,1.122,1.122,0,0,0-1.684-.281,1.122,1.122,0,0,0-.281,1.684,1.122,1.122,0,0,0,1.684.281Z" transform="translate(-2.422 -1.916)" fill="#9e1f23"/>
        <path id="Path_90" data-name="Path 90" d="M7.591.959a1.122,1.122,0,0,0,1.684.281,1.263,1.263,0,0,0,.14-1.684A1.122,1.122,0,0,0,7.731-.724,1.122,1.122,0,0,0,7.591.959Z" transform="translate(-2.961 -2.923)" fill="#df2328"/>
        <path id="Path_91" data-name="Path 91" d="M47.51,28.552a1.157,1.157,0,1,0,1.4-.842,1.157,1.157,0,0,0-1.4.842Z" transform="translate(13.238 8.626)" fill="#df2328"/>
        <path id="Path_92" data-name="Path 92" d="M50.413,28.454A1.263,1.263,0,0,0,51.255,30a1.271,1.271,0,1,0-.842-1.543Z" transform="translate(14.403 8.584)" fill="#df2328"/>
        <path id="Path_93" data-name="Path 93" d="M56.112,28.682a1.122,1.122,0,0,0,.842,1.4,1.227,1.227,0,1,0,.561-2.385A1.4,1.4,0,0,0,56.112,28.682Z" transform="translate(16.701 8.636)" fill="#df2328"/>
        <path id="Path_94" data-name="Path 94" d="M55.6,29.158a1.263,1.263,0,1,0-.561.822A1.263,1.263,0,0,0,55.6,29.158Z" transform="translate(15.531 8.722)" fill="#df2328"/>
        <path id="Path_95" data-name="Path 95" d="M51.1,22.429a1.195,1.195,0,1,0,2.385,0c0-.7-.561-1.263-1.122-1.122A1.263,1.263,0,0,0,51.1,22.429Z" transform="translate(14.698 6.051)" fill="#df2328"/>
        <path id="Path_96" data-name="Path 96" d="M53.9,22.429a1.195,1.195,0,1,0,2.385,0c0-.7-.561-1.263-1.122-1.122A1.263,1.263,0,0,0,53.9,22.429Z" transform="translate(15.827 6.051)" fill="#df2328"/>
        <path id="Path_97" data-name="Path 97" d="M45.5,22.463a1.4,1.4,0,0,0,1.122,1.263A1.271,1.271,0,1,0,45.5,22.463Z" transform="translate(12.442 6.017)" fill="#df2328"/>
        <path id="Path_98" data-name="Path 98" d="M56.7,22.422a1.263,1.263,0,0,0,1.263,1.263,1.543,1.543,0,0,0,1.263-1.263A1.543,1.543,0,0,0,57.963,21.3,1.263,1.263,0,0,0,56.7,22.422Z" transform="translate(16.955 6.058)" fill="#df2328"/>
        <path id="Path_99" data-name="Path 99" d="M49.374,42.614a1.249,1.249,0,0,0,1.964,1.543,1.122,1.122,0,0,0-.281-1.684,1.263,1.263,0,0,0-1.684.14Z" transform="translate(13.899 14.486)" fill="#df2328"/>
        <path id="Path_100" data-name="Path 100" d="M4.5,22.263a1.263,1.263,0,0,0,2.525,0A1.543,1.543,0,0,0,5.763,21,1.263,1.263,0,0,0,4.5,22.263Z" transform="translate(-4.079 5.937)" fill="#df2328"/>
        <path id="Path_101" data-name="Path 101" d="M49.53,31.419a1.263,1.263,0,1,0,1.543-.7A1.263,1.263,0,0,0,49.53,31.419Z" transform="translate(14.024 9.828)" fill="#df2328"/>
        <path id="Path_102" data-name="Path 102" d="M39.886,38.216a1.263,1.263,0,0,0,1.824-.14,1.122,1.122,0,0,0-.14-1.684,1.263,1.263,0,0,0-1.684,0A1.543,1.543,0,0,0,39.886,38.216Z" transform="translate(10.059 12.009)" fill="#df2328"/>
        <path id="Path_103" data-name="Path 103" d="M48.226,34.168a1.4,1.4,0,0,0,.561,1.684,1.263,1.263,0,0,0,1.684-.561,1.122,1.122,0,0,0-.561-1.543,1.263,1.263,0,0,0-1.684.421Z" transform="translate(13.504 11.007)" fill="#ba2228"/>
        <path id="Path_104" data-name="Path 104" d="M51.415.731a1.122,1.122,0,0,0-1.684-.14,1.122,1.122,0,0,0-.14,1.684,1.263,1.263,0,0,0,1.684.14,1.122,1.122,0,0,0,.14-1.684Z" transform="translate(13.963 -2.415)" fill="#df2328"/>
        <path id="Path_105" data-name="Path 105" d="M47.816.812a1.263,1.263,0,0,0-1.824,0,1.263,1.263,0,0,0,0,1.684,1.263,1.263,0,0,0,1.684,0,1.122,1.122,0,0,0,.14-1.684Z" transform="translate(12.511 -2.355)" fill="#df2328"/>
        <path id="Path_106" data-name="Path 106" d="M53.44,3.456a1.4,1.4,0,0,0-1.684-.421,1.122,1.122,0,0,0-.281,1.684,1.122,1.122,0,0,0,1.543.421,1.122,1.122,0,0,0,.421-1.684Z" transform="translate(14.744 -1.352)" fill="#df2328"/>
        <path id="Path_107" data-name="Path 107" d="M46.938,4.034a1.249,1.249,0,0,0-1.964,1.543,1.263,1.263,0,0,0,1.684.14,1.122,1.122,0,0,0,.281-1.684Z" transform="translate(12.126 -1.087)" fill="#df2328"/>
        <path id="Path_108" data-name="Path 108" d="M45.3,14.813A1.263,1.263,0,0,0,46,17.2a1.122,1.122,0,0,0,.842-1.543A1.263,1.263,0,0,0,45.3,14.813Z" transform="translate(12.08 3.425)" fill="#df2328"/>
        <path id="Path_109" data-name="Path 109" d="M57.585,18a1.279,1.279,0,0,0,.281,2.525,1.4,1.4,0,0,0,1.122-1.4A1.263,1.263,0,0,0,57.585,18Z" transform="translate(16.911 4.725)" fill="#f69322"/>
        <path id="Path_110" data-name="Path 110" d="M53.8,19.265a1.2,1.2,0,1,0,2.385-.14A1.263,1.263,0,0,0,54.785,18a1.122,1.122,0,0,0-.982,1.263Z" transform="translate(15.784 4.725)" fill="#f69322"/>
        <path id="Path_111" data-name="Path 111" d="M4.921,18.81c-.281.7.281,1.263.982,1.4a1.4,1.4,0,0,0,1.4-.982,1.4,1.4,0,0,0-.982-1.4.982.982,0,0,0-1.4.982Z" transform="translate(-3.939 4.619)" fill="#df2328"/>
        <path id="Path_112" data-name="Path 112" d="M40.7,10.584a1.122,1.122,0,0,0-.281-1.122L39.576,8.9a1.543,1.543,0,0,0-.982.421,1.4,1.4,0,0,0-.281,1.263l.281.421a1.122,1.122,0,0,0,.982.421l.7-.281Z" transform="translate(9.527 1.061)" fill="#df2328"/>
        <path id="Path_113" data-name="Path 113" d="M45.126,10.719a1.4,1.4,0,0,0,1.684.421,1.263,1.263,0,0,0,.561-1.684,1.292,1.292,0,0,0-2.245,1.263Z" transform="translate(12.254 1.066)" fill="#df2328"/>
        <path id="Path_114" data-name="Path 114" d="M46.719,36.855a1.263,1.263,0,0,0,1.964,1.4,1.122,1.122,0,0,0-.421-1.684.982.982,0,0,0-1.543.281Z" transform="translate(12.907 12.108)" fill="#df2328"/>
        <path id="Path_115" data-name="Path 115" d="M7.378,43.514a1.4,1.4,0,0,0,.14,1.824,1.263,1.263,0,0,0,1.824-.281c.281-.561.281-1.4-.281-1.684a1.263,1.263,0,0,0-1.684.14Z" transform="translate(-3.029 14.849)" fill="#df2328"/>
        <path id="Path_116" data-name="Path 116" d="M11.855,44.809a1.263,1.263,0,0,0,1.684-.561,1.122,1.122,0,0,0-.421-1.543,1.263,1.263,0,1,0-1.263,2.1Z" transform="translate(-1.473 14.536)" fill="#df2328"/>
        <path id="Path_117" data-name="Path 117" d="M14.14,38.187c0,.14,0,.14-.14.281v.421a1.122,1.122,0,0,0,.561.982h.281c.14,0,.281.14.561,0a.842.842,0,0,0,.842-.561,1.263,1.263,0,0,0-.421-1.684,1.4,1.4,0,0,0-1.684.561Z" transform="translate(-0.251 12.599)" fill="#df2328"/>
        <path id="Path_118" data-name="Path 118" d="M33.874,42.331a1.2,1.2,0,1,0-2.245.842,1.263,1.263,0,0,0,2.245-.842Z" transform="translate(6.812 14.208)" fill="#df2328"/>
        <path id="Path_119" data-name="Path 119" d="M43.115,38.992a1.263,1.263,0,0,0-1.684,0,1.122,1.122,0,0,0-.14,1.684,1.241,1.241,0,0,0,1.824-1.684Z" transform="translate(10.618 13.057)" fill="#df2328"/>
        <path id="Path_120" data-name="Path 120" d="M44.449,41.551a1.17,1.17,0,1,0,0,1.684A1.263,1.263,0,0,0,44.449,41.551Z" transform="translate(11.248 14.146)" fill="#df2328"/>
        <path id="Path_121" data-name="Path 121" d="M39.056,40.959a1.248,1.248,0,1,0,1.684.281A1.263,1.263,0,0,0,39.056,40.959Z" transform="translate(9.626 13.897)" fill="#df2328"/>
        <path id="Path_122" data-name="Path 122" d="M4.468,33.968a1.263,1.263,0,0,0-1.684-.421,1.122,1.122,0,0,0-.421,1.684,1.263,1.263,0,0,0,1.684.421,1.4,1.4,0,0,0,.421-1.684Z" transform="translate(-5.029 10.927)" fill="#df2328"/>
        <path id="Path_123" data-name="Path 123" d="M7.791,37.993a1.241,1.241,0,0,0,1.824-1.684,1.122,1.122,0,0,0-1.684,0,1.122,1.122,0,0,0-.14,1.684Z" transform="translate(-2.88 11.952)" fill="#df2328"/>
        <path id="Path_124" data-name="Path 124" d="M48.061,14.18a1.263,1.263,0,0,0,.7-1.684,1.122,1.122,0,0,0-1.543-.561,1.263,1.263,0,0,0-.7,1.543,1.4,1.4,0,0,0,1.543.7Z" transform="translate(12.828 2.235)" fill="#ba2228"/>
        <path id="Path_125" data-name="Path 125" d="M52.947,37.5a1.2,1.2,0,1,0,2.1,1.122,1.4,1.4,0,0,0-.561-1.684,1.122,1.122,0,0,0-1.543.561Z" transform="translate(15.377 12.308)" fill="#ba2228"/>
        <path id="Path_126" data-name="Path 126" d="M55.316,31.755a1.263,1.263,0,1,0,1.543-.842A1.263,1.263,0,0,0,55.316,31.755Z" transform="translate(16.374 9.913)" fill="#ba2228"/>
        <path id="Path_127" data-name="Path 127" d="M52.313,31.719a1.268,1.268,0,1,0,1.543-.7,1.263,1.263,0,0,0-1.543.7Z" transform="translate(15.169 9.949)" fill="#ba2228"/>
        <path id="Path_128" data-name="Path 128" d="M51.921,8.635a1.4,1.4,0,0,0-.7,1.684A1.263,1.263,0,0,0,53.464,9.2a1.122,1.122,0,0,0-1.543-.561Z" transform="translate(14.719 0.905)" fill="#ba2228"/>
        <path id="Path_129" data-name="Path 129" d="M55.031,8.735a1.122,1.122,0,0,0-.7,1.543,1.4,1.4,0,0,0,1.543.7,1.263,1.263,0,0,0,.7-1.684,1.122,1.122,0,0,0-1.543-.561Z" transform="translate(15.959 0.945)" fill="#ba2228"/>
        <path id="Path_130" data-name="Path 130" d="M53.465,5.917a1.122,1.122,0,0,0-.421,1.543,1.122,1.122,0,0,0,1.543.561,1.263,1.263,0,1,0-1.122-2.1Z" transform="translate(15.42 -0.305)" fill="#ba2228"/>
        <path id="Path_131" data-name="Path 131" d="M48.111,25.485a1.122,1.122,0,0,0,.982,1.4,1.263,1.263,0,0,0,1.4-1.122,1.2,1.2,0,0,0-2.385-.281Z" transform="translate(13.479 7.344)" fill="#ba2228"/>
        <path id="Path_132" data-name="Path 132" d="M56.612,25.625a.982.982,0,0,0,.982,1.263,1.122,1.122,0,0,0,1.4-.982,1.4,1.4,0,0,0-1.122-1.4,1.122,1.122,0,0,0-1.263,1.122Z" transform="translate(16.903 7.344)" fill="#ba2228"/>
        <path id="Path_133" data-name="Path 133" d="M56.087,25.905a1.2,1.2,0,1,0-1.263,1.122,1.263,1.263,0,0,0,1.263-1.122Z" transform="translate(15.744 7.345)" fill="#ba2228"/>
        <path id="Path_134" data-name="Path 134" d="M48.3,22.463a1.4,1.4,0,0,0,1.122,1.263,1.263,1.263,0,1,0,0-2.525A1.4,1.4,0,0,0,48.3,22.463Z" transform="translate(13.57 6.017)" fill="#ba2228"/>
        <path id="Path_135" data-name="Path 135" d="M50.9,25.485a1.2,1.2,0,1,0,2.385.281.982.982,0,0,0-.982-1.263A1.263,1.263,0,0,0,50.9,25.485Z" transform="translate(14.615 7.344)" fill="#ba2228"/>
        <path id="Path_136" data-name="Path 136" d="M51.259,40.156a1.269,1.269,0,1,0,1.684-.281,1.122,1.122,0,0,0-1.684.281Z" transform="translate(14.68 13.437)" fill="#ba2228"/>
        <path id="Path_137" data-name="Path 137" d="M47.876,40.065a1.122,1.122,0,0,0,.281,1.684,1.263,1.263,0,1,0-.281-1.684Z" transform="translate(13.293 13.388)" fill="#ba2228"/>
        <path id="Path_138" data-name="Path 138" d="M47.5,16.316a1.226,1.226,0,1,0,.842-1.4A1.263,1.263,0,0,0,47.5,16.316Z" transform="translate(13.243 3.465)" fill="#ba2228"/>
        <path id="Path_139" data-name="Path 139" d="M52.8,15.867a1.225,1.225,0,1,0-2.385.561,1.263,1.263,0,0,0,1.4.842,1.122,1.122,0,0,0,.982-1.4Z" transform="translate(14.404 3.493)" fill="#ba2228"/>
        <path id="Path_140" data-name="Path 140" d="M57.2,14.811a1.263,1.263,0,1,0,.421,2.385,1.122,1.122,0,0,0,.982-1.4,1.122,1.122,0,0,0-1.4-.982Z" transform="translate(16.592 3.428)" fill="#ba2228"/>
        <path id="Path_141" data-name="Path 141" d="M53.425,19.093a1.122,1.122,0,0,0-1.4-.982A1.263,1.263,0,0,0,50.9,19.373,1.4,1.4,0,0,0,52.3,20.5a1.543,1.543,0,0,0,1.122-1.4Z" transform="translate(14.618 4.757)" fill="#ba2228"/>
        <path id="Path_142" data-name="Path 142" d="M48.1,19.405a1.263,1.263,0,0,0,1.4.982.982.982,0,0,0,.982-1.263A1.263,1.263,0,0,0,49.082,18,1.4,1.4,0,0,0,48.1,19.405Z" transform="translate(13.489 4.725)" fill="#ba2228"/>
        <path id="Path_143" data-name="Path 143" d="M46.293,18a1.2,1.2,0,0,0,.281,2.385A1.2,1.2,0,1,0,46.293,18Z" transform="translate(12.351 4.724)" fill="#ba2228"/>
        <path id="Path_144" data-name="Path 144" d="M50.571,9.587a1.4,1.4,0,0,0-1.684-.561,1.4,1.4,0,0,0-.561,1.684,1.4,1.4,0,0,0,1.684.561,1.4,1.4,0,0,0,.561-1.684Z" transform="translate(13.544 1.075)" fill="#ba2228"/>
        <path id="Path_145" data-name="Path 145" d="M53.211,16.215a1.4,1.4,0,0,0,1.543.982,1.263,1.263,0,0,0,.842-1.543,1.225,1.225,0,0,0-2.385.561Z" transform="translate(15.534 3.426)" fill="#ba2228"/>
        <path id="Path_146" data-name="Path 146" d="M51.895,12.621a1.265,1.265,0,0,0-2.385.842,1.268,1.268,0,0,0,2.385-.842Z" transform="translate(14.044 2.25)" fill="#ba2228"/>
        <path id="Path_147" data-name="Path 147" d="M40.35,13.524a1.263,1.263,0,0,0,1.684.421c.14,0,.14-.14.281-.281a1.17,1.17,0,0,0-.842-1.964h-.7a1.4,1.4,0,0,0-.421,1.824Z" transform="translate(10.296 2.189)" fill="#ba2228"/>
        <path id="Path_148" data-name="Path 148" d="M15.629,42.211a1.2,1.2,0,1,0,2.245.842,1.263,1.263,0,0,0-.7-1.543A1.4,1.4,0,0,0,15.629,42.211Z" transform="translate(0.364 14.187)" fill="#ba2228"/>
        <path id="Path_149" data-name="Path 149" d="M25.1,44.3a1.543,1.543,0,0,0,1.4,1.122,1.4,1.4,0,0,0,1.122-1.4A1.543,1.543,0,0,0,26.363,42.9,1.543,1.543,0,0,0,25.1,44.3Z" transform="translate(4.222 14.761)" fill="#ba2228"/>
        <path id="Path_150" data-name="Path 150" d="M24.763,42.545a1.263,1.263,0,0,0,1.263-1.263h0a1.4,1.4,0,0,0-1.263-.982,1.13,1.13,0,1,0,0,2.245Z" transform="translate(3.577 13.714)" fill="#ba2228"/>
        <path id="Path_151" data-name="Path 151" d="M19.391,40.674a1.122,1.122,0,0,0-.7-1.543,1.263,1.263,0,0,0-1.684.7,1.4,1.4,0,0,0,.842,1.543,1.122,1.122,0,0,0,1.543-.7Z" transform="translate(0.951 13.2)" fill="#ba2228"/>
        <path id="Path_152" data-name="Path 152" d="M21.3,42.323a1.263,1.263,0,0,0,1.543-.982,1.4,1.4,0,0,0-1.122-1.4,1.263,1.263,0,1,0-.421,2.385Z" transform="translate(2.126 13.514)" fill="#ba2228"/>
        <path id="Path_153" data-name="Path 153" d="M40.235,31.421a1.4,1.4,0,0,0,.421,1.684h.7c.421,0,.7-.281.982-.7A1.122,1.122,0,0,0,42.2,31l-.281-.281A1.4,1.4,0,0,0,40.235,31.421Z" transform="translate(10.271 9.826)" fill="#ba2228"/>
        <path id="Path_154" data-name="Path 154" d="M43.435,31.507A1.122,1.122,0,0,0,44,33.05a.982.982,0,0,0,1.543-.421,1.263,1.263,0,1,0-2.1-1.122Z" transform="translate(11.56 9.74)" fill="#ba2228"/>
        <path id="Path_155" data-name="Path 155" d="M45.2,25.485a1.4,1.4,0,0,0,.982,1.4,1.211,1.211,0,1,0-.982-1.4Z" transform="translate(12.321 7.344)" fill="#ba2228"/>
        <path id="Path_156" data-name="Path 156" d="M44.8,25.863h0a1.263,1.263,0,0,0-.982-1.263h-.281a1.274,1.274,0,0,0-.842,2.1l.7.421h.14A1.263,1.263,0,0,0,44.8,25.863Z" transform="translate(11.179 7.387)" fill="#ba2228"/>
        <path id="Path_157" data-name="Path 157" d="M44.538,28.555a1.243,1.243,0,1,0,1.543-.842A1.263,1.263,0,0,0,44.538,28.555Z" transform="translate(12.001 8.623)" fill="#ba2228"/>
        <path id="Path_158" data-name="Path 158" d="M43.879,29.343a1.122,1.122,0,0,0-.7-1.543h-.561a1.543,1.543,0,0,0-.982.842.982.982,0,0,0,.281,1.263.281.281,0,0,0,.281.281h.561a1.263,1.263,0,0,0,1.122-.842Z" transform="translate(10.836 8.677)" fill="#ba2228"/>
        <path id="Path_159" data-name="Path 159" d="M42.7,22.1v.281a1.263,1.263,0,0,0,1.122,1.263h.561a1.263,1.263,0,0,0,0-2.245h-.561A1.122,1.122,0,0,0,42.7,22.1Z" transform="translate(11.314 6.097)" fill="#ba2228"/>
        <path id="Path_160" data-name="Path 160" d="M45.937,44.076a1.191,1.191,0,1,0,1.684-1.684,1.263,1.263,0,0,0-1.684,0,.982.982,0,0,0,0,1.684Z" transform="translate(12.426 14.427)" fill="#ba2228"/>
        <path id="Path_161" data-name="Path 161" d="M45.031,41.027a1.263,1.263,0,1,0-.14-1.684,1.122,1.122,0,0,0,.14,1.684Z" transform="translate(12.069 13.127)" fill="#ba2228"/>
        <path id="Path_162" data-name="Path 162" d="M41.819,34.148a1.263,1.263,0,1,0,1.194-.863,1.263,1.263,0,0,0-1.194.863Z" transform="translate(10.932 10.887)" fill="#f69322"/>
        <path id="Path_163" data-name="Path 163" d="M47.251,35.427a1.227,1.227,0,0,0-2.1-1.263,1.263,1.263,0,0,0,.421,1.684A1.4,1.4,0,0,0,47.251,35.427Z" transform="translate(12.234 11.01)" fill="#ba2228"/>
        <path id="Path_164" data-name="Path 164" d="M38.481,33.961a.281.281,0,0,0-.281.281V34.8a1.964,1.964,0,0,0,.281.842,1.263,1.263,0,0,0,1.4.14L40.3,35.5a1.263,1.263,0,0,0-.14-1.824l-.7-.281h-.7Z" transform="translate(9.5 10.933)" fill="#ba2228"/>
        <path id="Path_165" data-name="Path 165" d="M43.319,36.848a1.263,1.263,0,1,0,1.194-.863A1.263,1.263,0,0,0,43.319,36.848Z" transform="translate(11.537 11.975)" fill="#ba2228"/>
        <path id="Path_166" data-name="Path 166" d="M36.088,36.231a1.3,1.3,0,1,0,.14-.14Z" transform="translate(8.526 11.89)" fill="#ba2228"/>
        <path id="Path_167" data-name="Path 167" d="M45.383,6.674a1.263,1.263,0,0,0-1.964,1.4,1.122,1.122,0,0,0,1.684.281,1.122,1.122,0,0,0,.281-1.684Z" transform="translate(11.577 0.06)" fill="#ba2228"/>
        <path id="Path_168" data-name="Path 168" d="M42.821,18.321a1.263,1.263,0,0,0-.421.982,1.543,1.543,0,0,0,1.122,1.122H43.8a1.4,1.4,0,0,0,.982-1.263v-.281a1.122,1.122,0,0,0-1.122-.982h-.281C43.1,17.9,42.961,18.04,42.821,18.321Z" transform="translate(11.193 4.687)" fill="#ba2228"/>
        <path id="Path_169" data-name="Path 169" d="M41.62,16.409a1.263,1.263,0,0,0,1.543.7,1.122,1.122,0,0,0,.7-1.543,1.122,1.122,0,0,0-1.543-.842A1.4,1.4,0,0,0,41.62,16.409Z" transform="translate(10.851 3.373)" fill="#ba2228"/>
        <path id="Path_170" data-name="Path 170" d="M30.8,43.347a1.263,1.263,0,0,0-1.4-.842,1.122,1.122,0,0,0-.982,1.4,1.225,1.225,0,1,0,2.385-.561Z" transform="translate(5.541 14.595)" fill="#ba2228"/>
        <path id="Path_171" data-name="Path 171" d="M12.747,40.508a1.263,1.263,0,0,0,.421,1.684,1.122,1.122,0,0,0,1.684-.421,1.263,1.263,0,0,0-2.1-1.263Z" transform="translate(-0.822 13.646)" fill="#ba2228"/>
        <path id="Path_172" data-name="Path 172" d="M35.325,44.849a1.172,1.172,0,1,0-.561,1.543,1.122,1.122,0,0,0,.561-1.543Z" transform="translate(7.325 15.057)" fill="#ba2228"/>
        <path id="Path_173" data-name="Path 173" d="M29.325,40.882A1.283,1.283,0,0,0,26.8,41.3a1.263,1.263,0,0,0,1.543.982,1.122,1.122,0,0,0,.982-1.4Z" transform="translate(4.907 13.552)" fill="#ba2228"/>
        <path id="Path_174" data-name="Path 174" d="M32.5,39.814a1.543,1.543,0,0,0-1.684-.7,1.268,1.268,0,0,0,.842,2.385A1.4,1.4,0,0,0,32.5,39.814Z" transform="translate(6.219 13.218)" fill="#ba2228"/>
        <path id="Path_175" data-name="Path 175" d="M37.639,38.677a1.263,1.263,0,1,0,1.378-.58,1.263,1.263,0,0,0-1.378.58Z" transform="translate(9.079 12.812)" fill="#ba2228"/>
        <path id="Path_176" data-name="Path 176" d="M34.791,37.714a1.543,1.543,0,0,0-1.122.14.982.982,0,0,0-.561,1.122.842.842,0,0,0,.14.561,1.122,1.122,0,0,0,1.684.421l.421-.281a1.263,1.263,0,0,0,0-1.4,1.122,1.122,0,0,0-.561-.561Z" transform="translate(7.438 12.652)" fill="#ba2228"/>
        <path id="Path_177" data-name="Path 177" d="M42.167,43.765a1.263,1.263,0,1,0-.281,1.684,1.122,1.122,0,0,0,.281-1.684Z" transform="translate(10.163 14.878)" fill="#ba2228"/>
        <path id="Path_178" data-name="Path 178" d="M36.465,42.747a1.227,1.227,0,1,0,1.263,2.1,1.4,1.4,0,0,0,.421-1.684A1.263,1.263,0,0,0,36.465,42.747Z" transform="translate(8.57 14.634)" fill="#ba2228"/>
        <path id="Path_179" data-name="Path 179" d="M35.056,40.235a1.4,1.4,0,0,0-.421,1.684,1.122,1.122,0,0,0,1.684.421,1.263,1.263,0,0,0,.421-1.684,1.4,1.4,0,0,0-1.684-.421Z" transform="translate(8.014 13.638)" fill="#ba2228"/>
        <path id="Path_180" data-name="Path 180" d="M2.2,16.257a1.263,1.263,0,0,0-.842-1.543,1.263,1.263,0,0,0-1.543.842A1.263,1.263,0,0,0,.655,17.1,1.263,1.263,0,0,0,2.2,16.257Z" transform="translate(-5.986 3.385)" fill="#ba2228"/>
        <path id="Path_181" data-name="Path 181" d="M9.345,13.449a1.122,1.122,0,0,0-.281-1.684,1.263,1.263,0,0,0-1.824.421v.281a.561.561,0,0,0-.14.421,1.122,1.122,0,0,0,.7.982,1.122,1.122,0,0,0,1.543-.421Z" transform="translate(-3.032 2.124)" fill="#f69322"/>
        <path id="Path_182" data-name="Path 182" d="M1.285,22.225C1.425,21.664.864,21.1.163,21.1A1.122,1.122,0,0,0-1.1,22.225,1.263,1.263,0,0,0,.163,23.488a1.122,1.122,0,0,0,1.122-1.263Z" transform="translate(-6.336 5.974)" fill="#ba2228"/>
        <path id="Path_183" data-name="Path 183" d="M1.6,19.2A1.543,1.543,0,0,0,.473,17.8,1.263,1.263,0,0,0-.789,18.922a1.122,1.122,0,0,0,.982,1.4A1.4,1.4,0,0,0,1.6,19.2Z" transform="translate(-6.225 4.647)" fill="#ba2228"/>
        <path id="Path_184" data-name="Path 184" d="M4.557,3.691a1.122,1.122,0,0,0-1.684.14,1.263,1.263,0,0,0,.14,1.684A1.122,1.122,0,0,0,4.7,5.374a1.122,1.122,0,0,0-.14-1.684Z" transform="translate(-4.838 -1.165)" fill="#ba2228"/>
        <path id="Path_185" data-name="Path 185" d="M1.74,4.661A1.263,1.263,0,0,0,1.6,2.978a1.263,1.263,0,0,0-1.824.281A1.122,1.122,0,0,0,.056,4.942,1.122,1.122,0,0,0,1.74,4.661Z" transform="translate(-6.089 -1.434)" fill="#ba2228"/>
        <path id="Path_186" data-name="Path 186" d="M3.175,13.278a1.122,1.122,0,0,0-.7-1.543A1.122,1.122,0,0,0,.93,12.3a1.263,1.263,0,0,0,.7,1.684A1.4,1.4,0,0,0,3.175,13.278Z" transform="translate(-5.56 2.154)" fill="#ba2228"/>
        <path id="Path_187" data-name="Path 187" d="M6.39,13.36a1.122,1.122,0,0,0-.561-1.543,1.263,1.263,0,1,0-1.122,2.1A1.263,1.263,0,0,0,6.39,13.36Z" transform="translate(-4.426 2.073)" fill="#ba2228"/>
        <path id="Path_188" data-name="Path 188" d="M6.215,8.1a1.543,1.543,0,0,0-.14-1.824,1.122,1.122,0,0,0-1.684.281,1.122,1.122,0,0,0,.14,1.684A1.263,1.263,0,0,0,6.215,8.1Z" transform="translate(-4.25 -0.103)" fill="#ba2228"/>
        <path id="Path_189" data-name="Path 189" d="M2.464,9.384a.982.982,0,0,0,.421,1.543,1.122,1.122,0,0,0,1.684-.421,1.122,1.122,0,0,0-.421-1.543,1.122,1.122,0,0,0-1.684.421Z" transform="translate(-4.989 0.997)" fill="#ba2228"/>
        <path id="Path_190" data-name="Path 190" d="M13.638,6.888h-.281a1.122,1.122,0,0,0-1.543,0,1.263,1.263,0,0,0-.14,1.684,1.263,1.263,0,0,0,1.684,0,1.122,1.122,0,0,0,.281-1.684Z" transform="translate(-1.292 0.126)" fill="#ba2228"/>
        <path id="Path_191" data-name="Path 191" d="M1.359,10.519A1.263,1.263,0,0,0,.8,8.835,1.122,1.122,0,0,0-.746,9.4,1.122,1.122,0,0,0-.184,11.08a1.122,1.122,0,0,0,1.543-.561Z" transform="translate(-6.269 0.985)" fill="#ba2228"/>
        <path id="Path_192" data-name="Path 192" d="M2.011,25.7a1.122,1.122,0,0,0,1.4.982c.561,0,.982-.7.982-1.263a1.4,1.4,0,0,0-1.4-1.122,1.122,1.122,0,0,0-.982,1.4Z" transform="translate(-5.097 7.266)" fill="#ba2228"/>
        <path id="Path_193" data-name="Path 193" d="M.669,27.512a.982.982,0,0,0-.842,1.4.982.982,0,0,0,1.4.842.982.982,0,0,0,.842-1.4,1.122,1.122,0,0,0-1.4-.842Z" transform="translate(-6 8.544)" fill="#ba2228"/>
        <path id="Path_194" data-name="Path 194" d="M-.9,25.574A1.263,1.263,0,0,0,.505,26.7a1.122,1.122,0,0,0,.982-1.4.982.982,0,0,0-1.263-.982A1.122,1.122,0,0,0-.9,25.574Z" transform="translate(-6.258 7.255)" fill="#ba2228"/>
        <path id="Path_195" data-name="Path 195" d="M1.531,30.635a1.122,1.122,0,0,0-.7,1.543,1.263,1.263,0,0,0,1.684.561A1.122,1.122,0,0,0,3.074,31.2a1.122,1.122,0,0,0-1.543-.561Z" transform="translate(-5.599 9.77)" fill="#ba2228"/>
        <path id="Path_196" data-name="Path 196" d="M9.368,31.163A1.4,1.4,0,0,0,8.105,30.6H7.684a1.122,1.122,0,0,0-.421,1.684,1.122,1.122,0,0,0,1.684.421,1.263,1.263,0,0,0,.421-1.543Z" transform="translate(-3.055 9.803)" fill="#f69322"/>
        <path id="Path_197" data-name="Path 197" d="M32.6,5.012a1.29,1.29,0,0,0-2.385-.982,1.263,1.263,0,0,0,.842,1.543A1.122,1.122,0,0,0,32.6,5.012Z" transform="translate(6.263 -1.224)" fill="#ba2228"/>
        <path id="Path_198" data-name="Path 198" d="M34.095,2.474a1.265,1.265,0,0,0-2.385-.842,1.4,1.4,0,0,0,.7,1.543,1.263,1.263,0,0,0,1.684-.7Z" transform="translate(6.871 -2.193)" fill="#ba2228"/>
        <path id="Path_199" data-name="Path 199" d="M28.4,2.411a1.122,1.122,0,0,0-1.4.982v.281A1.122,1.122,0,0,0,27.982,4.8h.281a1.4,1.4,0,0,0,1.122-.7V3.814a1.263,1.263,0,0,0-.982-1.4Z" transform="translate(4.987 -1.569)" fill="#ba2228"/>
        <path id="Path_200" data-name="Path 200" d="M25.3.533A1.4,1.4,0,0,0,26.423,1.8a1.4,1.4,0,0,0,1.4-1.122A1.122,1.122,0,0,0,26.7-.59,1.122,1.122,0,0,0,25.3.533Z" transform="translate(4.302 -2.777)" fill="#ba2228"/>
        <path id="Path_201" data-name="Path 201" d="M22.1.665a1.122,1.122,0,0,0,1.263,1.122A1.543,1.543,0,0,0,24.488.525,1.122,1.122,0,0,0,23.225-.6,1.122,1.122,0,0,0,22.1.665Z" transform="translate(3.01 -2.77)" fill="#ba2228"/>
        <path id="Path_202" data-name="Path 202" d="M15.712,2.5a1.263,1.263,0,0,0,1.684.561,1.263,1.263,0,0,0,.7-1.543,1.4,1.4,0,0,0-1.684-.7A1.543,1.543,0,0,0,15.712,2.5Z" transform="translate(0.421 -2.223)" fill="#ba2228"/>
        <path id="Path_203" data-name="Path 203" d="M17.229,4.874a1.268,1.268,0,0,0,2.385-.842,1.263,1.263,0,0,0-1.684-.7,1.122,1.122,0,0,0-.7,1.543Z" transform="translate(1.009 -1.226)" fill="#ba2228"/>
        <path id="Path_204" data-name="Path 204" d="M50.155,5.864a.982.982,0,0,0-.281,1.543,1.138,1.138,0,1,0,1.964-1.122,1.122,1.122,0,0,0-1.684-.421Z" transform="translate(14.1 -0.252)" fill="#ba2228"/>
        <path id="Path_205" data-name="Path 205" d="M36.832,4.147a1.122,1.122,0,0,0-.421-1.684,1.122,1.122,0,0,0-1.684.421,1.543,1.543,0,0,0,.421,1.684,1.263,1.263,0,0,0,1.684-.421Z" transform="translate(8.063 -1.622)" fill="#ba2228"/>
        <path id="Path_206" data-name="Path 206" d="M43.176,4.092a1.263,1.263,0,0,0-1.684,0,1.263,1.263,0,0,0,0,1.684,1.122,1.122,0,0,0,1.684.14,1.263,1.263,0,0,0,0-1.824Z" transform="translate(10.697 -1.006)" fill="#f69322"/>
        <path id="Path_207" data-name="Path 207" d="M44.576,1.609a1.122,1.122,0,0,0-1.684,0,1.263,1.263,0,0,0,0,1.684,1.122,1.122,0,0,0,1.684,0,1.122,1.122,0,0,0,0-1.684Z" transform="translate(11.262 -2.03)" fill="#ba2228"/>
        <path id="Path_208" data-name="Path 208" d="M42.34,1.157a1.122,1.122,0,0,0-.281-1.684,1.263,1.263,0,0,0-1.684.14A1.122,1.122,0,0,0,40.656,1.3a1.263,1.263,0,0,0,1.684-.14Z" transform="translate(10.271 -2.841)" fill="#ba2228"/>
        <path id="Path_209" data-name="Path 209" d="M35.447,6.547a1.122,1.122,0,0,0-.421-1.684,1.122,1.122,0,0,0-1.684.421,1.263,1.263,0,0,0,.281,1.543h.14A1.263,1.263,0,0,0,35.447,6.547Z" transform="translate(7.483 -0.655)" fill="#ba2228"/>
        <path id="Path_210" data-name="Path 210" d="M6.637,5.693a1.263,1.263,0,0,0,1.684,0,1.263,1.263,0,0,0,0-1.684,1.122,1.122,0,0,0-1.684,0,.982.982,0,0,0,0,1.684Z" transform="translate(-3.41 -1.063)" fill="#ba2228"/>
        <path id="Path_211" data-name="Path 211" d="M14.507,4.468a1.4,1.4,0,0,0,.561-1.684,1.122,1.122,0,0,0-1.684-.421,1.122,1.122,0,0,0-.421,1.684,1.122,1.122,0,0,0,1.543.421Z" transform="translate(-0.758 -1.662)" fill="#ba2228"/>
        <path id="Path_212" data-name="Path 212" d="M5.212,3.215a1.263,1.263,0,0,0,1.684,0,1.263,1.263,0,0,0,0-1.684,1.122,1.122,0,0,0-1.684-.14,1.263,1.263,0,0,0,0,1.824Z" transform="translate(-3.949 -2.092)" fill="#ba2228"/>
        <path id="Path_213" data-name="Path 213" d="M15.921,6.842A1.122,1.122,0,0,0,16.482,5.3a1.255,1.255,0,1,0-2.245,1.122A1.4,1.4,0,0,0,15.921,6.842Z" transform="translate(-0.208 -0.669)" fill="#ba2228"/>
        <path id="Path_214" data-name="Path 214" d="M13.107,2.051A1.4,1.4,0,0,0,13.668.368a1.263,1.263,0,0,0-1.684-.421.982.982,0,0,0-.421,1.543,1.122,1.122,0,0,0,1.543.561Z" transform="translate(-1.322 -2.612)" fill="#ba2228"/>
        <path id="Path_215" data-name="Path 215" d="M7.2,25.393a1.122,1.122,0,0,0-1.4-.982,1.122,1.122,0,0,0-.982,1.4,1.263,1.263,0,0,0,1.4.982,1.122,1.122,0,0,0,.982-1.4Z" transform="translate(-3.969 7.296)" fill="#ba2228"/>
        <path id="Path_216" data-name="Path 216" d="M6.985,22.225A1.122,1.122,0,0,0,5.863,21.1,1.122,1.122,0,0,0,4.6,22.225a1.263,1.263,0,0,0,1.263,1.263,1.263,1.263,0,0,0,1.122-1.263Z" transform="translate(-4.039 5.974)" fill="#ba2228"/>
        <path id="Path_217" data-name="Path 217" d="M48.84,6.656a1.122,1.122,0,0,0-1.684-.281,1.122,1.122,0,0,0-.281,1.684,1.263,1.263,0,1,0,1.964-1.4Z" transform="translate(12.89 -0.062)" fill="#ba2228"/>
        <path id="Path_218" data-name="Path 218" d="M50.038,3.458a1.263,1.263,0,0,0-1.824-.281,1.263,1.263,0,0,0-.14,1.684,1.263,1.263,0,1,0,1.964-1.4Z" transform="translate(13.375 -1.354)" fill="#ba2228"/>
        <path id="Path_219" data-name="Path 219" d="M41.815,6.709a1.122,1.122,0,0,0-1.684,0,1.122,1.122,0,0,0-.14,1.684,1.241,1.241,0,0,0,1.824-1.684Z" transform="translate(10.095 0.025)" fill="#ba2228"/>
        <path id="Path_220" data-name="Path 220" d="M37.85,6.8h-.842a.982.982,0,0,0-.842.421,1.4,1.4,0,0,0-.14,1.263l.281.421a1.263,1.263,0,0,0,1.543.14h.281A1.263,1.263,0,0,0,37.85,6.8Z" transform="translate(8.588 0.215)" fill="#f69322"/>
        <path id="Path_221" data-name="Path 221" d="M43.94,9.456a1.122,1.122,0,0,0-1.684-.281,1.122,1.122,0,0,0-.281,1.684,1.263,1.263,0,0,0,1.684.281,1.122,1.122,0,0,0,.281-1.684Z" transform="translate(10.916 1.066)" fill="#ba2228"/>
        <path id="Path_222" data-name="Path 222" d="M5.83,15.331a1.263,1.263,0,0,0,.7,1.684,1.4,1.4,0,0,0,1.543-.842,1.263,1.263,0,0,0-.7-1.543,1.122,1.122,0,0,0-1.543.7Z" transform="translate(-3.586 3.329)" fill="#ba2228"/>
        <path id="Path_223" data-name="Path 223" d="M4.992,43.055a1.263,1.263,0,0,0,1.824,0,1.263,1.263,0,0,0-1.824-1.684,1.263,1.263,0,0,0,0,1.684Z" transform="translate(-4.01 14.045)" fill="#ba2228"/>
        <path id="Path_224" data-name="Path 224" d="M6.391,40.62a1.543,1.543,0,0,0,1.824,0,1.263,1.263,0,0,0,0-1.684.982.982,0,0,0-1.684,0,1.122,1.122,0,0,0-.14,1.684Z" transform="translate(-3.444 12.972)" fill="#ba2228"/>
        <path id="Path_225" data-name="Path 225" d="M10.431,40.4a1.2,1.2,0,1,0,1.543-1.824A1.263,1.263,0,1,0,10.431,40.4Z" transform="translate(-2.013 12.771)" fill="#ba2228"/>
        <path id="Path_226" data-name="Path 226" d="M8.9,42.812a1.263,1.263,0,0,0,1.824-.281,1.543,1.543,0,0,0-.281-1.684A1.263,1.263,0,0,0,8.9,42.812Z" transform="translate(-2.446 13.867)" fill="#ba2228"/>
        <path id="Path_227" data-name="Path 227" d="M5.647,35.219c.421.561,1.263.842,1.684.421a1.4,1.4,0,0,0,.421-1.684,1.4,1.4,0,0,0-1.684-.421A1.263,1.263,0,0,0,5.647,35.219Z" transform="translate(-3.683 10.938)" fill="#ba2228"/>
        <path id="Path_228" data-name="Path 228" d="M11.156,33.714a1.263,1.263,0,0,0-1.684-.14c-.281.14-.421.561-.561.842s.14.421.14.7.14.14.14.281a1.543,1.543,0,0,0,1.824.14A1.543,1.543,0,0,0,11.156,33.714Z" transform="translate(-2.317 10.9)" fill="#ba2228"/>
        <path id="Path_229" data-name="Path 229" d="M1.937,43.876a1.122,1.122,0,0,0,1.684.14,1.543,1.543,0,0,0,0-1.824,1.263,1.263,0,0,0-1.684,0,.982.982,0,0,0,0,1.684Z" transform="translate(-5.304 14.347)" fill="#ba2228"/>
        <path id="Path_230" data-name="Path 230" d="M2.791,40.657a1.122,1.122,0,0,0,1.684.14,1.122,1.122,0,0,0,.14-1.684,1.263,1.263,0,0,0-1.684-.14,1.122,1.122,0,0,0-.14,1.684Z" transform="translate(-4.895 13.076)" fill="#ba2228"/>
        <path id="Path_231" data-name="Path 231" d="M-.322,41.4a1.263,1.263,0,0,0,1.684.14,1.122,1.122,0,0,0,.281-1.684,1.122,1.122,0,0,0-1.684-.281A1.263,1.263,0,0,0-.322,41.4Z" transform="translate(-6.131 13.316)" fill="#ba2228"/>
        <path id="Path_232" data-name="Path 232" d="M.747,38.042a1.122,1.122,0,0,0,1.684.281,1.4,1.4,0,0,0,.421-1.684,1.269,1.269,0,0,0-2.1,1.4Z" transform="translate(-5.657 12.043)" fill="#ba2228"/>
        <path id="Path_233" data-name="Path 233" d="M-.844,35.078A1.122,1.122,0,0,0,.7,35.64,1.122,1.122,0,0,0,1.26,34.1a1.122,1.122,0,0,0-1.543-.561.982.982,0,0,0-.7.62.982.982,0,0,0,.136.923Z" transform="translate(-6.311 10.938)" fill="#ba2228"/>
        <path id="Path_234" data-name="Path 234" d="M4.178,38.063a1.249,1.249,0,0,0,1.964-1.543,1.543,1.543,0,0,0-1.684-.281,1.263,1.263,0,0,0-.281,1.824Z" transform="translate(-4.318 12.023)" fill="#ba2228"/>
        <path id="Path_235" data-name="Path 235" d="M11.743,37.851c.561.421,1.4.421,1.684-.14a1.263,1.263,0,1,0-1.684.14Z" transform="translate(-1.361 11.813)" fill="#f69322"/>
        <rect id="Rectangle_41" data-name="Rectangle 41" width="9.119" height="28.368" transform="translate(23.85 19.361)" fill="#fff"/>
        <path id="Path_236" data-name="Path 236" d="M29,15.6V43.94a5.051,5.051,0,0,0,4.349-4.91V20.37A4.91,4.91,0,0,0,29,15.6" transform="translate(5.793 3.761)" fill="#fff"/>
        <path id="Path_237" data-name="Path 237" d="M21.109,15.6A4.77,4.77,0,0,0,16.9,20.37V39.029a4.91,4.91,0,0,0,4.209,4.91Z" transform="translate(0.917 3.761)" fill="#fff"/>
        <path id="Path_238" data-name="Path 238" d="M21.443,39.106H20.181a.281.281,0,0,1-.281-.281V36.581a.281.281,0,0,1,.281-.281h1.263a.281.281,0,0,1,.281.281v2.245a.281.281,0,0,1-.281.281" transform="translate(2.126 12.102)" fill="#f39124"/>
        <path id="Path_239" data-name="Path 239" d="M29.243,39.106H27.981a.281.281,0,0,1-.281-.281V36.581a.281.281,0,0,1,.281-.281h1.263a.281.281,0,0,1,.281.281v2.245a.281.281,0,0,1-.281.281" transform="translate(5.269 12.102)" fill="#f39124"/>
        <path id="Path_240" data-name="Path 240" d="M28.013,5.7H23.1a1.543,1.543,0,0,0-1.4,1.4V19.589h1.122V7.1h5.472V19.589h1.122V7.1a1.4,1.4,0,0,0-1.4-1.4" transform="translate(2.852 -0.228)" fill="#fff"/>
        <rect id="Rectangle_42" data-name="Rectangle 42" width="5.892" height="1.136" transform="translate(25.534 22.447)" fill="#f39124"/>
      </g>
      <path id="Path_241" data-name="Path 241" d="M61.043,27.891a12.627,12.627,0,0,1-.421,3.507,7.015,7.015,0,0,1-1.543,2.666,6.734,6.734,0,0,1-2.245,1.684,8.277,8.277,0,0,1-3.227.561H51.924L50.1,36.028l.281-2.525a.7.7,0,0,1,.281-.561l.7-.421h1.684l1.684-.281a2.245,2.245,0,0,0,1.122-.842,3.227,3.227,0,0,0,.7-1.4,9.82,9.82,0,0,0,.281-2.245V13.3h4.209Z" transform="translate(14.295 2.834)"/>
      <path id="Path_242" data-name="Path 242" d="M73.669,34.217H71a1.543,1.543,0,0,1-.421-.7L70.3,32.393l-1.263.982-1.263.7-1.263.421H64.971l-1.964-.281a3.367,3.367,0,0,1-1.543-.842,4.629,4.629,0,0,1-.842-1.4,3.928,3.928,0,0,1-.421-1.824,2.806,2.806,0,0,1,.561-1.824,5.612,5.612,0,0,1,1.543-1.684,9.961,9.961,0,0,1,2.946-1.122,20.9,20.9,0,0,1,4.63-.561v-.842a4.209,4.209,0,0,0-.7-2.525,2.806,2.806,0,0,0-1.964-.7H65.672l-1.122.561-.842.421-.842.281h-.7a.7.7,0,0,1-.421-.561L60.9,20.327A10.1,10.1,0,0,1,67.637,17.8a6.033,6.033,0,0,1,4.489,1.684,7.436,7.436,0,0,1,1.122,2.1,6.594,6.594,0,0,1,.421,2.385Zm-7.576-2.385h1.122l.982-.281.842-.561.842-.7V27.483l-2.806.281a4.63,4.63,0,0,0-1.824.561,1.69,1.69,0,0,0-1.263,1.684,1.684,1.684,0,0,0,.561,1.543A2.806,2.806,0,0,0,66.093,31.832Z" transform="translate(18.364 4.645)"/>
      <path id="Path_243" data-name="Path 243" d="M84.228,19.684a1.544,1.544,0,0,1-.14.7c-.14.281-.14.561-.281.7l-7.716,10.1h8v2.946H71.6V32.591a1.263,1.263,0,0,1,.14-.7c0-.281.14-.421.281-.7l7.857-10.242H72.022V18H84.228Z" transform="translate(22.957 4.728)"/>
      <path id="Path_244" data-name="Path 244" d="M94.528,19.684a1.543,1.543,0,0,1-.14.7,1.122,1.122,0,0,1-.281.7l-7.716,10.1h8v2.946H81.9V32.591a1.262,1.262,0,0,1,.14-.7c0-.281.14-.421.421-.7l7.716-10.242H82.322V18H94.528Z" transform="translate(27.108 4.728)"/>
      <path id="Path_245" data-name="Path 245" d="M109.125,27.61l.421,1.122.421-1.122.561-.982L117.262,14c0-.14.14-.281.281-.421h4.349V36.028H118.1V20.455c0-.281.14-.7.14-.982L111.37,32.38a1.684,1.684,0,0,1-.7.7,1.122,1.122,0,0,1-.842.281h-.561l-.842-.281a1.683,1.683,0,0,1-.7-.7l-6.874-12.907V36.028H97.2V13.3h4.349l.281.421,6.734,12.627a3.508,3.508,0,0,1,.561,1.263Z" transform="translate(33.274 2.834)"/>
      <path id="Path_246" data-name="Path 246" d="M124.9,17.8a11.925,11.925,0,0,1,3.227.561,8,8,0,0,1,2.525,1.684,7.3,7.3,0,0,1,1.684,2.666,12.065,12.065,0,0,1,.561,3.367,12.206,12.206,0,0,1-.561,3.507,8.7,8.7,0,0,1-1.684,2.666,8,8,0,0,1-2.525,1.684,9.961,9.961,0,0,1-6.594,0,8,8,0,0,1-2.525-1.684,8.277,8.277,0,0,1-1.543-2.666,8.7,8.7,0,0,1-.561-3.507,8.558,8.558,0,0,1,.561-3.367,7.015,7.015,0,0,1,1.543-2.666,8,8,0,0,1,2.525-1.684A12.065,12.065,0,0,1,124.9,17.8Zm0,13.749a3.788,3.788,0,0,0,2.946-1.4,6.594,6.594,0,0,0,.982-3.928,6.734,6.734,0,0,0-.982-4.069,3.943,3.943,0,0,0-6.033,0,7.856,7.856,0,0,0-.982,4.069,7.716,7.716,0,0,0,.982,3.928,3.788,3.788,0,0,0,3.086,1.4Z" transform="translate(41.21 4.647)"/>
      <path id="Path_247" data-name="Path 247" d="M140.143,21.087c0,.281-.14.421-.281.421H138.74l-.7-.421-.982-.281-1.263-.281a3.507,3.507,0,0,0-1.824.561,1.4,1.4,0,0,0-.561,1.263c0,.281,0,.7.281.842l.842.7,1.263.421,1.543.421,1.4.7,1.263.7a3.368,3.368,0,0,1,.842,1.263,2.946,2.946,0,0,1,.421,1.684,5.612,5.612,0,0,1-.421,2.1,3.788,3.788,0,0,1-1.263,1.684,5.471,5.471,0,0,1-1.964,1.122,8.979,8.979,0,0,1-2.806.421h-1.684l-1.543-.421-1.263-.7-1.122-.7.842-1.543.421-.421h.561l.7.281.842.421.982.421,1.4.281,1.263-.281a.7.7,0,0,0,.7-.421,1.122,1.122,0,0,0,.561-.561,1.543,1.543,0,0,0,.14-.7,1.964,1.964,0,0,0-.281-.982l-.982-.561-1.263-.561-1.4-.421-1.543-.561L130.884,26a2.1,2.1,0,0,1-.842-1.263,3.507,3.507,0,0,1-.421-1.824,4.35,4.35,0,0,1,.421-1.824,6.173,6.173,0,0,1,1.122-1.543,6.593,6.593,0,0,1,1.964-1.122A7.576,7.576,0,0,1,135.794,18a9.119,9.119,0,0,1,2.946.561,7.015,7.015,0,0,1,2.385,1.543Z" transform="translate(46.169 4.727)"/>
      <path id="Path_248" data-name="Path 248" d="M152.667,34.217H150a1.543,1.543,0,0,1-.421-.7l-.281-1.122-1.263.982-1.263.7-1.263.421h-1.543L142,34.217a3.367,3.367,0,0,1-1.543-.842,2.946,2.946,0,0,1-.842-1.4,4.209,4.209,0,0,1,0-3.648,9.54,9.54,0,0,1,1.684-1.684,9.961,9.961,0,0,1,2.946-1.122,20.9,20.9,0,0,1,4.63-.561v-.842a4.209,4.209,0,0,0-.7-2.525,2.806,2.806,0,0,0-1.964-.7H144.67l-1.122.561-.842.421-.842.281h-.7a.7.7,0,0,1-.421-.561l-.842-1.263a10.1,10.1,0,0,1,6.734-2.525,6.033,6.033,0,0,1,4.489,1.684,7.436,7.436,0,0,1,1.122,2.1,6.594,6.594,0,0,1,.421,2.385Zm-7.576-2.385h1.122l.982-.281.842-.561.842-.7V27.483l-2.806.281a4.63,4.63,0,0,0-1.824.561,1.69,1.69,0,0,0-1.263,1.684,1.683,1.683,0,0,0,.561,1.543,2.806,2.806,0,0,0,1.543.281Z" transform="translate(50.2 4.645)"/>
      <path id="Path_249" data-name="Path 249" d="M152.485,36.149V22.962l-1.4-.281-.7-.281c-.281-.14-.281-.421-.281-.7V20.156h2.385V19.033a6.734,6.734,0,0,1,.421-2.525,8.978,8.978,0,0,1,1.122-1.964l1.964-1.122A6.734,6.734,0,0,1,158.518,13l2.1.281v1.964c0,.281-.14.561-.421.561h-2.1l-.982.561a2.244,2.244,0,0,0-.561.982,4.349,4.349,0,0,0-.14,1.4v1.122h4.209v2.806h-4.069V35.869Z" transform="translate(54.59 2.712)"/>
      <path id="Path_250" data-name="Path 250" d="M163.851,15.385a1.964,1.964,0,0,1-.281.842l-.561.842-.7.561h-1.964l-.842-.561-.421-.842a1.964,1.964,0,0,1-.281-.842,1.964,1.964,0,0,1,.281-.982,4.628,4.628,0,0,1,.421-.842l.842-.561h1.964a1.4,1.4,0,0,1,.7.561,1.824,1.824,0,0,1,.561.842A1.964,1.964,0,0,1,163.851,15.385Zm-.561,4.63V36.149h-3.928V20.015Z" transform="translate(58.096 2.713)"/>
      <path id="Path_251" data-name="Path 251" d="M164.9,34.217V18.083h2.245a1.122,1.122,0,0,1,.842.281.842.842,0,0,1,.281.7l.281,1.964a8.558,8.558,0,0,1,1.964-2.385,4.63,4.63,0,0,1,2.666-.842,2.946,2.946,0,0,1,1.964.561l-.561,2.946c0,.14,0,.281-.14.281h-2.1a2.806,2.806,0,0,0-2.1.7,5.051,5.051,0,0,0-1.543,1.824v10.1Z" transform="translate(60.554 4.645)"/>
    </g>
  </g>
</svg>
