<?xml version="1.0" encoding="utf-8"?>
<!-- Generator: Adobe Illustrator 27.3.1, SVG Export Plug-In . SVG Version: 6.00 Build 0)  -->
<svg version="1.1" id="Layer_1" xmlns="http://www.w3.org/2000/svg" xmlns:xlink="http://www.w3.org/1999/xlink" x="0px" y="0px"
	 viewBox="0 0 307 86" style="enable-background:new 0 0 307 86;" xml:space="preserve">
<style type="text/css">
	.st0{enable-background:new    ;}
	.st1{fill:#FFFFFF;}
	.st2{fill:#002C8B;}
	.st3{fill:none;stroke:#FFFFFF;stroke-width:2;stroke-miterlimit:10;}
</style>
<g>
	<g class="st0">
		<path class="st1" d="M126,36c0.2,0.5,0.3,1.1,0,1.6c-0.2,0.5-0.6,0.9-1.1,1.2c-0.3,0.1-0.6,0.2-0.9,0.2c-0.4,0-0.8-0.1-1.1-0.3
			c-0.4-0.2-0.6-0.5-0.8-0.9l-7.3-16.1c-0.3-0.6-0.7-1.1-1.3-1.5c-0.6-0.4-1.2-0.5-1.8-0.5c-0.7,0-1.3,0.2-1.9,0.5s-1,0.8-1.3,1.5
			l-7.4,16.1c-0.2,0.5-0.6,0.9-1.2,1.1C99.5,39,99,39,98.5,38.8c-0.5-0.2-0.9-0.6-1.1-1.2c-0.2-0.5-0.2-1.1,0.1-1.6l7.3-16.1
			c0.6-1.4,1.6-2.5,2.8-3.3c1.2-0.8,2.6-1.2,4.1-1.2c1.5,0,2.9,0.4,4.1,1.2c1.3,0.8,2.2,1.9,2.8,3.3L126,36z M111.7,27.6
			c0.5,0,1,0.1,1.5,0.3c0.5,0.2,0.8,0.5,1.2,0.8c0.3,0.3,0.6,0.7,0.8,1.2c0.2,0.5,0.3,0.9,0.3,1.5s-0.1,1-0.3,1.5
			c-0.2,0.5-0.5,0.8-0.8,1.2c-0.3,0.3-0.7,0.6-1.2,0.8c-0.5,0.2-0.9,0.3-1.5,0.3c-0.5,0-1-0.1-1.5-0.3c-0.5-0.2-0.8-0.5-1.2-0.8
			c-0.3-0.3-0.6-0.7-0.8-1.2c-0.2-0.5-0.3-0.9-0.3-1.5s0.1-1,0.3-1.5c0.2-0.5,0.5-0.8,0.8-1.2c0.3-0.3,0.7-0.6,1.2-0.8
			C110.7,27.7,111.2,27.6,111.7,27.6z"/>
		<path class="st1" d="M131.6,15.4c0.6,0,1.1,0.2,1.5,0.6c0.4,0.4,0.6,0.9,0.6,1.5v19.3c0,0.6-0.2,1.1-0.6,1.5
			c-0.4,0.4-0.9,0.6-1.5,0.6c-0.6,0-1.1-0.2-1.5-0.6c-0.4-0.4-0.6-0.9-0.6-1.5V17.5c0-0.6,0.2-1.1,0.6-1.5
			C130.5,15.6,131,15.4,131.6,15.4z"/>
		<path class="st1" d="M172,18.9c1.1,1.1,1.9,2.3,2.5,3.7c0.6,1.5,0.9,3,0.9,4.6c0,1.6-0.3,3.1-0.9,4.6c-0.6,1.4-1.4,2.7-2.5,3.8
			c-1.1,1.1-2.3,1.9-3.7,2.5c-1.4,0.6-3,0.9-4.6,0.9h-10.9c-0.6,0-1.1-0.2-1.5-0.6c-0.4-0.4-0.6-0.9-0.6-1.5c0-0.6,0.2-1.1,0.6-1.5
			c0.4-0.4,0.9-0.6,1.5-0.6h10.9c1.1,0,2-0.2,3-0.6c0.9-0.4,1.7-0.9,2.4-1.6c0.7-0.7,1.2-1.5,1.6-2.4c0.4-0.9,0.6-1.9,0.6-3
			c0-1-0.2-2-0.6-2.9c-0.4-0.9-0.9-1.7-1.6-2.4c-0.7-0.7-1.5-1.2-2.4-1.6c-0.9-0.4-1.9-0.6-3-0.6h-8.8v7.6c0,0.6-0.2,1.1-0.6,1.5
			s-0.9,0.6-1.5,0.6c-0.6,0-1.1-0.2-1.5-0.6c-0.4-0.4-0.6-0.9-0.6-1.5v-9.7c0-0.6,0.2-1.1,0.6-1.5c0.4-0.4,0.9-0.6,1.5-0.6h10.9
			c1.6,0,3.1,0.3,4.6,0.9c0.7,0.3,1.4,0.7,2,1.1S171.5,18.3,172,18.9z"/>
		<path class="st1" d="M181.2,15.4c0.6,0,1.1,0.2,1.5,0.6c0.4,0.4,0.6,0.9,0.6,1.5v19.3c0,0.6-0.2,1.1-0.6,1.5
			c-0.4,0.4-0.9,0.6-1.5,0.6s-1.1-0.2-1.5-0.6s-0.6-0.9-0.6-1.5V17.5c0-0.6,0.2-1.1,0.6-1.5S180.6,15.4,181.2,15.4z"/>
		<path class="st1" d="M210.8,26.6c0.4,0.4,0.6,0.9,0.6,1.5v6c0,0.6-0.2,1.1-0.6,1.5c-1.2,1.1-2.5,2-4.1,2.5
			c-1.6,0.6-3.3,0.8-5.3,0.8h-1.7c-1.9,0-3.7-0.3-5.3-0.9c-1.6-0.6-3-1.4-4.1-2.6c-1.1-1.1-2-2.3-2.5-3.8c-0.5-1.4-0.8-2.9-0.8-4.6
			c0-0.8,0.1-1.6,0.2-2.3s0.3-1.5,0.6-2.2c0.6-1.5,1.4-2.7,2.5-3.8c1.2-1.1,2.5-2,4.1-2.6c1.6-0.6,3.4-0.9,5.3-0.9h1.7
			c1.6,0,3.2,0.2,4.7,0.7c0.7,0.2,1.4,0.5,2,0.8c0.6,0.3,1.2,0.7,1.8,1.1c0.5,0.4,0.7,0.8,0.8,1.4c0.1,0.6-0.1,1.1-0.4,1.6
			s-0.8,0.7-1.4,0.8s-1.1-0.1-1.6-0.4c-0.7-0.6-1.6-1-2.6-1.3s-2.1-0.4-3.3-0.4h-1.7c-1.3,0-2.5,0.2-3.6,0.5c-1.1,0.4-2,0.9-2.7,1.5
			c-0.7,0.7-1.3,1.5-1.7,2.4c-0.4,0.9-0.6,2-0.6,3.2c0,1.2,0.2,2.2,0.6,3.2c0.4,0.9,1,1.7,1.7,2.4c0.7,0.7,1.7,1.2,2.7,1.5
			c1.1,0.4,2.3,0.5,3.6,0.5h1.7c1.2,0,2.3-0.1,3.2-0.4c1-0.3,1.8-0.7,2.6-1.3v-2.9h-8.1c-0.6,0-1.1-0.2-1.5-0.6
			c-0.4-0.4-0.6-0.9-0.6-1.5s0.2-1.1,0.6-1.5s0.9-0.6,1.5-0.6h10.2C209.9,26,210.4,26.2,210.8,26.6z"/>
		<path class="st1" d="M217.5,15.4c0.6,0,1.1,0.2,1.5,0.6s0.6,0.9,0.6,1.5v19.3c0,0.6-0.2,1.1-0.6,1.5s-0.9,0.6-1.5,0.6
			c-0.6,0-1.1-0.2-1.5-0.6c-0.4-0.4-0.6-0.9-0.6-1.5V17.5c0-0.6,0.2-1.1,0.6-1.5C216.4,15.6,216.9,15.4,217.5,15.4z"/>
		<path class="st1" d="M247.1,16c0.4,0.4,0.6,0.9,0.6,1.5c0,0.6-0.2,1.1-0.6,1.5c-0.4,0.4-0.9,0.6-1.5,0.6h-8.2v17.3
			c0,0.6-0.2,1.1-0.6,1.5s-0.9,0.6-1.5,0.6s-1.1-0.2-1.5-0.6c-0.4-0.4-0.6-0.9-0.6-1.5V19.6H225c-0.6,0-1.1-0.2-1.5-0.6
			c-0.4-0.4-0.6-0.9-0.6-1.5c0-0.6,0.2-1.1,0.6-1.5c0.4-0.4,0.9-0.6,1.5-0.6h20.6C246.2,15.4,246.7,15.6,247.1,16z"/>
		<path class="st1" d="M274.5,36c0.2,0.5,0.3,1.1,0,1.6c-0.2,0.5-0.6,0.9-1.1,1.2c-0.3,0.1-0.6,0.2-0.9,0.2c-0.4,0-0.8-0.1-1.1-0.3
			c-0.4-0.2-0.6-0.5-0.8-0.9l-7.3-16.1c-0.3-0.6-0.7-1.1-1.3-1.5s-1.2-0.5-1.8-0.5c-0.7,0-1.3,0.2-1.9,0.5c-0.6,0.4-1,0.8-1.3,1.5
			l-7.4,16.1c-0.2,0.5-0.6,0.9-1.2,1.1c-0.5,0.2-1.1,0.2-1.6-0.1c-0.5-0.2-0.9-0.6-1.1-1.2c-0.2-0.5-0.2-1.1,0.1-1.6l7.3-16.1
			c0.6-1.4,1.6-2.5,2.8-3.3c1.2-0.8,2.6-1.2,4.1-1.2c1.5,0,2.9,0.4,4.1,1.2c1.3,0.8,2.2,1.9,2.8,3.3L274.5,36z M260.2,27.6
			c0.5,0,1,0.1,1.5,0.3c0.5,0.2,0.8,0.5,1.2,0.8s0.6,0.7,0.8,1.2c0.2,0.5,0.3,0.9,0.3,1.5s-0.1,1-0.3,1.5s-0.5,0.8-0.8,1.2
			c-0.3,0.3-0.7,0.6-1.2,0.8c-0.5,0.2-0.9,0.3-1.5,0.3s-1-0.1-1.5-0.3s-0.8-0.5-1.2-0.8c-0.3-0.3-0.6-0.7-0.8-1.2s-0.3-0.9-0.3-1.5
			s0.1-1,0.3-1.5c0.2-0.5,0.5-0.8,0.8-1.2c0.3-0.3,0.7-0.6,1.2-0.8S259.7,27.6,260.2,27.6z"/>
		<path class="st1" d="M299.4,35.4c0.4,0.4,0.6,0.9,0.6,1.5c0,0.6-0.2,1.1-0.6,1.5s-0.9,0.6-1.5,0.6h-17.8c-0.6,0-1.1-0.2-1.5-0.6
			c-0.4-0.4-0.6-0.9-0.6-1.5V17.5c0-0.6,0.2-1.1,0.6-1.5c0.4-0.4,0.9-0.6,1.5-0.6c0.6,0,1.1,0.2,1.5,0.6s0.6,0.9,0.6,1.5v17.3h15.7
			C298.4,34.8,298.9,35,299.4,35.4z"/>
	</g>
	<path id="Rectangle_2" class="st1" d="M9.8,8.8h55c5.4,0,9.8,4.4,9.8,9.8v55c0,5.4-4.4,9.8-9.8,9.8h-55c-5.4,0-9.8-4.4-9.8-9.8v-55
		C0,13.2,4.4,8.8,9.8,8.8z"/>
	<g id="Group_2" transform="translate(9.322 -10.505)">
		<path id="Path_1" class="st2" d="M49.5,55.8C46.3,43.8,35,36,22.8,37.1L0.6,56.8c-0.1,0.4-0.2,0.8-0.2,1.2
			c-0.1,0.4-0.1,0.9-0.2,1.3c0,0.2,0,0.3-0.1,0.5v0c0,0.2,0,0.4,0,0.6c0,0.3,0,0.5,0,0.8c0,0.2,0,0.3,0,0.5v0.4c0,0.2,0,0.3,0,0.5
			c0,0.1,0,0.2,0,0.2c0,0.1,0,0.3,0,0.4s0,0.3,0,0.4c0,0.3,0,0.6,0.1,0.9c0,0.2,0,0.5,0.1,0.7c0,0.1,0,0.2,0,0.3
			c1.6,11.6,11,20.5,22.7,21.6c0.7,0.1,1.5,0.1,2.2,0.1h0.1c2.1,0,3.7-1.7,3.7-3.8v-3.3c0-2.1-1.7-3.8-3.8-3.8c0,0,0,0,0,0h0
			c-0.5,0-1.1,0-1.6-0.1c-5.7-0.6-10.5-4.7-12.1-10.2c0,0,0,0,0,0c-0.4-1.5-0.6-3-0.5-4.5c0-0.6,0.1-1.2,0.2-1.9
			c0-0.1,0-0.2,0.1-0.3s0-0.2,0.1-0.3c0-0.2,0.1-0.4,0.1-0.6c0-0.2,0.1-0.4,0.2-0.6c0-0.1,0-0.1,0.1-0.2c0.1-0.3,0.2-0.5,0.3-0.8
			c0-0.1,0.1-0.2,0.1-0.3c1.6-3.8,4.7-6.7,8.6-8.1c0.3-0.1,0.6-0.2,1-0.3c0.2,0,0.4-0.1,0.6-0.1c0,0,0.1,0,0.1,0l0.3,0
			c0.2,0,0.4-0.1,0.7-0.1s0.5-0.1,0.7-0.1c0.2,0,0.4,0,0.5,0c0,0,0.1,0,0.2,0c0.3,0,0.5,0,0.8,0h0.1c0.3,0,0.5,0,0.8,0
			c0.1,0,0.2,0,0.3,0c3.4,0.3,6.6,1.9,8.9,4.3c0.1,0.1,0.3,0.3,0.4,0.4c0.2,0.2,0.4,0.4,0.5,0.6c0.2,0.3,0.4,0.5,0.6,0.8
			c0.1,0.1,0.2,0.3,0.3,0.4s0.2,0.3,0.3,0.5c0.1,0.2,0.2,0.4,0.3,0.6c0,0.1,0.1,0.2,0.1,0.3s0.1,0.2,0.1,0.3
			c0.1,0.2,0.2,0.3,0.2,0.5l0.1,0.3v23.2l11.9-10.7v-8.2C50.3,59.4,50,57.6,49.5,55.8L49.5,55.8z"/>
		<g id="Group_1" transform="translate(39.204 0)">
			<path id="Path_2" class="st2" d="M11.2,52.6V37H0.3v2.4C5.2,42.5,9,47.1,11.2,52.6z"/>
			<circle id="Ellipse_1" class="st2" cx="5.7" cy="28.4" r="5.7"/>
		</g>
	</g>
	<g class="st0">
		<path class="st1" d="M116.2,62.9c0.9,0.4,1.7,0.9,2.3,1.6c0.7,0.7,1.2,1.4,1.6,2.3c0.4,0.9,0.6,1.8,0.6,2.9c0,1-0.2,2-0.6,2.9
			c-0.4,0.9-0.9,1.7-1.6,2.3s-1.4,1.2-2.3,1.6c-0.9,0.4-1.8,0.6-2.9,0.6H98.2c-0.6,0-1.1-0.2-1.6-0.6c-0.4-0.4-0.7-1-0.7-1.6
			c0-0.6,0.2-1.1,0.7-1.6c0.4-0.4,1-0.6,1.6-0.6h15.2c0.8,0,1.5-0.3,2.1-0.8c0.6-0.6,0.8-1.2,0.8-2.1s-0.3-1.5-0.8-2.1
			c-0.6-0.6-1.2-0.8-2.1-0.8h-11.6c-1,0-2-0.2-2.9-0.6c-0.9-0.4-1.7-0.9-2.3-1.6s-1.2-1.4-1.6-2.3c-0.4-0.9-0.6-1.8-0.6-2.9
			s0.2-2,0.6-2.9c0.4-0.9,0.9-1.7,1.6-2.4c0.7-0.7,1.4-1.2,2.3-1.6c0.9-0.4,1.8-0.6,2.9-0.6H117c0.6,0,1.1,0.2,1.6,0.7
			c0.4,0.4,0.7,1,0.7,1.6c0,0.6-0.2,1.1-0.7,1.6c-0.4,0.4-1,0.6-1.6,0.6h-15.2c-0.8,0-1.5,0.3-2.1,0.9c-0.6,0.6-0.8,1.3-0.8,2.1
			c0,0.8,0.3,1.5,0.8,2c0.6,0.6,1.2,0.9,2.1,0.9h11.6C114.4,62.3,115.3,62.5,116.2,62.9z"/>
		<path class="st1" d="M147.2,52.2c0.6,0.3,0.9,0.7,1.1,1.3c0.2,0.6,0.1,1.2-0.1,1.7l-3.1,6.2c-0.5,0.9-1,1.7-1.7,2.5
			c-0.7,0.7-1.5,1.4-2.3,1.9c-1.1,0.7-2.3,1.1-3.5,1.4v7.6c0,0.6-0.2,1.2-0.6,1.6c-0.4,0.4-1,0.6-1.6,0.6c-0.6,0-1.1-0.2-1.6-0.6
			c-0.4-0.4-0.7-1-0.7-1.6v-7.6c-1.3-0.3-2.4-0.7-3.5-1.4c-0.9-0.5-1.6-1.2-2.3-1.9c-0.7-0.7-1.2-1.6-1.7-2.5l-3.1-6.2
			c-0.3-0.6-0.3-1.1-0.1-1.7c0.2-0.6,0.6-1,1.1-1.3c0.5-0.3,1.1-0.3,1.7-0.1c0.6,0.2,1,0.6,1.3,1.1l3.1,6.2c0.6,1.1,1.4,2,2.4,2.6
			c1,0.6,2.2,0.9,3.4,0.9c1.2,0,2.4-0.3,3.4-0.9c1-0.6,1.8-1.5,2.4-2.6l3.1-6.2c0.3-0.5,0.7-0.9,1.3-1.1
			C146.1,51.9,146.7,52,147.2,52.2z"/>
		<path class="st1" d="M173.4,62.9c0.9,0.4,1.7,0.9,2.3,1.6c0.7,0.7,1.2,1.4,1.6,2.3s0.6,1.8,0.6,2.9c0,1-0.2,2-0.6,2.9
			s-0.9,1.7-1.6,2.3s-1.4,1.2-2.3,1.6c-0.9,0.4-1.8,0.6-2.9,0.6h-15.2c-0.6,0-1.1-0.2-1.6-0.6c-0.4-0.4-0.7-1-0.7-1.6
			c0-0.6,0.2-1.1,0.7-1.6c0.4-0.4,1-0.6,1.6-0.6h15.2c0.8,0,1.5-0.3,2.1-0.8c0.6-0.6,0.8-1.2,0.8-2.1s-0.3-1.5-0.8-2.1
			c-0.6-0.6-1.2-0.8-2.1-0.8H159c-1,0-2-0.2-2.9-0.6c-0.9-0.4-1.7-0.9-2.3-1.6c-0.7-0.7-1.2-1.4-1.6-2.3c-0.4-0.9-0.6-1.8-0.6-2.9
			s0.2-2,0.6-2.9c0.4-0.9,0.9-1.7,1.6-2.4c0.7-0.7,1.4-1.2,2.3-1.6c0.9-0.4,1.8-0.6,2.9-0.6h15.2c0.6,0,1.1,0.2,1.6,0.7
			c0.4,0.4,0.7,1,0.7,1.6c0,0.6-0.2,1.1-0.7,1.6c-0.4,0.4-1,0.6-1.6,0.6H159c-0.8,0-1.5,0.3-2.1,0.9c-0.6,0.6-0.8,1.3-0.8,2.1
			c0,0.8,0.3,1.5,0.8,2c0.6,0.6,1.2,0.9,2.1,0.9h11.6C171.5,62.3,172.5,62.5,173.4,62.9z"/>
		<path class="st1" d="M204.2,52.7c0.4,0.4,0.6,1,0.6,1.6c0,0.6-0.2,1.1-0.6,1.6c-0.4,0.4-1,0.6-1.6,0.6H194v18.3
			c0,0.6-0.2,1.2-0.6,1.6c-0.4,0.4-1,0.6-1.6,0.6c-0.6,0-1.1-0.2-1.6-0.6c-0.4-0.4-0.7-1-0.7-1.6V56.4h-8.7c-0.6,0-1.1-0.2-1.6-0.6
			s-0.7-1-0.7-1.6c0-0.6,0.2-1.1,0.7-1.6c0.4-0.4,1-0.7,1.6-0.7h21.8C203.3,52,203.8,52.2,204.2,52.7z"/>
		<path class="st1" d="M232.4,52c0.6,0,1.1,0.2,1.6,0.7c0.4,0.4,0.7,1,0.7,1.6c0,0.6-0.2,1.1-0.7,1.6s-1,0.6-1.6,0.6h-21.8
			c-0.6,0-1.1-0.2-1.6-0.6c-0.4-0.4-0.6-1-0.6-1.6c0-0.6,0.2-1.1,0.6-1.6c0.4-0.4,1-0.7,1.6-0.7H232.4z M232.4,62.3
			c0.6,0,1.1,0.2,1.6,0.6c0.4,0.4,0.7,1,0.7,1.6c0,0.6-0.2,1.1-0.7,1.6s-1,0.7-1.6,0.7h-21.8c-0.6,0-1.1-0.2-1.6-0.7
			c-0.4-0.4-0.6-1-0.6-1.6c0-0.6,0.2-1.1,0.6-1.6c0.4-0.4,1-0.6,1.6-0.6H232.4z M232.4,72.5c0.6,0,1.1,0.2,1.6,0.6s0.7,1,0.7,1.6
			c0,0.6-0.2,1.2-0.7,1.6c-0.4,0.4-1,0.6-1.6,0.6h-21.8c-0.6,0-1.1-0.2-1.6-0.6c-0.4-0.4-0.6-1-0.6-1.6c0-0.6,0.2-1.1,0.6-1.6
			c0.4-0.4,1-0.6,1.6-0.6H232.4z"/>
		<path class="st1" d="M272.4,52.2c0.4,0.2,0.7,0.5,1,0.8c0.2,0.4,0.4,0.8,0.4,1.2v20.5c0,0.6-0.2,1.2-0.6,1.6
			c-0.4,0.4-1,0.6-1.6,0.6c-0.6,0-1.1-0.2-1.6-0.6c-0.4-0.4-0.7-1-0.7-1.6V59.5l-11.1,10.7c-0.4,0.4-0.9,0.6-1.5,0.6
			c-0.6,0-1.1-0.2-1.5-0.6L244,59.5v15.3c0,0.6-0.2,1.2-0.7,1.6c-0.4,0.4-1,0.6-1.6,0.6c-0.6,0-1.1-0.2-1.6-0.6
			c-0.4-0.4-0.6-1-0.6-1.6V54.2c0-0.5,0.1-0.9,0.4-1.2c0.2-0.4,0.6-0.6,1-0.8c0.4-0.2,0.8-0.2,1.3-0.2c0.4,0.1,0.8,0.3,1.1,0.6
			l13.3,12.8L270,52.6c0.3-0.3,0.7-0.5,1.1-0.6C271.5,51.9,272,52,272.4,52.2z"/>
		<path class="st1" d="M299.7,62.9c0.9,0.4,1.7,0.9,2.3,1.6c0.7,0.7,1.2,1.4,1.6,2.3s0.6,1.8,0.6,2.9c0,1-0.2,2-0.6,2.9
			s-0.9,1.7-1.6,2.3c-0.7,0.7-1.4,1.2-2.3,1.6s-1.8,0.6-2.9,0.6h-15.2c-0.6,0-1.1-0.2-1.6-0.6c-0.4-0.4-0.7-1-0.7-1.6
			c0-0.6,0.2-1.1,0.7-1.6s1-0.6,1.6-0.6h15.2c0.8,0,1.5-0.3,2.1-0.8c0.6-0.6,0.8-1.2,0.8-2.1s-0.3-1.5-0.8-2.1
			c-0.6-0.6-1.2-0.8-2.1-0.8h-11.6c-1,0-2-0.2-2.9-0.6c-0.9-0.4-1.7-0.9-2.3-1.6s-1.2-1.4-1.6-2.3c-0.4-0.9-0.6-1.8-0.6-2.9
			s0.2-2,0.6-2.9c0.4-0.9,0.9-1.7,1.6-2.4c0.7-0.7,1.4-1.2,2.3-1.6c0.9-0.4,1.8-0.6,2.9-0.6h15.2c0.6,0,1.1,0.2,1.6,0.7
			c0.4,0.4,0.7,1,0.7,1.6c0,0.6-0.2,1.1-0.7,1.6c-0.4,0.4-1,0.6-1.6,0.6h-15.2c-0.8,0-1.5,0.3-2.1,0.9c-0.6,0.6-0.8,1.3-0.8,2.1
			c0,0.8,0.3,1.5,0.8,2c0.6,0.6,1.2,0.9,2.1,0.9h11.6C297.9,62.3,298.8,62.5,299.7,62.9z"/>
	</g>
	<line id="Line_1" class="st3" x1="86.1" y1="8.8" x2="86.1" y2="82.2"/>
</g>
</svg>
