<svg xmlns="http://www.w3.org/2000/svg" width="96.19" height="99.619" viewBox="0 0 96.19 99.619">
  <g id="quality" transform="translate(0.006 0.02)">
    <g id="Group_1213" data-name="Group 1213" transform="translate(-0.006 -0.02)">
      <path id="Path_797" data-name="Path 797" d="M9.593,162.435A3.182,3.182,0,0,1,8.2,160.473q-3.967-11.2-7.958-22.4c-.523-1.474-.259-2.037,1.205-2.565,3.795-1.369,7.594-2.724,11.389-4.094a5.259,5.259,0,0,1,4.826.4c.189-.329.373-.647.558-.961A11.975,11.975,0,0,1,31.4,125.563c7.246,2,14.512,3.919,21.767,5.866q5.214,1.4,10.443,2.764a7.587,7.587,0,0,1,4.8,4.044c.279.523.453.513.911.2,4.905-3.371,9.806-6.743,14.746-10.055a7.839,7.839,0,0,1,9.2,12.689c-3.088,2.375-6.28,4.621-9.412,6.937-3.615,2.674-7.2,5.393-10.836,8.048a25.857,25.857,0,0,1-9.457,4.547,18.506,18.506,0,0,1-6.5.159c-5.339-.672-10.488-2.211-15.692-3.486-2.814-.692-5.617-1.419-8.436-2.1a8.538,8.538,0,0,0-1.853-.189q-2.428-.037-4.855,0a.886.886,0,0,0-.667.364,5.363,5.363,0,0,1-3.028,2.624c-3.018,1.086-6.046,2.151-9.069,3.227-.876.314-1.758.608-2.634.931-.144.055-.249.2-.373.309H9.583Zm50.238-4.681a13.6,13.6,0,0,0,7.126-1.653,61.465,61.465,0,0,0,6.021-3.825c4.343-3.157,8.6-6.439,12.9-9.641,1.8-1.335,3.68-2.555,5.453-3.919,1.753-1.355,2.047-3.247,1.509-5.279a4.154,4.154,0,0,0-3.9-3.3,4.733,4.733,0,0,0-3.088.737c-.8.513-1.564,1.091-2.356,1.623q-6.85,4.631-13.7,9.273a1.336,1.336,0,0,0-.543.817,7.733,7.733,0,0,1-9.84,6.678c-5.368-1.4-10.722-2.858-16.08-4.288-2.52-.672-5.045-1.33-7.57-1.992-.737-.194-1.394-.493-1.524-1.35-.184-1.23.822-2,2.131-1.653,4.178,1.12,8.356,2.251,12.54,3.361,3.78,1,7.555,2.047,11.359,2.958a4.666,4.666,0,0,0,5.832-5.324,4.817,4.817,0,0,0-3.989-4.074c-5.632-1.459-11.245-2.988-16.862-4.492-4.841-1.295-9.671-2.629-14.517-3.884a9.142,9.142,0,0,0-9.88,3.755c-.772,1.12-1.285,2.281-.488,3.62a1.946,1.946,0,0,1,.134.349q2.741,7.627,5.473,15.254c.12.339.294.383.593.383,1.554,0,3.112-.015,4.666.015a9.023,9.023,0,0,1,1.977.184q8.441,2.077,16.872,4.213a42.191,42.191,0,0,0,9.751,1.454ZM3.453,138c.03.144.035.224.06.3q2.331,6.544,4.666,13.092c.847,2.375,1.7,4.751,2.54,7.131.139.4.359.3.627.209,3.317-1.165,6.643-2.311,9.95-3.5,1.7-.613,2.151-1.589,1.549-3.307-1.4-3.979-2.824-7.953-4.233-11.927-.533-1.5-1.006-3.023-1.569-4.512a2.147,2.147,0,0,0-2.6-1.374c-.364.09-.717.2-1.071.324q-4.243,1.5-8.481,3.013c-.478.169-.951.369-1.434.558Z" transform="translate(0.006 -62.826)" fill="#002c8b"/>
      <path id="Path_798" data-name="Path 798" d="M83.033-.01a3.187,3.187,0,0,1,1.29,2.027c.443,1.638.976,3.252,1.454,4.88a1.156,1.156,0,0,0,.807.827c1.255.478,2.475,1.056,3.73,1.544a1.212,1.212,0,0,0,.9-.04c1.743-.911,3.461-1.872,5.194-2.8a1.566,1.566,0,0,1,2.271.354q2.3,2.316,4.6,4.641c.867.876.931,1.28.354,2.37-.916,1.718-1.838,3.431-2.784,5.134a.913.913,0,0,0-.025.916c.573,1.31,1.071,2.644,1.648,3.949a1.158,1.158,0,0,0,.652.553c1.858.573,3.73,1.106,5.6,1.648,1.125.329,1.419.7,1.429,1.863q.015,3.3.02,6.6a1.636,1.636,0,0,1-1.434,1.872c-1.833.523-3.655,1.066-5.493,1.574a1.15,1.15,0,0,0-.871.827c-.448,1.245-.966,2.465-1.489,3.68a1.051,1.051,0,0,0,.045,1.041q1.4,2.532,2.729,5.094a1.556,1.556,0,0,1-.309,2.286c-1.554,1.614-3.137,3.2-4.731,4.776a1.538,1.538,0,0,1-2.141.269c-1.738-.926-3.456-1.887-5.2-2.789a1.43,1.43,0,0,0-1.026-.05c-1.3.483-2.58,1.011-3.85,1.574a1.212,1.212,0,0,0-.6.682c-.573,1.863-1.1,3.735-1.628,5.607-.279.986-.682,1.384-1.708,1.4q-3.421.052-6.847,0c-1.016-.015-1.454-.423-1.758-1.444-.563-1.882-1.091-3.78-1.673-5.657a1.12,1.12,0,0,0-.578-.6q-1.972-.829-3.984-1.569a1.18,1.18,0,0,0-.847.035c-1.648.867-3.282,1.773-4.915,2.669-1.26.692-1.718.608-2.729-.413-1.459-1.474-2.933-2.938-4.407-4.4a1.692,1.692,0,0,1-.378-2.485q1.389-2.532,2.829-5.04a.86.86,0,0,0,.025-.906c-.588-1.275-1.125-2.575-1.638-3.884a.946.946,0,0,0-.7-.672c-1.912-.543-3.815-1.12-5.712-1.7a1.525,1.525,0,0,1-1.32-1.763q-.022-3.264,0-6.534A1.723,1.723,0,0,1,49.313,26c1.848-.548,3.69-1.1,5.543-1.614a1,1,0,0,0,.737-.722c.488-1.275,1.006-2.54,1.564-3.785a.934.934,0,0,0-.02-.966c-.941-1.7-1.858-3.421-2.764-5.144-.588-1.12-.528-1.539.359-2.43q2.278-2.3,4.577-4.577a1.6,1.6,0,0,1,2.286-.329q2.6,1.4,5.189,2.819a.953.953,0,0,0,.976,0C69,8.695,70.269,8.177,71.544,7.7a.879.879,0,0,0,.637-.642c.5-1.733,1.041-3.446,1.529-5.179a2.819,2.819,0,0,1,1.365-1.9h7.968Zm-25.672,13c.981,1.8,1.9,3.566,2.9,5.279a2.18,2.18,0,0,1-.03,2.266,33.211,33.211,0,0,0-1.892,4.507,2.741,2.741,0,0,1-2.151,2.1c-1.584.408-3.142.906-4.721,1.34a.663.663,0,0,0-.563.792c.04,1.225.05,2.45,0,3.67a.722.722,0,0,0,.627.867c1.773.5,3.536,1.041,5.3,1.554a1.93,1.93,0,0,1,1.32,1.345c.637,1.7,1.295,3.406,2.087,5.035a2.264,2.264,0,0,1-.02,2.326c-.876,1.574-1.7,3.177-2.575,4.756a.557.557,0,0,0,.09.8c.921.9,1.823,1.818,2.714,2.744a.64.64,0,0,0,.916.11c1.618-.921,3.272-1.793,4.9-2.7a1.757,1.757,0,0,1,1.932.025,18.894,18.894,0,0,0,5.134,2.171,1.929,1.929,0,0,1,1.509,1.464c.5,1.773,1.051,3.531,1.549,5.3a.585.585,0,0,0,.687.513q1.9-.037,3.795,0c.433,0,.652-.1.777-.568.473-1.758,1.016-3.5,1.5-5.254a2.072,2.072,0,0,1,1.424-1.479c1.738-.657,3.461-1.365,5.144-2.146a2.117,2.117,0,0,1,2.112.01c1.609.9,3.242,1.763,4.845,2.669a.6.6,0,0,0,.862-.1Q98.874,51,100.253,49.65c.294-.289.269-.513.08-.862-.9-1.653-1.758-3.337-2.654-4.995a1.946,1.946,0,0,1,.02-1.882c.727-1.6,1.449-3.207,2.022-4.86a2.572,2.572,0,0,1,1.947-1.843c1.663-.438,3.3-.961,4.95-1.434.3-.09.518-.179.508-.573-.03-1.33-.04-2.654-.025-3.984a.634.634,0,0,0-.563-.727c-1.753-.5-3.486-1.056-5.244-1.544a2.131,2.131,0,0,1-1.494-1.5c-.613-1.643-1.25-3.287-2-4.87a2.4,2.4,0,0,1,.02-2.45c.872-1.529,1.678-3.1,2.49-4.656.09-.169.149-.5.06-.593-1.066-1.13-2.161-2.231-3.247-3.337-1.848,1.006-3.615,1.957-5.368,2.933a2.014,2.014,0,0,1-2-.035c-1.628-.752-3.282-1.479-4.975-2.072a2.3,2.3,0,0,1-1.673-1.7c-.453-1.7-.986-3.376-1.469-5.07-.12-.413-.279-.608-.767-.593-1.225.04-2.45.045-3.67-.015a.765.765,0,0,0-.906.677c-.473,1.693-1.016,3.371-1.464,5.07a2.207,2.207,0,0,1-1.6,1.614,47.705,47.705,0,0,0-4.751,1.972,2.349,2.349,0,0,1-2.495,0c-1.534-.906-3.107-1.738-4.681-2.58a.73.73,0,0,0-.642-.015c-1.13,1.066-2.221,2.166-3.327,3.257Z" transform="translate(-24.002 0.02)" fill="#002c8b"/>
      <path id="Path_799" data-name="Path 799" d="M93.483,28.569A16.921,16.921,0,1,1,76.437,45.551,17.133,17.133,0,0,1,93.483,28.569Zm13.555,15.408c.388-5.254-6.7-12.335-12.136-12.191,0,.677.025,1.36,0,2.042a1.56,1.56,0,0,1-1.564,1.594,1.477,1.477,0,0,1-1.464-1.594c-.025-.657,0-1.32,0-2.1a13.512,13.512,0,0,0-8.446,4.183,13.835,13.835,0,0,0-3.84,8.063c.817,0,1.519-.015,2.216,0a1.489,1.489,0,0,1,1.419,1.016,1.532,1.532,0,0,1-1.484,2.062c-.7.035-1.4,0-2.112,0,0,.194-.01.3,0,.4a12.932,12.932,0,0,0,2.316,5.832A13.6,13.6,0,0,0,91.277,59.2c.488.07.627-.065.6-.543a14.446,14.446,0,0,1,.035-1.8,1.333,1.333,0,0,1,.981-1.17,1.19,1.19,0,0,1,1.459.373,3.578,3.578,0,0,1,.533,1.464,10.833,10.833,0,0,1,.02,1.708,13.787,13.787,0,0,0,12.161-12.2c-.2,0-.4,0-.6,0a16.649,16.649,0,0,1-1.8-.085,1.459,1.459,0,0,1-1.175-1.9,1.54,1.54,0,0,1,1.524-1.066c.677-.03,1.355,0,2.022,0Z" transform="translate(-38.367 -14.332)" fill="#002c8b"/>
      <path id="Path_800" data-name="Path 800" d="M110.428,52.1h4.318c.518,0,1.041-.01,1.554.035a1.492,1.492,0,0,1,1.345,1.464,1.455,1.455,0,0,1-1.175,1.539.5.5,0,0,1-.125.02c-2.57,0-5.139.015-7.7-.02a1.243,1.243,0,0,1-1.205-1.145,4.82,4.82,0,0,1-.085-.926q0-3.078,0-6.155c0-.164,0-.334.01-.5a1.527,1.527,0,0,1,1.559-1.584,1.61,1.61,0,0,1,1.5,1.678c.02,1.618,0,3.232,0,4.85v.737Z" transform="translate(-53.887 -22.493)" fill="#002c8b"/>
    </g>
  </g>
</svg>
