<svg xmlns="http://www.w3.org/2000/svg" xmlns:xlink="http://www.w3.org/1999/xlink" width="265.218" height="63.309" viewBox="0 0 265.218 63.309">
  <defs>
    <linearGradient id="linear-gradient" x1="0.552" y1="-0.648" x2="0.486" y2="0.637" gradientUnits="objectBoundingBox">
      <stop offset="0" stop-color="#fff"/>
      <stop offset="1" stop-color="#148ecf"/>
    </linearGradient>
    <linearGradient id="linear-gradient-2" x1="0.554" y1="-0.702" x2="0.481" y2="0.614" xlink:href="#linear-gradient"/>
  </defs>
  <g id="skykonnect" transform="translate(-17.3 -16.286)">
    <g id="Group_1221" data-name="Group 1221" transform="translate(17.3 16.286)">
      <path id="Path_913" data-name="Path 913" d="M90.1,59.8a20.743,20.743,0,0,1-2.813,10.322,18.326,18.326,0,0,1-14.35,9.391c-12.366.951-15.564-7.064-16.192-13.318a28.417,28.417,0,0,1,.182-7.023s2.854-4.736,5.222-6.456l3.016,8.622a7.618,7.618,0,0,0,2.712-3.987l-.546-10.342s10.2-8.885,8.582-12.953c0,0-4.7-.283-12.042,9.674h-10.1s-.648-.931-4.109,2.975L58.588,49l-2.57,2.55L51.484,56.1h-.02c-17.73,14.653-28.538,5.121-31.776,1.356a7.948,7.948,0,0,1-1.356-2.287c-.061-.162-.121-.344-.182-.506A19.5,19.5,0,0,1,17.3,49,20.691,20.691,0,0,1,28.533,30.922a23.989,23.989,0,0,1,13.054-3.805,24.378,24.378,0,0,1,9.088,1.741A20.159,20.159,0,1,1,85.892,47.964,18.837,18.837,0,0,1,90.1,59.8Z" transform="translate(-17.3 -16.286)" fill="#148ecf"/>
      <path id="Path_914" data-name="Path 914" d="M59.982,169.649,55.408,174.2h-.02c-17.73,14.653-28.538,5.121-31.776,1.356a7.948,7.948,0,0,1-1.356-2.287c-.142-1.376-.2-6.416,6.477-8.318,7.752-2.206,14.046,2.429,14.046,2.429s4.817-4.007,6.517,1.6C49.3,168.961,57.189,161.7,59.982,169.649Z" transform="translate(-21.224 -134.389)" opacity="0.44" fill="url(#linear-gradient)"/>
      <path id="Path_915" data-name="Path 915" d="M242.741,258.149a18.326,18.326,0,0,1-14.35,9.391c-12.366.951-15.564-7.064-16.192-13.318a14.942,14.942,0,0,1,3.724,2.429c1.7-5.606,6.517-1.6,6.517-1.6s6.294-4.655,14.046-2.429C240.636,253.777,242.195,256.186,242.741,258.149Z" transform="translate(-172.753 -204.309)" opacity="0.44" fill="url(#linear-gradient-2)"/>
    </g>
    <g id="Group_1224" data-name="Group 1224" transform="translate(93.178 27.097)">
      <path id="Path_916" data-name="Path 916" d="M601.333,107.809c3.542,0,5.485-2,9.128-10.626.911-2.125,4.352-11.111,4.352-13.176,0-1.6-.729-2.307-2.307-2.307H610.38a55.366,55.366,0,0,1-3.845,13.662c-.729-1.437-2.348-7.286-2.955-8.865.587,2.834,1.538,11.051.546,13.54.223.364-.2-.3,0,0-.971,2.57-1.579,3.38-3.076,3.582-.121.02-.263.02-.385.04l-.466.04" transform="translate(-558.102 -79.271)" fill="#1ca4de"/>
      <g id="Group_1223" data-name="Group 1223">
        <g id="Group_1222" data-name="Group 1222">
          <path id="Path_917" data-name="Path 917" d="M399.1,116.063c-3.623,0-6.315-1.862-6.315-3.866v-2.226h.182a9.766,9.766,0,0,0,5.91,1.862c2.409,0,3.582-.688,3.582-2.145,0-1.133-.688-1.68-4.088-2.145-4.169-.587-6.173-2.226-6.173-5.222,0-3.684,3.319-6.821,8.359-6.821,4.453,0,6.274,2.307,6.274,4.21v1.862h-.182a8.554,8.554,0,0,0-5.627-1.822c-3,0-3.947.911-3.947,2.186,0,.992.587,1.4,3.947,1.943,4.088.648,6.274,2.449,6.274,5.586C407.319,113.574,404.384,116.063,399.1,116.063Z" transform="translate(-392.2 -90.278)" fill="#242d66"/>
          <path id="Path_918" data-name="Path 918" d="M499.188,75.448c-10.747-6.072-16.212,5.971-17.75,10.2V72.959c0-1.9-.992-3.259-3.36-3.259H476.5V92.53c0,2.307,1.093,3.5,3.36,3.461l1.579-.04V89.636a6.4,6.4,0,0,1,1.538-2.247s2.834,8.278,7.043,7.651a40.475,40.475,0,0,0,5.586-1.052s-11.638-8.48-8.156-13.864c3.542-4.453,8.764-2.125,8.764-2.125s8.48,4.169,4.473,16.313C500.686,94.352,508.822,80.892,499.188,75.448Z" transform="translate(-459.438 -69.7)" fill="#242d66"/>
        </g>
      </g>
    </g>
    <g id="Group_1226" data-name="Group 1226" transform="translate(151.548 30.355)">
      <g id="Group_1225" data-name="Group 1225">
        <path id="Path_919" data-name="Path 919" d="M685.356,89.038v7.509a75.085,75.085,0,0,1,6.922-9.27c1.255-1.376,1.781-1.477,3.643-1.477h3.3v.182a125.952,125.952,0,0,0-9.067,11.051c2.247,3.259,4.432,6.922,7.489,9.513a4.547,4.547,0,0,0,1.9.992c-.425,1.72-1.154,2.429-3.1,2.429a4.819,4.819,0,0,1-3.38-1.538,82.216,82.216,0,0,1-7.732-10.707v12.144h-1.579a2.959,2.959,0,0,1-3.157-3.259V85.8h1.538A2.955,2.955,0,0,1,685.356,89.038Z" transform="translate(-680.6 -85.8)" fill="#1ca4de"/>
        <path id="Path_920" data-name="Path 920" d="M787.971,108.9c5.687,0,8.946,4.574,8.946,9.594,0,5.687-3.259,10.221-9.371,10.221-5.687,0-8.946-4.534-8.946-9.553C778.6,113.454,781.859,108.9,787.971,108.9Zm-.425,4.21c-2.712,0-4.068,2.247-4.068,5.363,0,3.765,1.376,6.011,4.493,6.011,2.732,0,4.068-2.247,4.068-5.343C792.039,115.356,790.643,113.11,787.546,113.11Z" transform="translate(-758.765 -104.225)" fill="#1ca4de"/>
        <path id="Path_921" data-name="Path 921" d="M899.3,128.269a3.131,3.131,0,0,1-3.441-3.1v-7.509c0-3.2-1.4-4.594-3.825-4.594-2.044,0-3.441,1.538-3.441,4.25v10.95h-1.4a3.065,3.065,0,0,1-3.3-3.1v-8.157c0-4.007,2.631-8.116,8.541-8.116,4.453,0,8.136,2.975,8.136,8.359v11.031H899.3Z" transform="translate(-842.753 -104.225)" fill="#1ca4de"/>
        <path id="Path_922" data-name="Path 922" d="M1000.8,128.269a3.131,3.131,0,0,1-3.441-3.1v-7.509c0-3.2-1.4-4.594-3.825-4.594-2.044,0-3.441,1.538-3.441,4.25v10.95h-1.4a3.065,3.065,0,0,1-3.3-3.1v-8.157c0-4.007,2.631-8.116,8.541-8.116,4.453,0,8.136,2.975,8.136,8.359v11.031H1000.8Z" transform="translate(-923.71 -104.225)" fill="#1ca4de"/>
        <path id="Path_923" data-name="Path 923" d="M1090.474,121h-3.1c.344,2.388,2.53,3.906,5.3,3.906,1.963,0,4.291-.385,5.788-1.781h.182V124.6c0,2.429-1.66,4.291-6.841,4.291a9.351,9.351,0,0,1-9.31-9.513c0-6.315,3.866-10.282,9.27-10.282a7.331,7.331,0,0,1,7.59,7.347C1099.359,119.867,1096.728,121,1090.474,121Zm.87-8.015a4.043,4.043,0,0,0-3.967,4.048l-.041.627h2.1c4.453,0,5.485-.486,5.485-1.822C1094.927,113.937,1093.53,112.986,1091.345,112.986Z" transform="translate(-1001.158 -104.384)" fill="#1ca4de"/>
        <path id="Path_924" data-name="Path 924" d="M1191.02,116.294c-.627-1.093-2.429-1.963-5.121-1.963a5.141,5.141,0,0,0-5.161,5.019c0,3.441,2.044,5.788,5.222,5.788,2.712,0,4.311-.87,4.979-1.761h.182v2.186c0,2.287-2.206,3.926-5.627,3.926a9.554,9.554,0,0,1-9.695-9.452c0-5.4,3.765-10.039,10.221-10.039,3.016,0,5.161,1.822,5.161,4.068v2.206h-.162Z" transform="translate(-1075.574 -105.102)" fill="#1ca4de"/>
        <path id="Path_925" data-name="Path 925" d="M1267.3,91.1a3.318,3.318,0,0,1,2.206-1.3h1.093v4.291h6.558v1.923c0,.992-.87,2.247-2.813,2.247h-3.765v7.408c0,2.449,1.093,3.4,2.975,3.4a6.549,6.549,0,0,0,3.4-.668h.182v1.68c0,1.923-1.4,3.157-4.149,3.157-4.776,0-7.084-2.591-7.084-7.023V94.84A4.813,4.813,0,0,1,1267.3,91.1Z" transform="translate(-1147.439 -88.99)" fill="#1ca4de"/>
      </g>
    </g>
    <g id="Group_1227" data-name="Group 1227" transform="translate(96.011 57.942)">
      <path id="Path_926" data-name="Path 926" d="M406.2,224.321a10.891,10.891,0,0,1,1.639-.121,2.761,2.761,0,0,1,1.862.546,1.8,1.8,0,0,1,.587,1.4,1.983,1.983,0,0,1-.506,1.417,2.725,2.725,0,0,1-2.024.729,2.421,2.421,0,0,1-.688-.061V230.9h-.85v-6.578Zm.85,3.2a3.413,3.413,0,0,0,.708.061c1.032,0,1.66-.506,1.66-1.417,0-.87-.627-1.3-1.558-1.3a3.583,3.583,0,0,0-.81.061Z" transform="translate(-406.2 -223.775)"/>
      <path id="Path_927" data-name="Path 927" d="M432.04,234.619c0-.567,0-1.052-.04-1.5h.769l.02.931h.04A1.444,1.444,0,0,1,434.145,233a.907.907,0,0,1,.243.02v.81a1.341,1.341,0,0,0-.3-.02,1.2,1.2,0,0,0-1.154,1.113,2.492,2.492,0,0,0-.04.4v2.55h-.85Z" transform="translate(-426.778 -230.794)"/>
      <path id="Path_928" data-name="Path 928" d="M451.555,235.549a2.325,2.325,0,0,1-2.368,2.53,2.267,2.267,0,0,1-2.287-2.449,2.33,2.33,0,0,1,2.368-2.53A2.256,2.256,0,0,1,451.555,235.549Zm-3.785.061c0,1.052.607,1.842,1.457,1.842.83,0,1.457-.769,1.457-1.862,0-.81-.4-1.842-1.437-1.842S447.77,234.7,447.77,235.61Z" transform="translate(-438.663 -230.874)"/>
      <path id="Path_929" data-name="Path 929" d="M470.5,232.335a1.4,1.4,0,0,0,.951-.364c.243-.283.324-.648.324-1.8v-3.987h.87v4.331a2.626,2.626,0,0,1-.567,1.963,2.2,2.2,0,0,1-1.477.546Zm2.247-7.489a.516.516,0,0,1-.546.526.51.51,0,0,1-.526-.526.532.532,0,0,1,.546-.546A.515.515,0,0,1,472.747,224.846Z" transform="translate(-457.486 -223.855)"/>
      <path id="Path_930" data-name="Path 930" d="M488.23,235.831a1.532,1.532,0,0,0,1.639,1.66,3.035,3.035,0,0,0,1.316-.243l.142.627a3.763,3.763,0,0,1-1.579.3,2.216,2.216,0,0,1-2.348-2.408,2.318,2.318,0,0,1,2.247-2.57,2.017,2.017,0,0,1,1.963,2.247c0,.182-.02.324-.02.4h-3.36Zm2.55-.627c0-.546-.223-1.417-1.194-1.417a1.46,1.46,0,0,0-1.336,1.417Z" transform="translate(-470.966 -230.953)"/>
      <path id="Path_931" data-name="Path 931" d="M516.544,237.875a3.117,3.117,0,0,1-1.376.283,2.258,2.258,0,0,1-2.368-2.429,2.422,2.422,0,0,1,2.57-2.53,2.787,2.787,0,0,1,1.194.243l-.2.668a1.964,1.964,0,0,0-1.012-.223,1.647,1.647,0,0,0-1.68,1.8,1.628,1.628,0,0,0,1.66,1.781,2.4,2.4,0,0,0,1.073-.243Z" transform="translate(-491.225 -230.953)"/>
      <path id="Path_932" data-name="Path 932" d="M536.8,226.9v1.376h1.235v.668H536.8v2.57c0,.587.162.931.648.931a1.634,1.634,0,0,0,.506-.061l.04.648a2.243,2.243,0,0,1-.769.121,1.161,1.161,0,0,1-.931-.364,1.8,1.8,0,0,1-.344-1.235v-2.611H535.2v-.668h.749v-1.154Z" transform="translate(-509.091 -225.928)"/>
      <path id="Path_933" data-name="Path 933" d="M569.255,235.549a2.325,2.325,0,0,1-2.368,2.53,2.267,2.267,0,0,1-2.287-2.449,2.33,2.33,0,0,1,2.368-2.53A2.256,2.256,0,0,1,569.255,235.549Zm-3.785.061c0,1.052.607,1.842,1.457,1.842.83,0,1.457-.769,1.457-1.862,0-.81-.4-1.842-1.437-1.842S565.47,234.7,565.47,235.61Z" transform="translate(-532.541 -230.874)"/>
      <path id="Path_934" data-name="Path 934" d="M591.768,229.2V225.1H591.1v-.668h.668V224.2a2.232,2.232,0,0,1,.546-1.66,1.632,1.632,0,0,1,1.154-.445,1.9,1.9,0,0,1,.749.142l-.121.668a1.248,1.248,0,0,0-.547-.1c-.749,0-.931.648-.931,1.376v.263h1.154v.668h-1.154v4.109h-.85Z" transform="translate(-553.677 -222.1)"/>
      <path id="Path_935" data-name="Path 935" d="M619.223,229.508a2.991,2.991,0,0,0,1.538.425c.87,0,1.4-.466,1.4-1.133,0-.627-.364-.971-1.255-1.316-1.093-.385-1.761-.951-1.761-1.882a1.907,1.907,0,0,1,2.145-1.8,3.128,3.128,0,0,1,1.477.324l-.243.708a2.632,2.632,0,0,0-1.255-.324c-.911,0-1.255.546-1.255.992,0,.627.4.931,1.316,1.275,1.133.425,1.7.971,1.7,1.943,0,1.032-.769,1.9-2.328,1.9a3.393,3.393,0,0,1-1.7-.425Z" transform="translate(-575.93 -223.456)"/>
      <path id="Path_936" data-name="Path 936" d="M649.407,237.161a12.583,12.583,0,0,0,.041,1.3h-.769l-.04-.769h-.02a1.791,1.791,0,0,1-1.579.891c-.749,0-1.639-.4-1.639-2.085V233.7h.87v2.651c0,.911.283,1.518,1.073,1.518a1.217,1.217,0,0,0,1.133-.789,1.454,1.454,0,0,0,.081-.445V233.7h.87v3.461Z" transform="translate(-596.987 -231.352)"/>
      <path id="Path_937" data-name="Path 937" d="M673.14,234.68c0-.607-.02-1.113-.04-1.558h.769l.041.81h.02a1.875,1.875,0,0,1,1.7-.931,2.162,2.162,0,0,1,2.024,2.429c0,1.72-1.052,2.57-2.166,2.57a1.732,1.732,0,0,1-1.477-.749h-.02v2.591h-.85Zm.85,1.275a2.228,2.228,0,0,0,.041.364,1.338,1.338,0,0,0,1.3,1.012c.911,0,1.457-.749,1.457-1.842,0-.951-.506-1.781-1.417-1.781a1.39,1.39,0,0,0-1.316,1.073,1.957,1.957,0,0,0-.061.364Z" transform="translate(-619.081 -230.794)"/>
      <path id="Path_938" data-name="Path 938" d="M701.13,235.831a1.532,1.532,0,0,0,1.639,1.66,3.035,3.035,0,0,0,1.316-.243l.142.627a3.763,3.763,0,0,1-1.579.3,2.216,2.216,0,0,1-2.348-2.408,2.318,2.318,0,0,1,2.247-2.57,2.017,2.017,0,0,1,1.963,2.247c0,.182-.02.324-.02.4h-3.36Zm2.53-.627c0-.546-.223-1.417-1.194-1.417a1.46,1.46,0,0,0-1.336,1.417Z" transform="translate(-640.776 -230.953)"/>
      <path id="Path_939" data-name="Path 939" d="M727.14,234.619c0-.567,0-1.052-.04-1.5h.769l.02.931h.04A1.444,1.444,0,0,1,729.245,233a.907.907,0,0,1,.243.02v.81a1.341,1.341,0,0,0-.3-.02,1.2,1.2,0,0,0-1.154,1.113,2.5,2.5,0,0,0-.04.4v2.55h-.85v-3.259Z" transform="translate(-662.152 -230.794)"/>
      <path id="Path_940" data-name="Path 940" d="M758.74,230.417a4.221,4.221,0,0,1-1.761.324,3.092,3.092,0,0,1-3.279-3.36,3.3,3.3,0,0,1,3.461-3.481,3.469,3.469,0,0,1,1.579.3l-.2.708a3.046,3.046,0,0,0-1.336-.283,2.464,2.464,0,0,0-2.591,2.732,2.415,2.415,0,0,0,2.55,2.672,3.175,3.175,0,0,0,1.4-.283Z" transform="translate(-683.368 -223.536)"/>
      <path id="Path_941" data-name="Path 941" d="M784.44,234.619c0-.567,0-1.052-.04-1.5h.769l.02.931h.04A1.444,1.444,0,0,1,786.545,233a.907.907,0,0,1,.243.02v.81a1.34,1.34,0,0,0-.3-.02,1.2,1.2,0,0,0-1.154,1.113,2.489,2.489,0,0,0-.04.4v2.55h-.85Z" transform="translate(-707.854 -230.794)"/>
      <path id="Path_942" data-name="Path 942" d="M804.055,235.549a2.325,2.325,0,0,1-2.368,2.53,2.267,2.267,0,0,1-2.287-2.449,2.33,2.33,0,0,1,2.368-2.53A2.256,2.256,0,0,1,804.055,235.549Zm-3.785.061c0,1.052.607,1.842,1.457,1.842.83,0,1.457-.769,1.457-1.862,0-.81-.4-1.842-1.437-1.842S800.27,234.7,800.27,235.61Z" transform="translate(-719.818 -230.874)"/>
      <path id="Path_943" data-name="Path 943" d="M826.591,233.6l.627,2.429q.213.789.364,1.518h.02c.1-.486.263-.992.425-1.518l.769-2.429h.729l.749,2.388a15.282,15.282,0,0,1,.425,1.558h.02a12.856,12.856,0,0,1,.364-1.538l.688-2.388h.85l-1.538,4.777h-.789l-.729-2.287c-.162-.526-.3-1.012-.425-1.558h-.02a16.243,16.243,0,0,1-.425,1.579l-.769,2.267h-.789L825.7,233.62h.891Z" transform="translate(-740.795 -231.272)"/>
      <path id="Path_944" data-name="Path 944" d="M865.04,234.5c0-.486,0-.891-.04-1.3h.769l.041.789h.02a1.775,1.775,0,0,1,1.579-.891c.668,0,1.68.385,1.68,2.024v2.854h-.85v-2.753c0-.769-.283-1.417-1.113-1.417a1.282,1.282,0,0,0-1.214,1.3v2.874h-.87Z" transform="translate(-772.141 -230.874)"/>
      <path id="Path_945" data-name="Path 945" d="M908.165,230.416a6.049,6.049,0,0,1-2.044.364,3.468,3.468,0,0,1-2.489-.87,3.424,3.424,0,0,1-.931-2.469A3.338,3.338,0,0,1,906.3,224a4.061,4.061,0,0,1,1.66.3l-.2.708a3.4,3.4,0,0,0-1.477-.283,2.487,2.487,0,0,0-2.672,2.672,2.431,2.431,0,0,0,2.57,2.672,2.791,2.791,0,0,0,1.154-.182v-1.983h-1.356v-.668h2.186Z" transform="translate(-802.211 -223.615)"/>
      <path id="Path_946" data-name="Path 946" d="M936.84,234.619c0-.567,0-1.052-.04-1.5h.769l.02.931h.04A1.444,1.444,0,0,1,938.945,233a.907.907,0,0,1,.243.02v.81a1.341,1.341,0,0,0-.3-.02,1.2,1.2,0,0,0-1.154,1.113,2.5,2.5,0,0,0-.04.4v2.55h-.85Z" transform="translate(-829.409 -230.794)"/>
      <path id="Path_947" data-name="Path 947" d="M956.355,235.549a2.325,2.325,0,0,1-2.368,2.53,2.267,2.267,0,0,1-2.287-2.449,2.33,2.33,0,0,1,2.368-2.53A2.256,2.256,0,0,1,956.355,235.549Zm-3.785.061c0,1.052.607,1.842,1.457,1.842.83,0,1.457-.769,1.457-1.862,0-.81-.4-1.842-1.437-1.842S952.57,234.7,952.57,235.61Z" transform="translate(-841.294 -230.874)"/>
      <path id="Path_948" data-name="Path 948" d="M985.007,237.161a12.6,12.6,0,0,0,.04,1.3h-.769l-.04-.769h-.02a1.791,1.791,0,0,1-1.579.891c-.749,0-1.639-.4-1.639-2.085V233.7h.87v2.651c0,.911.283,1.518,1.073,1.518a1.217,1.217,0,0,0,1.133-.789,1.456,1.456,0,0,0,.081-.445V233.7h.87v3.461Z" transform="translate(-864.664 -231.352)"/>
      <path id="Path_949" data-name="Path 949" d="M1008.74,234.68c0-.607-.02-1.113-.041-1.558h.769l.04.81h.02a1.875,1.875,0,0,1,1.7-.931,2.162,2.162,0,0,1,2.024,2.429c0,1.72-1.052,2.57-2.166,2.57a1.732,1.732,0,0,1-1.478-.749h-.02v2.591h-.85Zm.85,1.275a2.228,2.228,0,0,0,.04.364,1.338,1.338,0,0,0,1.3,1.012c.911,0,1.457-.749,1.457-1.842,0-.951-.506-1.781-1.417-1.781a1.39,1.39,0,0,0-1.316,1.073,1.952,1.952,0,0,0-.061.364Z" transform="translate(-886.757 -230.794)"/>
      <path id="Path_950" data-name="Path 950" d="M1051.855,235.549a2.325,2.325,0,0,1-2.368,2.53,2.267,2.267,0,0,1-2.287-2.449,2.33,2.33,0,0,1,2.368-2.53A2.256,2.256,0,0,1,1051.855,235.549Zm-3.785.061c0,1.052.607,1.842,1.457,1.842.83,0,1.457-.769,1.457-1.862,0-.81-.4-1.842-1.437-1.842S1048.07,234.7,1048.07,235.61Z" transform="translate(-917.465 -230.874)"/>
      <path id="Path_951" data-name="Path 951" d="M1074.368,229.2V225.1h-.668v-.668h.668V224.2a2.232,2.232,0,0,1,.546-1.66,1.632,1.632,0,0,1,1.154-.445,1.9,1.9,0,0,1,.749.142l-.121.668a1.248,1.248,0,0,0-.547-.1c-.749,0-.931.648-.931,1.376v.263h1.154v.668h-1.154v4.109h-.85Z" transform="translate(-938.602 -222.1)"/>
      <path id="Path_952" data-name="Path 952" d="M1105.144,237.875a3.117,3.117,0,0,1-1.376.283,2.258,2.258,0,0,1-2.368-2.429,2.422,2.422,0,0,1,2.57-2.53,2.787,2.787,0,0,1,1.194.243l-.2.668a1.964,1.964,0,0,0-1.012-.223,1.647,1.647,0,0,0-1.68,1.8,1.628,1.628,0,0,0,1.66,1.781,2.4,2.4,0,0,0,1.073-.243Z" transform="translate(-960.695 -230.953)"/>
      <path id="Path_953" data-name="Path 953" d="M1128.555,235.549a2.325,2.325,0,0,1-2.368,2.53,2.267,2.267,0,0,1-2.287-2.449,2.33,2.33,0,0,1,2.368-2.53A2.256,2.256,0,0,1,1128.555,235.549Zm-3.785.061c0,1.052.607,1.842,1.457,1.842.83,0,1.457-.769,1.457-1.862,0-.81-.4-1.842-1.437-1.842S1124.77,234.7,1124.77,235.61Z" transform="translate(-978.641 -230.874)"/>
      <path id="Path_954" data-name="Path 954" d="M1153.141,234.417c0-.486,0-.891-.041-1.3h.769l.041.769h.02a1.649,1.649,0,0,1,1.5-.87,1.424,1.424,0,0,1,1.356.951h.02a2.339,2.339,0,0,1,.526-.627,1.6,1.6,0,0,1,1.052-.344c.627,0,1.558.4,1.558,2.064v2.813h-.85v-2.692c0-.911-.344-1.477-1.032-1.477a1.154,1.154,0,0,0-1.032.789,1.441,1.441,0,0,0-.061.425v2.955h-.85v-2.854c0-.769-.344-1.316-.992-1.316a1.171,1.171,0,0,0-1.073.87,1.441,1.441,0,0,0-.061.425v2.874h-.85v-3.461Z" transform="translate(-1001.932 -230.794)"/>
      <path id="Path_955" data-name="Path 955" d="M1194.74,234.68c0-.607-.02-1.113-.04-1.558h.769l.04.81h.02a1.875,1.875,0,0,1,1.7-.931,2.162,2.162,0,0,1,2.024,2.429c0,1.72-1.052,2.57-2.166,2.57a1.732,1.732,0,0,1-1.478-.749h-.02v2.591h-.85V234.68Zm.85,1.275a2.228,2.228,0,0,0,.041.364,1.338,1.338,0,0,0,1.3,1.012c.911,0,1.457-.749,1.457-1.842,0-.951-.506-1.781-1.417-1.781a1.39,1.39,0,0,0-1.316,1.073,1.963,1.963,0,0,0-.061.364Z" transform="translate(-1035.112 -230.794)"/>
      <path id="Path_956" data-name="Path 956" d="M1224.8,237.9l-.061-.607h-.02a1.731,1.731,0,0,1-1.457.708,1.36,1.36,0,0,1-1.457-1.376c0-1.154,1.032-1.781,2.874-1.781v-.1a.992.992,0,0,0-1.093-1.113,2.272,2.272,0,0,0-1.234.364l-.2-.567A2.88,2.88,0,0,1,1223.7,233c1.457,0,1.822.992,1.822,1.943v1.781a6.874,6.874,0,0,0,.081,1.154h-.81Zm-.121-2.429c-.951-.02-2.024.142-2.024,1.073a.769.769,0,0,0,.81.83,1.177,1.177,0,0,0,1.154-.789,1.193,1.193,0,0,0,.041-.283v-.83Z" transform="translate(-1056.727 -230.794)"/>
      <path id="Path_957" data-name="Path 957" d="M1247.841,234.5c0-.486,0-.891-.041-1.3h.769l.04.789h.02a1.775,1.775,0,0,1,1.579-.891c.668,0,1.68.385,1.68,2.024v2.854h-.87v-2.753c0-.769-.283-1.417-1.113-1.417a1.283,1.283,0,0,0-1.214,1.3v2.874h-.87V234.5Z" transform="translate(-1077.465 -230.874)"/>
      <path id="Path_958" data-name="Path 958" d="M1276.573,224.846a.5.5,0,0,1-.546.526.523.523,0,0,1-.526-.526.532.532,0,0,1,.546-.546A.515.515,0,0,1,1276.573,224.846Zm-.971,6.112v-4.777h.87v4.777Z" transform="translate(-1099.558 -223.855)"/>
      <path id="Path_959" data-name="Path 959" d="M1287.53,235.831a1.532,1.532,0,0,0,1.639,1.66,3.034,3.034,0,0,0,1.316-.243l.142.627a3.762,3.762,0,0,1-1.579.3,2.216,2.216,0,0,1-2.348-2.408,2.318,2.318,0,0,1,2.247-2.57,2.017,2.017,0,0,1,1.963,2.247c0,.182-.02.324-.02.4h-3.36Zm2.53-.627c0-.546-.223-1.417-1.194-1.417a1.46,1.46,0,0,0-1.336,1.417Z" transform="translate(-1108.492 -230.953)"/>
      <path id="Path_960" data-name="Path 960" d="M1312.482,237.087a2.356,2.356,0,0,0,1.154.344c.627,0,.931-.324.931-.708,0-.4-.243-.648-.891-.87-.85-.3-1.255-.769-1.255-1.356a1.47,1.47,0,0,1,1.639-1.4,2.32,2.32,0,0,1,1.174.3l-.223.627a1.785,1.785,0,0,0-.971-.283c-.506,0-.789.3-.789.648,0,.385.283.567.911.81.83.324,1.255.729,1.255,1.437,0,.83-.648,1.437-1.781,1.437a2.606,2.606,0,0,1-1.336-.324Z" transform="translate(-1128.91 -230.874)"/>
    </g>
  </g>
</svg>
