<svg xmlns="http://www.w3.org/2000/svg" xmlns:xlink="http://www.w3.org/1999/xlink" width="215.004" height="44.497" viewBox="0 0 215.004 44.497">
  <defs>
    <clipPath id="clip-path">
      <rect id="Rectangle_62" data-name="Rectangle 62" width="215.004" height="44.497" fill="none"/>
    </clipPath>
  </defs>
  <g id="travsol" transform="translate(0 0)">
    <path id="Path_314" data-name="Path 314" d="M7.82.072V5.283h7.468v22.4h5.4V5.283h7.475V.072Z" transform="translate(43.053 0.401)" fill="#14496f"/>
    <g id="Group_73" data-name="Group 73" transform="translate(0 0)">
      <g id="Group_72" data-name="Group 72" clip-path="url(#clip-path)">
        <path id="Path_315" data-name="Path 315" d="M26.263,27.682l-4.5-7.689H16.8v7.689H11.392V.073h10.1A11.2,11.2,0,0,1,26.881,1.3,8.527,8.527,0,0,1,30.4,4.763a10.963,10.963,0,0,1,1.23,5.328,10.67,10.67,0,0,1-1.249,5.3,8.334,8.334,0,0,1-3.552,3.415l5.237,8.873ZM24.9,6.52a5.081,5.081,0,0,0-3.7-1.243H16.8V14.9h4.4a5.031,5.031,0,0,0,3.7-1.256,4.8,4.8,0,0,0,1.269-3.552A4.769,4.769,0,0,0,24.9,6.52" transform="translate(62.718 0.405)" fill="#14496f"/>
        <path id="Path_316" data-name="Path 316" d="M33.124,21.769H22.293l-2.069,5.913H14.688L25.09.073h5.334L40.859,27.682H35.193Zm-1.7-4.853-3.7-10.571-3.7,10.571Z" transform="translate(80.864 0.405)" fill="#14496f"/>
        <path id="Path_317" data-name="Path 317" d="M43.927.073l-10.1,27.615H28.49L18.419.073h5.835l7.1,19.724L38.56.073Z" transform="translate(101.405 0.404)" fill="#14496f"/>
        <path id="Path_318" data-name="Path 318" d="M26.506,27.674a11.733,11.733,0,0,1-4.15-2.309l1.835-4.814a11.673,11.673,0,0,0,3.565,2.095,11.516,11.516,0,0,0,4.137.787,5.729,5.729,0,0,0,3.4-.807,2.543,2.543,0,0,0,1.106-2.153,2.221,2.221,0,0,0-.651-1.633,4.8,4.8,0,0,0-1.665-1.047c-.683-.26-1.6-.553-2.752-.865a33.388,33.388,0,0,1-4.372-1.5,7.192,7.192,0,0,1-2.914-2.407A7.272,7.272,0,0,1,22.824,8.6a8.714,8.714,0,0,1,1.1-4.359,7.785,7.785,0,0,1,3.318-3.1A11.729,11.729,0,0,1,32.661,0a15.5,15.5,0,0,1,4.365.631A11.951,11.951,0,0,1,40.76,2.446L39.094,7.3a11.579,11.579,0,0,0-6.473-2.173A5.32,5.32,0,0,0,29.271,6a2.786,2.786,0,0,0-1.08,2.29A2.261,2.261,0,0,0,29.44,10.4a17.158,17.158,0,0,0,3.819,1.36,33.594,33.594,0,0,1,4.365,1.5,7.3,7.3,0,0,1,2.921,2.361A7.129,7.129,0,0,1,41.762,20a8.561,8.561,0,0,1-1.119,4.313,7.848,7.848,0,0,1-3.35,3.1,11.825,11.825,0,0,1-5.432,1.138,16.359,16.359,0,0,1-5.354-.885" transform="translate(123.079 0.003)" fill="#228ecd"/>
        <path id="Path_319" data-name="Path 319" d="M31.9,26.711A12.719,12.719,0,0,1,27.334,21.6a15.86,15.86,0,0,1-1.652-7.319,15.852,15.852,0,0,1,1.652-7.312A12.7,12.7,0,0,1,31.9,1.861a12.429,12.429,0,0,1,13.082,0,12.858,12.858,0,0,1,4.573,5.107,15.858,15.858,0,0,1,1.665,7.312A15.866,15.866,0,0,1,49.557,21.6a12.877,12.877,0,0,1-4.573,5.113,12.466,12.466,0,0,1-13.082,0m10.285-4.716A7.556,7.556,0,0,0,44.8,18.859a10.541,10.541,0,0,0,.95-4.58,10.532,10.532,0,0,0-.95-4.573A7.556,7.556,0,0,0,42.186,6.57a6.757,6.757,0,0,0-7.468,0A7.618,7.618,0,0,0,32.1,9.706a10.626,10.626,0,0,0-.95,4.573,10.635,10.635,0,0,0,.95,4.58,7.618,7.618,0,0,0,2.622,3.136,6.757,6.757,0,0,0,7.468,0" transform="translate(141.39 0.003)" fill="#228ecd"/>
        <path id="Path_320" data-name="Path 320" d="M30.233.073h5.4v22.4h11.7v5.211h-17.1Z" transform="translate(166.445 0.404)" fill="#228ecd"/>
        <path id="Path_321" data-name="Path 321" d="M16.753,6.263H13.071V16.652H11.516V6.263H7.841V5.027h8.912Z" transform="translate(43.166 27.677)" fill="#228ecd"/>
        <path id="Path_322" data-name="Path 322" d="M16.932,11.265h-5.25v4.15h6.05v1.243h-7.6V5.026h7.514V6.269H11.682v3.76h5.25Z" transform="translate(55.792 27.674)" fill="#228ecd"/>
        <path id="Path_323" data-name="Path 323" d="M20.758,13.067l.013.046a3.5,3.5,0,0,1-1.132,2.745,4.29,4.29,0,0,1-3.077,1.106,4.029,4.029,0,0,1-3.168-1.4,5.2,5.2,0,0,1-1.223-3.545V9.951a5.2,5.2,0,0,1,1.223-3.545A4.013,4.013,0,0,1,16.562,5a4.413,4.413,0,0,1,3.1,1.054,3.482,3.482,0,0,1,1.112,2.778l-.013.052h-1.49a2.6,2.6,0,0,0-.709-1.932,2.688,2.688,0,0,0-2-.716A2.431,2.431,0,0,0,14.493,7.3a4.338,4.338,0,0,0-.774,2.628v2.082a4.406,4.406,0,0,0,.774,2.654,2.441,2.441,0,0,0,2.069,1.06,2.685,2.685,0,0,0,2-.709,2.615,2.615,0,0,0,.709-1.952Z" transform="translate(67.006 27.53)" fill="#228ecd"/>
        <path id="Path_324" data-name="Path 324" d="M23.145,16.652H21.6V11.519H16.028v5.133H14.48V5.027h1.548v5.25H21.6V5.027h1.548Z" transform="translate(79.717 27.677)" fill="#228ecd"/>
        <path id="Path_325" data-name="Path 325" d="M25.577,16.652H24.029l-5.523-8.99-.046.013v8.977H16.912V5.027H18.46L23.976,14l.052-.02V5.027h1.548Z" transform="translate(93.105 27.677)" fill="#228ecd"/>
        <path id="Path_326" data-name="Path 326" d="M28.461,12.02a4.979,4.979,0,0,1-1.3,3.532,4.4,4.4,0,0,1-3.383,1.405,4.173,4.173,0,0,1-3.259-1.405,5.094,5.094,0,0,1-1.256-3.532V9.952a5.122,5.122,0,0,1,1.256-3.539A4.157,4.157,0,0,1,23.777,5,4.4,4.4,0,0,1,27.16,6.406a5.011,5.011,0,0,1,1.3,3.545ZM26.912,9.932A3.97,3.97,0,0,0,26.06,7.31a2.829,2.829,0,0,0-2.283-1.021,2.632,2.632,0,0,0-2.16,1.021,4.132,4.132,0,0,0-.807,2.622V12.02a4.157,4.157,0,0,0,.807,2.635,2.632,2.632,0,0,0,2.16,1.021,2.814,2.814,0,0,0,2.29-1.021,3.967,3.967,0,0,0,.846-2.635Z" transform="translate(106.045 27.535)" fill="#228ecd"/>
        <path id="Path_327" data-name="Path 327" d="M23.245,15.415h5.426v1.236H21.7V5.026h1.548Z" transform="translate(119.451 27.675)" fill="#228ecd"/>
        <path id="Path_328" data-name="Path 328" d="M32.787,12.02a4.979,4.979,0,0,1-1.3,3.532A4.4,4.4,0,0,1,28.1,16.958a4.173,4.173,0,0,1-3.259-1.405,5.094,5.094,0,0,1-1.256-3.532V9.952a5.122,5.122,0,0,1,1.256-3.539A4.157,4.157,0,0,1,28.1,5a4.4,4.4,0,0,1,3.383,1.405,5.011,5.011,0,0,1,1.3,3.545ZM31.238,9.932a3.97,3.97,0,0,0-.852-2.622A2.829,2.829,0,0,0,28.1,6.289a2.632,2.632,0,0,0-2.16,1.021,4.132,4.132,0,0,0-.807,2.622V12.02a4.157,4.157,0,0,0,.807,2.635,2.632,2.632,0,0,0,2.16,1.021,2.814,2.814,0,0,0,2.29-1.021,3.967,3.967,0,0,0,.846-2.635Z" transform="translate(129.862 27.535)" fill="#228ecd"/>
        <path id="Path_329" data-name="Path 329" d="M34.725,15.254a3.689,3.689,0,0,1-1.418,1.177,5.671,5.671,0,0,1-2.622.533,4.578,4.578,0,0,1-4.736-4.788V9.782A4.83,4.83,0,0,1,27.2,6.335,4.23,4.23,0,0,1,30.425,5a4.536,4.536,0,0,1,3.1.982,3.261,3.261,0,0,1,1.145,2.531l-.013.046H33.177a2.48,2.48,0,0,0-.761-1.665,2.793,2.793,0,0,0-1.991-.657,2.585,2.585,0,0,0-2.114,1A3.931,3.931,0,0,0,27.5,9.763v2.414a3.661,3.661,0,0,0,.9,2.544,2.93,2.93,0,0,0,2.283,1.008,4.148,4.148,0,0,0,1.6-.267,2.215,2.215,0,0,0,.891-.6V12.229H30.665V10.992h4.059Z" transform="translate(142.86 27.535)" fill="#228ecd"/>
        <rect id="Rectangle_61" data-name="Rectangle 61" width="1.561" height="11.625" transform="translate(184.669 32.703)" fill="#228ecd"/>
        <path id="Path_330" data-name="Path 330" d="M36.538,11.265h-5.25v4.15h6.05v1.243h-7.6V5.026h7.514V6.269H31.288v3.76h5.25Z" transform="translate(163.732 27.674)" fill="#228ecd"/>
        <path id="Path_331" data-name="Path 331" d="M38.616,13.868a1.713,1.713,0,0,0-.592-1.327,4.968,4.968,0,0,0-2.095-.9,6.969,6.969,0,0,1-2.836-1.295,2.7,2.7,0,0,1-1.015-2.153,2.851,2.851,0,0,1,1.093-2.277A4.339,4.339,0,0,1,36.02,5a4.194,4.194,0,0,1,2.993,1.047,3.1,3.1,0,0,1,1.073,2.427l-.013.046H38.6a2.191,2.191,0,0,0-.67-1.652,2.683,2.683,0,0,0-1.906-.631,2.622,2.622,0,0,0-1.776.533,1.739,1.739,0,0,0-.618,1.386,1.518,1.518,0,0,0,.67,1.262,6.232,6.232,0,0,0,2.173.891,6.156,6.156,0,0,1,2.752,1.347,2.871,2.871,0,0,1,.943,2.192,2.706,2.706,0,0,1-1.132,2.264,4.813,4.813,0,0,1-2.96.852,5.06,5.06,0,0,1-3.032-.95,2.857,2.857,0,0,1-1.282-2.524l.02-.052h1.477a1.956,1.956,0,0,0,.813,1.7,3.334,3.334,0,0,0,2,.585,3.109,3.109,0,0,0,1.861-.5,1.6,1.6,0,0,0,.683-1.36" transform="translate(174.84 27.535)" fill="#228ecd"/>
        <path id="Path_332" data-name="Path 332" d="M40.073,43.911H5.289A5.289,5.289,0,0,1,0,38.623V5.354A5.289,5.289,0,0,1,5.289.065H40.073a5.289,5.289,0,0,1,5.289,5.289V38.623a5.289,5.289,0,0,1-5.289,5.289" transform="translate(0 0.361)" fill="#2181bc"/>
        <path id="Path_333" data-name="Path 333" d="M13.6,15.621V9.877l.182-.065a1.612,1.612,0,0,0,.859-.93,1.665,1.665,0,0,0-.982-2.127,1.657,1.657,0,1,0-1.145,3.11l.065.013v5.2L8.645,17.755V5.824a1.671,1.671,0,0,0,1.041-1A1.633,1.633,0,0,0,9.634,3.56,1.612,1.612,0,0,0,8.7,2.7,1.654,1.654,0,1,0,7.559,5.8l.059.013v8.015L4.6,12.349V8.589l.182-.065a1.653,1.653,0,0,0-.124-3.051,1.655,1.655,0,0,0-2.121.982,1.659,1.659,0,0,0,.976,2.121l.065.02v4.4l4.04,1.978v6.792H8.645V19ZM12.5,8.095a.636.636,0,0,1,.592-.416l.221.039a.631.631,0,0,1,.371.813.629.629,0,0,1-.807.371.632.632,0,0,1-.377-.807M3.512,7.288a.618.618,0,0,1-.02-.481.643.643,0,0,1,.592-.416l.221.046a.624.624,0,0,1,.371.807.607.607,0,0,1-.325.358.618.618,0,0,1-.481.02.639.639,0,0,1-.358-.332M7.559,4.517a.618.618,0,0,1-.02-.481.636.636,0,0,1,.592-.416l.221.039a.633.633,0,0,1,.371.813.624.624,0,0,1-.807.371.609.609,0,0,1-.358-.325" transform="translate(13.389 14.306)" fill="#fff"/>
        <path id="Path_334" data-name="Path 334" d="M30.012,11.774A10.9,10.9,0,0,0,8.505,9.737a9.579,9.579,0,0,0,1.568,19.028h1.756V21.1a1.651,1.651,0,0,0,1.132-1.386A1.656,1.656,0,1,0,10.808,21.1v6.649h-.735A8.556,8.556,0,0,1,8.993,10.7l.364-.046.072-.364A9.881,9.881,0,0,1,29,12.229v.481l.475.033a14.1,14.1,0,0,1,4.5,1.217c2.921,1.386,4.4,3.578,4.4,6.518,0,3.806-3.136,7.267-6.577,7.267H28.178V22.26a1.7,1.7,0,0,0,.625-.306,1.627,1.627,0,0,0,.612-1.106,1.666,1.666,0,0,0-1.457-1.835,1.652,1.652,0,0,0-.8,3.175v6.577h4.638c4.053,0,7.6-3.871,7.6-8.288,0-6.98-7.436-8.444-9.387-8.7M10.691,19.45a.632.632,0,0,1,.625-.559l.072.007a.629.629,0,0,1,.325,1.119.617.617,0,0,1-.468.137.631.631,0,0,1-.553-.7m16.452,1.138a.639.639,0,0,1,.631-.559l.065.007a.609.609,0,0,1,.429.234.617.617,0,0,1,.13.462.631.631,0,0,1-.234.423.6.6,0,0,1-.468.13.629.629,0,0,1-.553-.7" transform="translate(2.736 7.303)" fill="#fff"/>
        <path id="Path_335" data-name="Path 335" d="M4.659,4.672a1.622,1.622,0,0,0-1.269.052,1.65,1.65,0,0,0-.807,2.192,1.612,1.612,0,0,0,.93.859l.059.02v3.129H4.6V7.794A1.65,1.65,0,0,0,5.589,5.53a1.631,1.631,0,0,0-.93-.859m.02,1.769a.635.635,0,0,1-.807.377.636.636,0,0,1-.377-.813.63.63,0,0,1,.592-.41l.215.039a.627.627,0,0,1,.377.807" transform="translate(13.387 25.146)" fill="#fff"/>
        <path id="Path_336" data-name="Path 336" d="M6.073,4.971A1.653,1.653,0,0,0,4,7.215a1.612,1.612,0,0,0,.93.859l.059.02V9.277H6.014V8.087L6.2,8.022a1.652,1.652,0,0,0-.124-3.051m.02,1.769a.65.65,0,0,1-.325.358.635.635,0,0,1-.488.02.627.627,0,0,1-.351-.332.618.618,0,0,1-.02-.481A.636.636,0,0,1,5.5,5.888l.215.039a.637.637,0,0,1,.377.813" transform="translate(21.172 26.798)" fill="#fff"/>
      </g>
    </g>
  </g>
</svg>
