<svg id="travelnation" xmlns="http://www.w3.org/2000/svg" width="259.639" height="66.563" viewBox="0 0 259.639 66.563">
  <g id="Layer_1-2" data-name="Layer 1-2" transform="translate(0 0)">
    <path id="Path_337" data-name="Path 337" d="M806.773,0a33.261,33.261,0,0,0-28.4,15.928A31.1,31.1,0,0,1,802.531,4.545c17.04,0,30.858,13.479,30.858,30.1s-13.807,30.1-30.85,30.1a31.445,31.445,0,0,1-11.658-2.225A33.281,33.281,0,1,0,806.773,0Z" transform="translate(-580.41 0)" fill="#474747"/>
    <path id="Path_338" data-name="Path 338" d="M498.463,75.86h6.806l8.879,13.047V75.86h6.867V99.441h-6.867l-8.83-12.948V99.441H498.45Z" transform="translate(-371.681 -56.567)" fill="#383838"/>
    <path id="Path_339" data-name="Path 339" d="M608.148,105.821l-6.256-.659a7.083,7.083,0,0,1,1.017-2.584,5.694,5.694,0,0,1,1.933-1.633,8.075,8.075,0,0,1,2.477-.763,19.9,19.9,0,0,1,3.411-.275,27.265,27.265,0,0,1,4.73.331,6.086,6.086,0,0,1,2.976,1.376,4.817,4.817,0,0,1,1.317,2.05,7.376,7.376,0,0,1,.483,2.543v7.546a9.057,9.057,0,0,0,.153,1.89,8.392,8.392,0,0,0,.669,1.745H614.9a6.208,6.208,0,0,1-.483-1.017,7.555,7.555,0,0,1-.226-1.086,8.457,8.457,0,0,1-2.543,1.78,10.682,10.682,0,0,1-4.039.707,6.768,6.768,0,0,1-4.641-1.417,4.5,4.5,0,0,1-1.584-3.489,4.578,4.578,0,0,1,1.142-3.2,7.755,7.755,0,0,1,4.217-1.867q3.68-.738,4.776-1.035a22.54,22.54,0,0,0,2.317-.781,2.264,2.264,0,0,0-.509-1.689,2.527,2.527,0,0,0-1.755-.483,4.58,4.58,0,0,0-2.411.509A2.717,2.717,0,0,0,608.148,105.821Zm5.672,3.441q-1.35.486-2.815.855a6.454,6.454,0,0,0-2.525,1.045,1.676,1.676,0,0,0-.1,2.368c.033.036.066.069.1.1a2.287,2.287,0,0,0,1.584.488,4.069,4.069,0,0,0,2.035-.529,3.209,3.209,0,0,0,1.335-1.295,4.358,4.358,0,0,0,.394-1.989Z" transform="translate(-448.431 -74.496)" fill="#383838"/>
    <path id="Path_340" data-name="Path 340" d="M693.405,75.86v6.5h3.6v4.794h-3.6v6.053a3.263,3.263,0,0,0,.209,1.445,1.2,1.2,0,0,0,1.127.544,7.139,7.139,0,0,0,2.035-.417l.483,4.517a21.261,21.261,0,0,1-4.552.534,7.9,7.9,0,0,1-3.6-.626,3.828,3.828,0,0,1-1.714-1.9,11.176,11.176,0,0,1-.554-4.138V87.152H684.42V82.358h2.414V79.222Z" transform="translate(-510.354 -56.567)" fill="#383838"/>
    <path id="Path_341" data-name="Path 341" d="M747.13,75.86h6.549v4.456H747.13Zm0,6.5h6.549V99.441H747.13Z" transform="translate(-557.115 -56.567)" fill="#383838"/>
    <path id="Path_342" data-name="Path 342" d="M786.16,108.838a8.555,8.555,0,0,1,2.637-6.445,9.869,9.869,0,0,1,7.121-2.543q5.132,0,7.752,2.976a9.3,9.3,0,0,1-.506,12.363,9.991,9.991,0,0,1-7.231,2.518,10.143,10.143,0,0,1-6.658-2.091A8.37,8.37,0,0,1,786.16,108.838Zm6.562-.018a5.137,5.137,0,0,0,.926,3.377,3.029,3.029,0,0,0,4.265.407,3.2,3.2,0,0,0,.384-.381,5.344,5.344,0,0,0,.908-3.459,5.042,5.042,0,0,0-.916-3.306,2.866,2.866,0,0,0-2.269-1.086,2.963,2.963,0,0,0-2.365,1.1,5.094,5.094,0,0,0-.923,3.344Z" transform="translate(-586.218 -74.455)" fill="#383838"/>
    <path id="Path_343" data-name="Path 343" d="M875.72,100.267h6.1v2.782a9.041,9.041,0,0,1,2.767-2.436A7.286,7.286,0,0,1,888,99.88a5.592,5.592,0,0,1,4.255,1.618,6.988,6.988,0,0,1,1.526,4.995V117.35h-6.574v-9.395a3.422,3.422,0,0,0-.6-2.276,2.129,2.129,0,0,0-1.673-.666,2.378,2.378,0,0,0-1.93.9,5.239,5.239,0,0,0-.74,3.232v8.2H875.72Z" transform="translate(-653.001 -74.476)" fill="#383838"/>
    <path id="Path_344" data-name="Path 344" d="M14.929,109.683a5,5,0,0,0,1.7-.254,3.019,3.019,0,0,0,1.053-.61,2.035,2.035,0,0,0,.526-.763,2.185,2.185,0,0,0,.15-.71h2.569a4.084,4.084,0,0,1-.3,1.467,3.774,3.774,0,0,1-.987,1.417,5.394,5.394,0,0,1-1.8,1.061,7.838,7.838,0,0,1-2.719.412h-4.7a6,6,0,0,1-4.268-1.465,6.079,6.079,0,0,1-1.582-4.606V97.791H0V95.418H4.578V92.29H6.951v3.128H19.212v2.373H6.958v8.138a3.679,3.679,0,0,0,.987,2.884,3.6,3.6,0,0,0,2.482.87Z" transform="translate(0 -68.818)" fill="#d6ba5e"/>
    <path id="Path_345" data-name="Path 345" d="M107.315,104.32a9.41,9.41,0,0,1,3.375.529,5.694,5.694,0,0,1,2.192,1.417,5.158,5.158,0,0,1,1.17,2.058,8.573,8.573,0,0,1,.346,2.421h-2.373a4.117,4.117,0,0,0-1.272-3.26,5.385,5.385,0,0,0-3.672-1.122h-5.862a5.74,5.74,0,0,0-3.706,1.017,4.13,4.13,0,0,0-1.236,3.377v9.919H93.94V104.4h2.337v2.075a3.619,3.619,0,0,1,1.63-1.582,6.958,6.958,0,0,1,3.082-.56Z" transform="translate(-70.049 -77.786)" fill="#d6ba5e"/>
    <path id="Path_346" data-name="Path 346" d="M197.4,110.909a4.483,4.483,0,0,1,2.108.4,1.691,1.691,0,0,1,.89.954v-2.3a3.342,3.342,0,0,0-.923-2.391,4.1,4.1,0,0,0-3.065-.972h-6.925a5.6,5.6,0,0,0-3.08.659,1.95,1.95,0,0,0-.972,1.648v.394h-2.439V108.9a3.741,3.741,0,0,1,1.526-3.161,7.023,7.023,0,0,1,4.324-1.155h7.775a8.815,8.815,0,0,1,2.818.4,4.784,4.784,0,0,1,1.91,1.137,4.42,4.42,0,0,1,1.086,1.811,7.757,7.757,0,0,1,.346,2.388v10.542h-2.358v-1.284a4.324,4.324,0,0,1-1.122.905,3.662,3.662,0,0,1-1.811.379H187.151a5.836,5.836,0,0,1-3.772-1.017,3.864,3.864,0,0,1-1.233-3.146v-1.976a3.492,3.492,0,0,1,1.218-2.752,5.819,5.819,0,0,1,3.886-1.071Zm-9.324,2.009a8.825,8.825,0,0,0-1.811.15,2.729,2.729,0,0,0-1.089.445,1.409,1.409,0,0,0-.526.74,3.667,3.667,0,0,0-.132,1.038v1.185a2.8,2.8,0,0,0,.165.989,1.75,1.75,0,0,0,.56.74,2.757,2.757,0,0,0,1.089.471,7.732,7.732,0,0,0,1.745.165h8.7a4.266,4.266,0,0,0,2.734-.71,2.765,2.765,0,0,0,.857-2.256,2.661,2.661,0,0,0-.923-2.256,4.334,4.334,0,0,0-2.668-.71Z" transform="translate(-135.82 -77.984)" fill="#d6ba5e"/>
    <path id="Path_347" data-name="Path 347" d="M283.669,118.3h.529l7.345-13.706h2.635l-8.662,16.277h-3.1l-8.7-16.277h2.637Z" transform="translate(-204.106 -77.99)" fill="#d6ba5e"/>
    <path id="Path_348" data-name="Path 348" d="M361.078,119.113a5.859,5.859,0,0,1-1.679-4.563v-3.889a6.641,6.641,0,0,1,.443-2.4,5.761,5.761,0,0,1,1.32-2.035,6.475,6.475,0,0,1,2.157-1.4,7.721,7.721,0,0,1,2.965-.529h6.852a8.965,8.965,0,0,1,3.052.478,6.551,6.551,0,0,1,2.19,1.272,5.086,5.086,0,0,1,1.3,1.829,5.654,5.654,0,0,1,.427,2.157V112.4H361.745v1.844a5.536,5.536,0,0,0,.346,2.093,3.332,3.332,0,0,0,2.355,2.075,7.263,7.263,0,0,0,1.813.214H374a3.98,3.98,0,0,0,2.833-.857,2.711,2.711,0,0,0,.89-2.009v-.331h2.37v.331a5.218,5.218,0,0,1-.28,1.615,4.3,4.3,0,0,1-.933,1.592,5.021,5.021,0,0,1-1.78,1.2,7.1,7.1,0,0,1-2.8.478h-7.966Q362.744,120.646,361.078,119.113Zm4.832-12.767a4.074,4.074,0,0,0-3.014,1.137,3.947,3.947,0,0,0-1.137,2.917h16.023a3.888,3.888,0,0,0-1.17-2.917,4.46,4.46,0,0,0-3.245-1.137Z" transform="translate(-267.995 -77.769)" fill="#d6ba5e"/>
    <path id="Path_349" data-name="Path 349" d="M462.493,101.551H460.12V78.69h2.373Z" transform="translate(-343.099 -58.677)" fill="#d6ba5e"/>
  </g>
</svg>
