<svg xmlns="http://www.w3.org/2000/svg" width="46.577" height="46.577" viewBox="0 0 46.577 46.577">
  <g id="web_hosting" transform="translate(0 -0.001)">
    <g id="Group_5" data-name="Group 5" transform="translate(0 4.913)">
      <g id="Group_4" data-name="Group 4">
        <path id="Path_3" data-name="Path 3" d="M9.673,54H4.69A4.7,4.7,0,0,0,0,58.691V83.152a4.708,4.708,0,0,0,2.717,4.256.91.91,0,0,0,.766-1.65,2.883,2.883,0,0,1-1.664-2.606V58.691A2.874,2.874,0,0,1,4.69,55.82H9.673a.91.91,0,1,0,0-1.819Z" transform="translate(0 -54.001)" fill="#fff"/>
      </g>
    </g>
    <g id="Group_7" data-name="Group 7" transform="translate(5.204 0.001)">
      <g id="Group_6" data-name="Group 6">
        <path id="Path_4" data-name="Path 4" d="M93.887,4.913H86.093A5.039,5.039,0,0,0,81.062,0H69.515a5.039,5.039,0,0,0-5.034,5.034V10.25H58.247a.91.91,0,0,0,0,1.819h6.235v2.911H58.247a.91.91,0,0,0,0,1.819h6.235v2.911H58.247a.91.91,0,0,0,0,1.819h6.235v2.911H58.247a.91.91,0,1,0,0,1.819h6.235v4.923a5.241,5.241,0,0,0-4.682,5.2q0,.214.018.428a5.233,5.233,0,0,0,2.623,9.763H86.427a6.943,6.943,0,1,0-1.14-13.793,10.247,10.247,0,0,0-5.369-6.172.91.91,0,1,0-.778,1.645,8.415,8.415,0,0,1,4.407,5.059,6.956,6.956,0,0,0-3.2,2.964.91.91,0,1,0,1.592.88,5.127,5.127,0,1,1,4.491,7.6H62.44a3.413,3.413,0,0,1-1.283-6.577.91.91,0,0,0,.546-1.043,3.412,3.412,0,0,1,3.332-4.165,3.385,3.385,0,0,1,1.483.338.91.91,0,0,0,1.244-.493A8.423,8.423,0,0,1,72.2,28.166a.91.91,0,0,0-.734-1.665,10.266,10.266,0,0,0-5.041,4.84l-.124-.032V5.035A3.218,3.218,0,0,1,69.515,1.82H81.062a3.218,3.218,0,0,1,3.214,3.214v22.35a.91.91,0,0,0,1.819,0V26.261h6.235a.91.91,0,1,0,0-1.819H86.1V21.531h6.235a.91.91,0,0,0,0-1.819H86.1V16.8h6.235a.91.91,0,0,0,0-1.819H86.1V12.07h6.235a.91.91,0,0,0,0-1.819H86.1V6.733h7.791A2.874,2.874,0,0,1,96.758,9.6V34.065a2.867,2.867,0,0,1-.719,1.9.91.91,0,1,0,1.363,1.2,4.685,4.685,0,0,0,1.175-3.1V9.6A4.7,4.7,0,0,0,93.887,4.913Z" transform="translate(-57.204 -0.001)" fill="#fff"/>
      </g>
    </g>
    <g id="Group_9" data-name="Group 9" transform="translate(18.376 5.823)">
      <g id="Group_8" data-name="Group 8">
        <path id="Path_5" data-name="Path 5" d="M210.915,64H202.91a.91.91,0,0,0,0,1.819h8.006a.91.91,0,0,0,0-1.819Z" transform="translate(-202 -64.001)" fill="#fff"/>
      </g>
    </g>
    <g id="Group_11" data-name="Group 11" transform="translate(18.376 15.284)">
      <g id="Group_10" data-name="Group 10">
        <path id="Path_6" data-name="Path 6" d="M210.915,168H202.91a.91.91,0,1,0,0,1.819h8.006a.91.91,0,0,0,0-1.819Z" transform="translate(-202 -168.001)" fill="#fff"/>
      </g>
    </g>
    <g id="Group_13" data-name="Group 13" transform="translate(18.376 10.554)">
      <g id="Group_12" data-name="Group 12">
        <path id="Path_7" data-name="Path 7" d="M210.915,116H202.91a.91.91,0,1,0,0,1.819h8.006a.91.91,0,0,0,0-1.819Z" transform="translate(-202 -116.001)" fill="#fff"/>
      </g>
    </g>
    <g id="Group_15" data-name="Group 15" transform="translate(18.376 20.015)">
      <g id="Group_14" data-name="Group 14">
        <path id="Path_8" data-name="Path 8" d="M210.915,220H202.91a.91.91,0,1,0,0,1.819h8.006a.91.91,0,0,0,0-1.819Z" transform="translate(-202 -220.001)" fill="#fff"/>
      </g>
    </g>
    <g id="Group_17" data-name="Group 17" transform="translate(22.658 25.641)">
      <g id="Group_16" data-name="Group 16">
        <path id="Path_9" data-name="Path 9" d="M250.014,281.848h-.034a.91.91,0,1,0,0,1.819h.028a.91.91,0,0,0,.006-1.82Z" transform="translate(-249.07 -281.848)" fill="#fff"/>
      </g>
    </g>
    <g id="Group_19" data-name="Group 19" transform="translate(27.143 39.377)">
      <g id="Group_18" data-name="Group 18">
        <path id="Path_10" data-name="Path 10" d="M299.273,432.845a.91.91,0,0,0-.91.91v.014a.91.91,0,0,0,1.819,0v-.014A.91.91,0,0,0,299.273,432.845Z" transform="translate(-298.363 -432.845)" fill="#fff"/>
      </g>
    </g>
    <g id="Group_21" data-name="Group 21" transform="translate(7.384 28.35)">
      <g id="Group_20" data-name="Group 20">
        <path id="Path_11" data-name="Path 11" d="M83.743,311.628a2.577,2.577,0,0,0-2.574,2.574.91.91,0,0,0,1.819,0,.756.756,0,0,1,.755-.755.91.91,0,1,0,0-1.819Z" transform="translate(-81.169 -311.628)" fill="#fff"/>
      </g>
    </g>
    <g id="Group_23" data-name="Group 23" transform="translate(35.671 28.35)">
      <g id="Group_22" data-name="Group 22">
        <path id="Path_12" data-name="Path 12" d="M393.024,311.628a.91.91,0,0,0,0,1.819.756.756,0,0,1,.755.755.91.91,0,0,0,1.819,0A2.577,2.577,0,0,0,393.024,311.628Z" transform="translate(-392.114 -311.628)" fill="#fff"/>
      </g>
    </g>
  </g>
</svg>
